<svg xmlns="http://www.w3.org/2000/svg" width="706.08" height="181.72" viewBox="0 0 706.08 181.72">
  <g>
    <g>
      <path d="M0,129.86V99.55h2v30.31Z" fill="#0b675e"/>
      <path d="M7.71,129.86V99.55H9.32l10.29,25.59V99.55H21.4v30.31H19.79L9.5,104.22v25.64Z" fill="#0b675e"/>
      <path d="M33,130.23a7.32,7.32,0,0,1-3.95-1,6.16,6.16,0,0,1-2.35-2.73,12.34,12.34,0,0,1-1-4.16l1.76-.56a17.92,17.92,0,0,0,.81,3.52A5,5,0,0,0,30,127.71a5.11,5.11,0,0,0,3.11.84,5.2,5.2,0,0,0,3.53-1.13,4.72,4.72,0,0,0,1.3-3.74,6.48,6.48,0,0,0-1-3.57,21.59,21.59,0,0,0-2.9-3.43l-5.54-5.5a9.84,9.84,0,0,1-2-2.84,7,7,0,0,1-.64-2.92,5.78,5.78,0,0,1,1.85-4.6,7.1,7.1,0,0,1,4.81-1.61,9.18,9.18,0,0,1,2.77.39,5.53,5.53,0,0,1,2.15,1.28,5.93,5.93,0,0,1,1.44,2.33,13.57,13.57,0,0,1,.68,3.6l-1.72.41a12,12,0,0,0-.72-3.56,4.27,4.27,0,0,0-1.64-2.11,5.42,5.42,0,0,0-2.92-.69,5.58,5.58,0,0,0-3.44,1,4,4,0,0,0-1.39,3.37,5.67,5.67,0,0,0,.47,2.25,8,8,0,0,0,1.74,2.36l5.46,5.38a22.23,22.23,0,0,1,3.16,3.84,8,8,0,0,1,1.33,4.47,7.32,7.32,0,0,1-.86,3.76,5.22,5.22,0,0,1-2.39,2.19A8.38,8.38,0,0,1,33,130.23Z" fill="#0b675e"/>
      <path d="M47.9,129.86V101.19H41.83V99.55h14v1.64H49.92v28.67Z" fill="#0b675e"/>
      <path d="M59.38,129.86V99.55h7.34a7.26,7.26,0,0,1,4.13,1,5,5,0,0,1,2,2.69,12.24,12.24,0,0,1,.55,3.8,14.06,14.06,0,0,1-.36,3.22,5.78,5.78,0,0,1-1.31,2.6,4.51,4.51,0,0,1-2.79,1.36l4.87,15.65h-2l-4.72-15.27H61.4v15.27Zm2-16.84h5.24a5.09,5.09,0,0,0,3-.73,3.79,3.79,0,0,0,1.4-2.08,11.52,11.52,0,0,0,.39-3.18,8.19,8.19,0,0,0-1-4.38c-.64-1-1.92-1.49-3.84-1.49H61.4Z" fill="#0b675e"/>
      <path d="M85.58,130.27a9,9,0,0,1-4.61-1,5.35,5.35,0,0,1-2.3-2.7,10.72,10.72,0,0,1-.65-3.83V99.55h2v23.23a8.75,8.75,0,0,0,.47,3,3.91,3.91,0,0,0,1.68,2.08,6.56,6.56,0,0,0,3.39.74,6.09,6.09,0,0,0,3.27-.76,4.31,4.31,0,0,0,1.74-2.08,7.89,7.89,0,0,0,.52-3V99.55h2v23.2a9.9,9.9,0,0,1-.71,3.83,5.69,5.69,0,0,1-2.34,2.7A8.61,8.61,0,0,1,85.58,130.27Z" fill="#0b675e"/>
      <path d="M98,129.86l.9-30.31h2l6.4,27.35,6.51-27.35h2.09l.87,30.31H115l-.75-25.41-6.18,25.41h-1.49l-6.1-25.37-.75,25.37Z" fill="#0b675e"/>
      <path d="M122,129.86V99.55h10.47v1.64H124v12.16h6.93v1.58H124v13.32h8.54v1.61Z" fill="#0b675e"/>
      <path d="M136.69,129.86V99.55h1.61l10.29,25.59V99.55h1.79v30.31h-1.61l-10.29-25.64v25.64Z" fill="#0b675e"/>
      <path d="M160,129.86V101.19H153.9V99.55h14v1.64H162v28.67Z" fill="#0b675e"/>
      <path d="M178.3,130.27a7.71,7.71,0,0,1-4.59-1.18,6.11,6.11,0,0,1-2.26-3.22,15.63,15.63,0,0,1-.64-4.62V108a14.11,14.11,0,0,1,.68-4.56,6,6,0,0,1,2.3-3.11,9.64,9.64,0,0,1,9,0,6.06,6.06,0,0,1,2.3,3.11,14.12,14.12,0,0,1,.67,4.56v13.29a15.46,15.46,0,0,1-.63,4.6,6.11,6.11,0,0,1-2.27,3.2A7.66,7.66,0,0,1,178.3,130.27Zm0-1.69a5.59,5.59,0,0,0,3.35-.86,4.32,4.32,0,0,0,1.62-2.41,13,13,0,0,0,.45-3.61v-14a12.85,12.85,0,0,0-.45-3.59,4.28,4.28,0,0,0-1.6-2.37,7.07,7.07,0,0,0-6.72,0,4.27,4.27,0,0,0-1.63,2.37,12.85,12.85,0,0,0-.45,3.59v14a13,13,0,0,0,.45,3.61,4.34,4.34,0,0,0,1.63,2.41A5.55,5.55,0,0,0,178.3,128.58Z" fill="#0b675e"/>
      <path d="M204.9,129.86V99.55h6.62a8.17,8.17,0,0,1,4.72,1.16,6.1,6.1,0,0,1,2.36,3.14,13.63,13.63,0,0,1,.67,4.42v12.57a14.68,14.68,0,0,1-.67,4.62,6.34,6.34,0,0,1-2.3,3.22,7.79,7.79,0,0,1-4.59,1.18Zm2-1.61h4.68a5.45,5.45,0,0,0,3.67-1,5,5,0,0,0,1.57-2.79,18,18,0,0,0,.37-3.8V108.42a14.51,14.51,0,0,0-.45-3.84,4.44,4.44,0,0,0-1.68-2.51,6.13,6.13,0,0,0-3.56-.88h-4.6Z" fill="#0b675e"/>
      <path d="M224.21,129.86V99.55h10.48v1.64h-8.42v12.16h6.92v1.58h-6.92v13.32h8.53v1.61Z" fill="#0b675e"/>
      <path d="M244.42,129.86l6.36-30.31h2.35l6.4,30.31h-2l-1.58-8.39h-7.85l-1.61,8.39Zm3.92-9.88h7.3L252,102Z" fill="#0b675e"/>
      <path d="M267.39,129.86l-7.33-30.31h2l6.28,26.75,5.88-26.75h2l-6.92,30.31Z" fill="#0b675e"/>
      <path d="M276.75,129.86l6.36-30.31h2.35l6.4,30.31h-2.05l-1.58-8.39h-7.85l-1.61,8.39Zm3.92-9.88H288l-3.67-18Z" fill="#0b675e"/>
      <path d="M295.87,129.86V99.55h2v28.7h9.17v1.61Z" fill="#0b675e"/>
      <path d="M309.86,129.86V99.55h2v30.31Z" fill="#0b675e"/>
      <path d="M315.92,129.86l6.36-30.31h2.36l6.4,30.31H329l-1.57-8.39h-7.86l-1.61,8.39Zm3.93-9.88h7.3l-3.67-18Z" fill="#0b675e"/>
      <path d="M341.7,130.27a7.3,7.3,0,0,1-4.58-1.24,6.23,6.23,0,0,1-2.19-3.31,16.43,16.43,0,0,1-.6-4.58V108.27a15.44,15.44,0,0,1,.64-4.66,6.09,6.09,0,0,1,2.24-3.22,7.46,7.46,0,0,1,4.49-1.18,7.17,7.17,0,0,1,4.16,1.05,5.76,5.76,0,0,1,2.13,3,14.56,14.56,0,0,1,.64,4.51v1.54h-1.95v-1.54a14.38,14.38,0,0,0-.41-3.68,4.27,4.27,0,0,0-1.5-2.34,5,5,0,0,0-3.07-.83,5.36,5.36,0,0,0-3.33.9,4.52,4.52,0,0,0-1.57,2.51,15.39,15.39,0,0,0-.41,3.74v13.4a14.22,14.22,0,0,0,.45,3.83,4.39,4.39,0,0,0,1.61,2.45,5.32,5.32,0,0,0,3.25.86,4.86,4.86,0,0,0,3.11-.86,4.35,4.35,0,0,0,1.48-2.41,14.89,14.89,0,0,0,.39-3.61v-1.83h1.95v1.49a16.13,16.13,0,0,1-.6,4.6,6,6,0,0,1-2.1,3.17A6.87,6.87,0,0,1,341.7,130.27Zm-.67,6.55-.52,0-.57-.06v-1.08l.44.05.39,0a3.81,3.81,0,0,0,1.92-.37,1.28,1.28,0,0,0,.62-1.2,1.44,1.44,0,0,0-.28-.9,2.07,2.07,0,0,0-.84-.62,4.68,4.68,0,0,0-1.42-.31v-2.47h1.08v1.76a3.4,3.4,0,0,1,2.3.76,2.39,2.39,0,0,1,.7,1.78,2.49,2.49,0,0,1-.43,1.46,2.57,2.57,0,0,1-1.28.9A6.33,6.33,0,0,1,341,136.82Z" fill="#0b675e"/>
      <path d="M351.66,129.86,358,99.55h2.36l6.39,30.31h-2l-1.58-8.39h-7.85l-1.61,8.39Zm9.5-34.39a2.56,2.56,0,0,1-1.48-.45c-.43-.3-.84-.59-1.21-.88a1.88,1.88,0,0,0-1.16-.43,1,1,0,0,0-.84.37,1.61,1.61,0,0,0-.32,1.09H354.8a4.73,4.73,0,0,1,.17-1,3.07,3.07,0,0,1,.65-1.25,1.85,1.85,0,0,1,1.5-.58,2.82,2.82,0,0,1,1.57.43c.45.28.87.58,1.25.87a1.92,1.92,0,0,0,1.18.45,1.08,1.08,0,0,0,.9-.37,2.35,2.35,0,0,0,.34-1.31h1.27a6.4,6.4,0,0,1-.15,1.16,2.76,2.76,0,0,1-.67,1.33A2.11,2.11,0,0,1,361.16,95.47ZM355.59,120h7.29l-3.66-18Z" fill="#0b675e"/>
      <path d="M377.63,130.27a7.69,7.69,0,0,1-4.59-1.18,6.11,6.11,0,0,1-2.26-3.22,15.31,15.31,0,0,1-.64-4.62V108a14.4,14.4,0,0,1,.67-4.56,6,6,0,0,1,2.31-3.11,9.62,9.62,0,0,1,9,0,6,6,0,0,1,2.31,3.11,14.4,14.4,0,0,1,.67,4.56v13.29a15.13,15.13,0,0,1-.64,4.6,6.09,6.09,0,0,1-2.26,3.2A7.68,7.68,0,0,1,377.63,130.27Zm0-1.69a5.54,5.54,0,0,0,3.34-.86,4.34,4.34,0,0,0,1.63-2.41,13,13,0,0,0,.45-3.61v-14a12.85,12.85,0,0,0-.45-3.59,4.29,4.29,0,0,0-1.61-2.37,7,7,0,0,0-6.71,0,4.27,4.27,0,0,0-1.63,2.37,12.85,12.85,0,0,0-.45,3.59v14a13,13,0,0,0,.45,3.61,4.34,4.34,0,0,0,1.63,2.41A5.55,5.55,0,0,0,377.63,128.58Z" fill="#0b675e"/>
      <path d="M397.16,129.86V99.55h6.62a8.22,8.22,0,0,1,4.72,1.16,6.08,6.08,0,0,1,2.35,3.14,13.62,13.62,0,0,1,.68,4.42v12.57a14.67,14.67,0,0,1-.68,4.62,6.28,6.28,0,0,1-2.3,3.22,7.73,7.73,0,0,1-4.58,1.18Zm2-1.61h4.68a5.44,5.44,0,0,0,3.66-1,5,5,0,0,0,1.57-2.79,18,18,0,0,0,.38-3.8V108.42a14.51,14.51,0,0,0-.45-3.84,4.44,4.44,0,0,0-1.68-2.51,6.15,6.15,0,0,0-3.56-.88h-4.6Z" fill="#0b675e"/>
      <path d="M414.89,129.86l6.37-30.31h2.35l6.4,30.31H428l-1.57-8.39h-7.86l-1.61,8.39Zm3.93-9.88h7.3l-3.67-18Z" fill="#0b675e"/>
      <path d="M447.82,130.27a7.3,7.3,0,0,1-4.58-1.24,6.23,6.23,0,0,1-2.19-3.31,16.43,16.43,0,0,1-.6-4.58V108.27a15.44,15.44,0,0,1,.64-4.66,6.09,6.09,0,0,1,2.24-3.22,7.44,7.44,0,0,1,4.49-1.18,7.17,7.17,0,0,1,4.16,1.05,5.76,5.76,0,0,1,2.13,3,14.57,14.57,0,0,1,.63,4.51v1.54H452.8v-1.54a14.38,14.38,0,0,0-.41-3.68,4.27,4.27,0,0,0-1.5-2.34,5,5,0,0,0-3.07-.83,5.36,5.36,0,0,0-3.33.9,4.46,4.46,0,0,0-1.57,2.51,15.39,15.39,0,0,0-.41,3.74v13.4a14.22,14.22,0,0,0,.45,3.83,4.39,4.39,0,0,0,1.61,2.45,5.32,5.32,0,0,0,3.25.86,4.88,4.88,0,0,0,3.11-.86,4.35,4.35,0,0,0,1.48-2.41,14.89,14.89,0,0,0,.39-3.61v-1.83h1.94v1.49a16.15,16.15,0,0,1-.59,4.6,6,6,0,0,1-2.1,3.17A6.87,6.87,0,0,1,447.82,130.27Z" fill="#0b675e"/>
      <path d="M466.23,130.27a7.66,7.66,0,0,1-4.58-1.18,6.12,6.12,0,0,1-2.27-3.22,15.64,15.64,0,0,1-.63-4.62V108a14.12,14.12,0,0,1,.67-4.56,6.06,6.06,0,0,1,2.3-3.11,9.64,9.64,0,0,1,9,0,6,6,0,0,1,2.3,3.11,14.11,14.11,0,0,1,.68,4.56v13.29a15.45,15.45,0,0,1-.64,4.6,6.15,6.15,0,0,1-2.26,3.2A7.71,7.71,0,0,1,466.23,130.27Zm0-1.69a5.57,5.57,0,0,0,3.35-.86,4.34,4.34,0,0,0,1.63-2.41,13,13,0,0,0,.45-3.61v-14a12.85,12.85,0,0,0-.45-3.59,4.35,4.35,0,0,0-1.61-2.37,7.07,7.07,0,0,0-6.72,0,4.26,4.26,0,0,0-1.62,2.37,12.85,12.85,0,0,0-.45,3.59v14a13,13,0,0,0,.45,3.61,4.32,4.32,0,0,0,1.62,2.41A5.57,5.57,0,0,0,466.23,128.58Z" fill="#0b675e"/>
      <path d="M485.54,130.27a7.66,7.66,0,0,1-4.58-1.18,6.12,6.12,0,0,1-2.27-3.22,15.64,15.64,0,0,1-.63-4.62V108a14.12,14.12,0,0,1,.67-4.56,6.06,6.06,0,0,1,2.3-3.11,9.64,9.64,0,0,1,9,0,6.06,6.06,0,0,1,2.3,3.11A14.12,14.12,0,0,1,493,108v13.29a15.46,15.46,0,0,1-.63,4.6,6.11,6.11,0,0,1-2.27,3.2A7.66,7.66,0,0,1,485.54,130.27Zm0-1.69a5.57,5.57,0,0,0,3.35-.86,4.34,4.34,0,0,0,1.63-2.41,13,13,0,0,0,.45-3.61v-14a12.85,12.85,0,0,0-.45-3.59,4.35,4.35,0,0,0-1.61-2.37,7.07,7.07,0,0,0-6.72,0,4.32,4.32,0,0,0-1.63,2.37,12.85,12.85,0,0,0-.45,3.59v14a13,13,0,0,0,.45,3.61,4.39,4.39,0,0,0,1.63,2.41A5.57,5.57,0,0,0,485.54,128.58Z" fill="#0b675e"/>
      <path d="M498,129.86V99.55h7.33a7.28,7.28,0,0,1,4.14,1,5,5,0,0,1,2,2.69A12.55,12.55,0,0,1,512,107a14.06,14.06,0,0,1-.35,3.22,5.78,5.78,0,0,1-1.31,2.6,4.56,4.56,0,0,1-2.79,1.36l4.87,15.65h-2l-4.72-15.27H500v15.27ZM500,113h5.24a5.09,5.09,0,0,0,3-.73,3.79,3.79,0,0,0,1.4-2.08A11.52,11.52,0,0,0,510,107a8.28,8.28,0,0,0-.95-4.38c-.64-1-1.92-1.49-3.84-1.49H500Z" fill="#0b675e"/>
      <path d="M517,129.86V99.55h6.62a8.22,8.22,0,0,1,4.72,1.16,6,6,0,0,1,2.35,3.14,13.62,13.62,0,0,1,.68,4.42v12.57a14.67,14.67,0,0,1-.68,4.62,6.23,6.23,0,0,1-2.3,3.22,7.73,7.73,0,0,1-4.58,1.18Zm2-1.61h4.68a5.42,5.42,0,0,0,3.66-1,5,5,0,0,0,1.58-2.79,18.7,18.7,0,0,0,.37-3.8V108.42a14.51,14.51,0,0,0-.45-3.84,4.44,4.44,0,0,0-1.68-2.51,6.15,6.15,0,0,0-3.56-.88H519Z" fill="#0b675e"/>
      <path d="M536.32,129.86V99.55h10.47v1.64h-8.41v12.16h6.92v1.58h-6.92v13.32h8.53v1.61Z" fill="#0b675e"/>
      <path d="M551.06,129.86V99.55h1.61L563,125.14V99.55h1.8v30.31h-1.61l-10.29-25.64v25.64Z" fill="#0b675e"/>
      <path d="M568.72,129.86l6.36-30.31h2.36l6.4,30.31h-2.06l-1.57-8.39h-7.86l-1.61,8.39Zm3.93-9.88H580l-3.67-18Z" fill="#0b675e"/>
      <path d="M594.5,130.27a7.3,7.3,0,0,1-4.58-1.24,6.23,6.23,0,0,1-2.19-3.31,16.43,16.43,0,0,1-.6-4.58V108.27a15.44,15.44,0,0,1,.64-4.66,6.09,6.09,0,0,1,2.24-3.22,7.44,7.44,0,0,1,4.49-1.18,7.17,7.17,0,0,1,4.16,1.05,5.76,5.76,0,0,1,2.13,3,14.57,14.57,0,0,1,.63,4.51v1.54h-1.94v-1.54a14.38,14.38,0,0,0-.41-3.68,4.27,4.27,0,0,0-1.5-2.34,5,5,0,0,0-3.07-.83,5.34,5.34,0,0,0-3.33.9,4.46,4.46,0,0,0-1.57,2.51,15.39,15.39,0,0,0-.41,3.74v13.4a14.22,14.22,0,0,0,.45,3.83,4.39,4.39,0,0,0,1.61,2.45,5.3,5.3,0,0,0,3.25.86,4.88,4.88,0,0,0,3.11-.86,4.35,4.35,0,0,0,1.48-2.41,14.89,14.89,0,0,0,.39-3.61v-1.83h1.94v1.49a16.15,16.15,0,0,1-.59,4.6,6,6,0,0,1-2.1,3.17A6.87,6.87,0,0,1,594.5,130.27Zm-.67,6.55-.52,0-.57-.06v-1.08l.43.05.4,0a3.81,3.81,0,0,0,1.92-.37,1.28,1.28,0,0,0,.62-1.2,1.44,1.44,0,0,0-.28-.9,2.14,2.14,0,0,0-.84-.62,4.75,4.75,0,0,0-1.42-.31v-2.47h1.08v1.76a3.42,3.42,0,0,1,2.3.76,2.43,2.43,0,0,1,.7,1.78,2.49,2.49,0,0,1-.43,1.46,2.61,2.61,0,0,1-1.28.9A6.33,6.33,0,0,1,593.83,136.82Z" fill="#0b675e"/>
      <path d="M604.46,129.86l6.36-30.31h2.35l6.4,30.31h-2.05l-1.58-8.39h-7.85l-1.61,8.39ZM614,95.47a2.56,2.56,0,0,1-1.48-.45c-.43-.3-.84-.59-1.21-.88a1.9,1.9,0,0,0-1.16-.43,1.07,1.07,0,0,0-.85.37,1.67,1.67,0,0,0-.31,1.09H607.6a4.16,4.16,0,0,1,.17-1,3.07,3.07,0,0,1,.65-1.25,1.85,1.85,0,0,1,1.5-.58,2.82,2.82,0,0,1,1.57.43c.45.28.87.58,1.25.87a1.92,1.92,0,0,0,1.18.45,1.08,1.08,0,0,0,.9-.37,2.35,2.35,0,0,0,.34-1.31h1.27a6.4,6.4,0,0,1-.15,1.16,2.76,2.76,0,0,1-.67,1.33A2.11,2.11,0,0,1,614,95.47ZM608.38,120h7.3L612,102Z" fill="#0b675e"/>
      <path d="M630.42,130.27a7.68,7.68,0,0,1-4.58-1.18,6.11,6.11,0,0,1-2.26-3.22,15.31,15.31,0,0,1-.64-4.62V108a14.12,14.12,0,0,1,.67-4.56,6,6,0,0,1,2.31-3.11,9.62,9.62,0,0,1,9,0,6,6,0,0,1,2.3,3.11,14.11,14.11,0,0,1,.68,4.56v13.29a15.13,15.13,0,0,1-.64,4.6,6.09,6.09,0,0,1-2.26,3.2A7.71,7.71,0,0,1,630.42,130.27Zm0-1.69a5.55,5.55,0,0,0,3.35-.86,4.34,4.34,0,0,0,1.63-2.41,13,13,0,0,0,.45-3.61v-14a12.85,12.85,0,0,0-.45-3.59,4.35,4.35,0,0,0-1.61-2.37,5.61,5.61,0,0,0-3.37-.85,5.66,5.66,0,0,0-3.35.85,4.31,4.31,0,0,0-1.62,2.37,12.85,12.85,0,0,0-.45,3.59v14a13,13,0,0,0,.45,3.61,4.38,4.38,0,0,0,1.62,2.41A5.59,5.59,0,0,0,630.42,128.58Z" fill="#0b675e"/>
      <path d="M650,129.86V99.55h6.62a8.16,8.16,0,0,1,4.71,1.16,6,6,0,0,1,2.36,3.14,13.62,13.62,0,0,1,.68,4.42v12.57a14.67,14.67,0,0,1-.68,4.62,6.28,6.28,0,0,1-2.3,3.22,7.73,7.73,0,0,1-4.58,1.18Zm2-1.61h4.67a5.45,5.45,0,0,0,3.67-1,5,5,0,0,0,1.57-2.79,18,18,0,0,0,.38-3.8V108.42a14.51,14.51,0,0,0-.45-3.84,4.41,4.41,0,0,0-1.69-2.51,6.1,6.1,0,0,0-3.55-.88H652Z" fill="#0b675e"/>
      <path d="M667.69,129.86l6.36-30.31h2.36l6.4,30.31h-2.06l-1.57-8.39h-7.86l-1.61,8.39Zm3.93-9.88h7.3l-3.67-18Z" fill="#0b675e"/>
      <path d="M692.88,130.23a7.29,7.29,0,0,1-4-1,6.18,6.18,0,0,1-2.36-2.73,12.11,12.11,0,0,1-1-4.16l1.76-.56a17.25,17.25,0,0,0,.8,3.52,5,5,0,0,0,1.67,2.38,5.07,5.07,0,0,0,3.1.84,5.21,5.21,0,0,0,3.54-1.13,4.71,4.71,0,0,0,1.29-3.74,6.4,6.4,0,0,0-1-3.57,21.07,21.07,0,0,0-2.9-3.43l-5.54-5.5a10,10,0,0,1-2-2.84,7.14,7.14,0,0,1-.63-2.92,5.75,5.75,0,0,1,1.85-4.6,7.08,7.08,0,0,1,4.81-1.61,9.22,9.22,0,0,1,2.77.39,5.53,5.53,0,0,1,2.15,1.28,5.93,5.93,0,0,1,1.44,2.33,13.59,13.59,0,0,1,.67,3.6l-1.72.41a12.29,12.29,0,0,0-.71-3.56,4.23,4.23,0,0,0-1.65-2.11,5.37,5.37,0,0,0-2.92-.69,5.58,5.58,0,0,0-3.44,1,4,4,0,0,0-1.38,3.37,5.66,5.66,0,0,0,.46,2.25,8.37,8.37,0,0,0,1.74,2.36l5.47,5.38a23.19,23.19,0,0,1,3.16,3.84,8,8,0,0,1,1.33,4.47,7.42,7.42,0,0,1-.86,3.76,5.25,5.25,0,0,1-2.4,2.19A8.3,8.3,0,0,1,692.88,130.23Z" fill="#0b675e"/>
      <path d="M0,174.76V144.45H7.33a7.28,7.28,0,0,1,4.14,1,5,5,0,0,1,2,2.69,12.59,12.59,0,0,1,.54,3.8,14,14,0,0,1-.35,3.22,5.78,5.78,0,0,1-1.31,2.6,4.63,4.63,0,0,1-2.79,1.37l4.87,15.64h-2L7.67,159.49H2v15.27Zm2-16.84H7.26a5,5,0,0,0,3-.73,3.79,3.79,0,0,0,1.4-2.08,11.42,11.42,0,0,0,.39-3.18,8.22,8.22,0,0,0-.95-4.37q-1-1.5-3.84-1.5H2Z" fill="#0b675e"/>
      <path d="M19,174.76V144.45H29.45v1.65H21v12.16H28v1.57H21v13.32h8.53v1.61Z" fill="#0b675e"/>
      <path d="M33.71,174.76V144.45h6.63a8.24,8.24,0,0,1,4.71,1.16,6.1,6.1,0,0,1,2.36,3.14,13.71,13.71,0,0,1,.67,4.42v12.57a14.68,14.68,0,0,1-.67,4.62,6.34,6.34,0,0,1-2.3,3.22,7.71,7.71,0,0,1-4.59,1.18Zm2-1.61h4.68a5.45,5.45,0,0,0,3.67-1.05,5,5,0,0,0,1.57-2.79,18,18,0,0,0,.37-3.79v-12.2a14.59,14.59,0,0,0-.44-3.84,4.4,4.4,0,0,0-1.69-2.5,6,6,0,0,0-3.55-.88H35.73Z" fill="#0b675e"/>
      <path d="M53,174.76V144.45H63.5v1.65H55.08v12.16H62v1.57H55.08v13.32h8.53v1.61Z" fill="#0b675e"/>
      <path d="M73.83,175.13a7.29,7.29,0,0,1-4-1,6.18,6.18,0,0,1-2.36-2.73,12.05,12.05,0,0,1-1-4.15l1.76-.57a17.1,17.1,0,0,0,.8,3.52,4.93,4.93,0,0,0,1.67,2.38,5.07,5.07,0,0,0,3.1.84,5.2,5.2,0,0,0,3.54-1.12,4.75,4.75,0,0,0,1.29-3.75,6.4,6.4,0,0,0-1-3.57,20.16,20.16,0,0,0-2.9-3.42l-5.54-5.5a10.21,10.21,0,0,1-2-2.85,7.14,7.14,0,0,1-.63-2.92,5.75,5.75,0,0,1,1.85-4.6,7.08,7.08,0,0,1,4.81-1.61,8.91,8.91,0,0,1,2.77.4,5.39,5.39,0,0,1,2.15,1.27,5.9,5.9,0,0,1,1.44,2.34,13.51,13.51,0,0,1,.67,3.59l-1.72.41a12.15,12.15,0,0,0-.71-3.55,4.21,4.21,0,0,0-1.65-2.12,5.36,5.36,0,0,0-2.91-.69,5.55,5.55,0,0,0-3.45,1.05,4,4,0,0,0-1.38,3.36,5.47,5.47,0,0,0,.47,2.25,8,8,0,0,0,1.74,2.36l5.46,5.39A22.72,22.72,0,0,1,79.27,164a8,8,0,0,1,1.33,4.47,7.42,7.42,0,0,1-.86,3.76,5.25,5.25,0,0,1-2.4,2.19A8.15,8.15,0,0,1,73.83,175.13Z" fill="#0b675e"/>
      <path d="M91.75,174.76V144.45h6.62a8.27,8.27,0,0,1,4.72,1.16,6.1,6.1,0,0,1,2.36,3.14,14,14,0,0,1,.67,4.42v12.57a15,15,0,0,1-.67,4.62,6.3,6.3,0,0,1-2.31,3.22,7.66,7.66,0,0,1-4.58,1.18Zm2-1.61h4.68a5.42,5.42,0,0,0,3.66-1.05,5,5,0,0,0,1.58-2.79,18,18,0,0,0,.37-3.79v-12.2a14.56,14.56,0,0,0-.45-3.84,4.39,4.39,0,0,0-1.68-2.5,6.08,6.08,0,0,0-3.56-.88h-4.6Z" fill="#0b675e"/>
      <path d="M111.06,174.76V144.45h10.47v1.65h-8.41v12.16H120v1.57h-6.92v13.32h8.53v1.61Z" fill="#0b675e"/>
      <path d="M131.26,174.76l6.36-30.31H140l6.4,30.31h-2.06l-1.57-8.38h-7.86l-1.61,8.38Zm3.93-9.88h7.3l-3.67-18Z" fill="#0b675e"/>
      <path d="M153,174.76V146.1H146.9v-1.65h14v1.65H155v28.66Z" fill="#0b675e"/>
      <path d="M164.42,174.76V144.45h10.47v1.65h-8.42v12.16h6.93v1.57h-6.93v13.32H175v1.61Z" fill="#0b675e"/>
      <path d="M179.16,174.76V144.45h1.61L191.06,170V144.45h1.79v30.31h-1.61L181,149.13v25.63Z" fill="#0b675e"/>
      <path d="M205.17,175.17a7.38,7.38,0,0,1-4.59-1.23,6.3,6.3,0,0,1-2.19-3.32,16.43,16.43,0,0,1-.6-4.58V153.17a15.44,15.44,0,0,1,.64-4.66,6.13,6.13,0,0,1,2.24-3.22,7.55,7.55,0,0,1,4.5-1.18,7.14,7.14,0,0,1,4.15,1,5.65,5.65,0,0,1,2.13,3,14.56,14.56,0,0,1,.64,4.51v1.54h-2v-1.54a14.43,14.43,0,0,0-.41-3.68,4.22,4.22,0,0,0-1.5-2.34,5,5,0,0,0-3.06-.82,5.44,5.44,0,0,0-3.34.89,4.52,4.52,0,0,0-1.57,2.51,15.39,15.39,0,0,0-.41,3.74v13.4a14.12,14.12,0,0,0,.45,3.83,4.47,4.47,0,0,0,1.61,2.46,5.4,5.4,0,0,0,3.26.86,4.91,4.91,0,0,0,3.1-.86,4.35,4.35,0,0,0,1.48-2.42,14.89,14.89,0,0,0,.39-3.61v-1.83h2v1.49a16.2,16.2,0,0,1-.6,4.61,6,6,0,0,1-2.1,3.16A6.81,6.81,0,0,1,205.17,175.17Zm-.68,6.55-.52,0-.56-.06v-1.08l.43.06h.39a3.85,3.85,0,0,0,1.93-.37,1.3,1.3,0,0,0,.61-1.2,1.44,1.44,0,0,0-.28-.9,2,2,0,0,0-.84-.61,4.38,4.38,0,0,0-1.42-.32v-2.47h1.08v1.76a3.45,3.45,0,0,1,2.31.76,2.44,2.44,0,0,1,.69,1.78,2.47,2.47,0,0,1-.43,1.46,2.57,2.57,0,0,1-1.28.9A6.33,6.33,0,0,1,204.49,181.72Z" fill="#0b675e"/>
      <path d="M215.12,174.76l6.36-30.31h2.36l6.39,30.31h-2l-1.58-8.38h-7.85l-1.61,8.38Zm9.5-34.39a2.56,2.56,0,0,1-1.48-.45c-.43-.3-.84-.59-1.21-.88a1.94,1.94,0,0,0-1.16-.43,1,1,0,0,0-.84.38,1.58,1.58,0,0,0-.32,1.08h-1.35a4.83,4.83,0,0,1,.17-1,3.07,3.07,0,0,1,.65-1.25,1.85,1.85,0,0,1,1.5-.58,2.82,2.82,0,0,1,1.57.43c.45.29.87.58,1.26.88a1.89,1.89,0,0,0,1.17.45,1.09,1.09,0,0,0,.9-.38,2.32,2.32,0,0,0,.34-1.31h1.27a6.3,6.3,0,0,1-.15,1.16,2.76,2.76,0,0,1-.67,1.33A2.11,2.11,0,0,1,224.62,140.37Zm-5.57,24.51h7.29l-3.66-18Z" fill="#0b675e"/>
      <path d="M241.09,175.17A7.71,7.71,0,0,1,236.5,174a6.07,6.07,0,0,1-2.26-3.22,15.31,15.31,0,0,1-.64-4.62V152.91a14.13,14.13,0,0,1,.68-4.57,5.94,5.94,0,0,1,2.3-3.1,9.57,9.57,0,0,1,9,0,6,6,0,0,1,2.3,3.1,14.14,14.14,0,0,1,.67,4.57v13.28a15.08,15.08,0,0,1-.64,4.6,6,6,0,0,1-2.26,3.2A7.68,7.68,0,0,1,241.09,175.17Zm0-1.68a5.66,5.66,0,0,0,3.35-.86,4.44,4.44,0,0,0,1.62-2.42,13,13,0,0,0,.45-3.61v-14a12.92,12.92,0,0,0-.45-3.6,4.29,4.29,0,0,0-1.61-2.37,7.12,7.12,0,0,0-6.71,0,4.27,4.27,0,0,0-1.63,2.37,12.92,12.92,0,0,0-.45,3.6v14a13,13,0,0,0,.45,3.61,4.4,4.4,0,0,0,1.63,2.42A5.62,5.62,0,0,0,241.09,173.49Z" fill="#0b675e"/>
      <path d="M259,174.76l6.36-30.31h2.36l6.4,30.31h-2.06l-1.57-8.38h-7.86L261,174.76Zm3.93-9.88h7.29l-3.66-18ZM266,142.65l-3-7.26h2l2,7.26Z" fill="#0b675e"/>
      <path d="M291.26,175.13a7.28,7.28,0,0,1-3.94-1,6.18,6.18,0,0,1-2.36-2.73,12.05,12.05,0,0,1-1-4.15l1.76-.57a17.1,17.1,0,0,0,.8,3.52,4.93,4.93,0,0,0,1.67,2.38,5.05,5.05,0,0,0,3.1.84,5.2,5.2,0,0,0,3.54-1.12,4.75,4.75,0,0,0,1.29-3.75,6.4,6.4,0,0,0-1-3.57,20.63,20.63,0,0,0-2.9-3.42l-5.54-5.5a10,10,0,0,1-2-2.85,7.14,7.14,0,0,1-.63-2.92,5.75,5.75,0,0,1,1.85-4.6,7.06,7.06,0,0,1,4.81-1.61,8.91,8.91,0,0,1,2.77.4,5.46,5.46,0,0,1,2.15,1.27,5.9,5.9,0,0,1,1.44,2.34,13.51,13.51,0,0,1,.67,3.59l-1.72.41a12.15,12.15,0,0,0-.71-3.55,4.27,4.27,0,0,0-1.65-2.12,5.37,5.37,0,0,0-2.92-.69,5.52,5.52,0,0,0-3.44,1.05,4,4,0,0,0-1.38,3.36,5.63,5.63,0,0,0,.46,2.25,8.17,8.17,0,0,0,1.74,2.36l5.47,5.39a22.72,22.72,0,0,1,3.16,3.83,8.07,8.07,0,0,1,1.33,4.47,7.42,7.42,0,0,1-.86,3.76,5.3,5.3,0,0,1-2.4,2.19A8.17,8.17,0,0,1,291.26,175.13Z" fill="#0b675e"/>
      <path d="M300.51,174.76l6.36-30.31h2.36l6.39,30.31h-2.05L312,166.38h-7.85l-1.61,8.38Zm3.93-9.88h7.29l-3.67-18Z" fill="#0b675e"/>
      <path d="M326.81,175.17a9,9,0,0,1-4.6-1,5.26,5.26,0,0,1-2.3-2.7,10.5,10.5,0,0,1-.66-3.83v-23.2h2v23.24a8.94,8.94,0,0,0,.47,3,3.85,3.85,0,0,0,1.69,2.08,6.42,6.42,0,0,0,3.38.75,6.15,6.15,0,0,0,3.28-.77,4.26,4.26,0,0,0,1.74-2.08,7.87,7.87,0,0,0,.52-2.95V144.45h2v23.2a9.72,9.72,0,0,1-.71,3.83,5.58,5.58,0,0,1-2.34,2.7A8.56,8.56,0,0,1,326.81,175.17Zm-.48-32.52,2.39-7.26h2l-3.37,7.26Z" fill="#0b675e"/>
      <path d="M339.57,174.76V144.45h6.62a8.27,8.27,0,0,1,4.72,1.16,6.1,6.1,0,0,1,2.36,3.14,13.71,13.71,0,0,1,.67,4.42v12.57a14.68,14.68,0,0,1-.67,4.62,6.3,6.3,0,0,1-2.31,3.22,7.66,7.66,0,0,1-4.58,1.18Zm2-1.61h4.68a5.47,5.47,0,0,0,3.67-1.05,5,5,0,0,0,1.57-2.79,18,18,0,0,0,.37-3.79v-12.2a14.56,14.56,0,0,0-.45-3.84,4.39,4.39,0,0,0-1.68-2.5,6.06,6.06,0,0,0-3.56-.88h-4.6Z" fill="#0b675e"/>
      <path d="M358.88,174.76V144.45h10.48v1.65h-8.42v12.16h6.92v1.57h-6.92v13.32h8.53v1.61Z" fill="#0b675e"/>
      <path d="M380.69,174.76V144.45h7.11a7.57,7.57,0,0,1,4.27,1,5.43,5.43,0,0,1,2.15,2.79,12.73,12.73,0,0,1,0,7.85,6.13,6.13,0,0,1-2.15,3,6.88,6.88,0,0,1-4.23,1.16h-5.13v14.48Zm2-16h4.68a6.34,6.34,0,0,0,3-.64,3.84,3.84,0,0,0,1.76-2,10,10,0,0,0,.58-3.76,11,11,0,0,0-.52-3.8,3.31,3.31,0,0,0-1.69-1.91,7.4,7.4,0,0,0-3.1-.54h-4.72Z" fill="#0b675e"/>
      <path d="M398.8,174.76V144.45h10.48v1.65h-8.42v12.16h6.92v1.57h-6.92v13.32h8.53v1.61Z" fill="#0b675e"/>
      <path d="M413.55,174.76V144.45h2v28.7h9.16v1.61Z" fill="#0b675e"/>
      <path d="M425.89,174.76l6.37-30.31h2.35l6.4,30.31H439l-1.57-8.38h-7.86l-1.61,8.38Zm3.93-9.88h7.3l-3.67-18Z" fill="#0b675e"/>
      <path d="M450.48,174.76l6.36-30.31h2.36l6.4,30.31h-2.06L462,166.38h-7.86l-1.61,8.38Zm3.93-9.88h7.29l-3.66-18Z" fill="#0b675e"/>
      <path d="M472.18,174.76V146.1h-6.06v-1.65h14v1.65H474.2v28.66Z" fill="#0b675e"/>
      <path d="M483.63,174.76V144.45h10.48v1.65h-8.42v12.16h6.92v1.57h-6.92v13.32h8.53v1.61Z" fill="#0b675e"/>
      <path d="M498.37,174.76V144.45H500L510.27,170V144.45h1.8v30.31h-1.61l-10.29-25.63v25.63Z" fill="#0b675e"/>
      <path d="M524.38,175.17a7.33,7.33,0,0,1-4.58-1.23,6.24,6.24,0,0,1-2.19-3.32A16.43,16.43,0,0,1,517,166V153.17a15.78,15.78,0,0,1,.63-4.66,6.2,6.2,0,0,1,2.25-3.22,7.51,7.51,0,0,1,4.49-1.18,7.14,7.14,0,0,1,4.15,1,5.72,5.72,0,0,1,2.14,3,14.57,14.57,0,0,1,.63,4.51v1.54h-1.94v-1.54a14,14,0,0,0-.42-3.68,4.21,4.21,0,0,0-1.49-2.34,5,5,0,0,0-3.07-.82,5.39,5.39,0,0,0-3.33.89,4.46,4.46,0,0,0-1.57,2.51,14.91,14.91,0,0,0-.41,3.74v13.4a14.12,14.12,0,0,0,.45,3.83,4.41,4.41,0,0,0,1.6,2.46,5.42,5.42,0,0,0,3.26.86,4.89,4.89,0,0,0,3.1-.86,4.3,4.3,0,0,0,1.48-2.42,14.38,14.38,0,0,0,.4-3.61v-1.83h1.94v1.49a16.2,16.2,0,0,1-.6,4.61,6,6,0,0,1-2.09,3.16A6.87,6.87,0,0,1,524.38,175.17Zm-.67,6.55-.53,0-.56-.06v-1.08l.43.06h.39a3.82,3.82,0,0,0,1.93-.37,1.3,1.3,0,0,0,.62-1.2,1.44,1.44,0,0,0-.28-.9,2,2,0,0,0-.84-.61,4.45,4.45,0,0,0-1.43-.32v-2.47h1.09v1.76a3.42,3.42,0,0,1,2.3.76,2.44,2.44,0,0,1,.69,1.78,2.4,2.4,0,0,1-.43,1.46,2.54,2.54,0,0,1-1.27.9A6.37,6.37,0,0,1,523.71,181.72Z" fill="#0b675e"/>
      <path d="M534.33,174.76l6.36-30.31h2.36l6.4,30.31h-2.06l-1.57-8.38H538l-1.61,8.38Zm9.51-34.39a2.56,2.56,0,0,1-1.48-.45c-.44-.3-.84-.59-1.22-.88a1.92,1.92,0,0,0-1.16-.43,1,1,0,0,0-.84.38,1.64,1.64,0,0,0-.32,1.08h-1.34a4.66,4.66,0,0,1,.16-1,3.09,3.09,0,0,1,.66-1.25,1.83,1.83,0,0,1,1.5-.58,2.85,2.85,0,0,1,1.57.43c.45.29.86.58,1.25.88a1.92,1.92,0,0,0,1.18.45,1.09,1.09,0,0,0,.9-.38,2.25,2.25,0,0,0,.33-1.31h1.28a6.3,6.3,0,0,1-.15,1.16,2.78,2.78,0,0,1-.68,1.33A2.09,2.09,0,0,1,543.84,140.37Zm-5.58,24.51h7.3l-3.67-18Z" fill="#0b675e"/>
      <path d="M560.3,175.17a7.66,7.66,0,0,1-4.58-1.18,6.08,6.08,0,0,1-2.27-3.22,15.64,15.64,0,0,1-.63-4.62V152.91a14.14,14.14,0,0,1,.67-4.57,6,6,0,0,1,2.3-3.1,9.57,9.57,0,0,1,9,0,5.94,5.94,0,0,1,2.3,3.1,14.14,14.14,0,0,1,.67,4.57v13.28a15.41,15.41,0,0,1-.63,4.6,6.11,6.11,0,0,1-2.26,3.2A7.71,7.71,0,0,1,560.3,175.17Zm0-1.68a5.64,5.64,0,0,0,3.35-.86,4.4,4.4,0,0,0,1.63-2.42,13,13,0,0,0,.45-3.61v-14a12.92,12.92,0,0,0-.45-3.6,4.35,4.35,0,0,0-1.61-2.37,7.14,7.14,0,0,0-6.72,0,4.32,4.32,0,0,0-1.63,2.37,13,13,0,0,0-.44,3.6v14a13,13,0,0,0,.44,3.61,4.45,4.45,0,0,0,1.63,2.42A5.64,5.64,0,0,0,560.3,173.49Z" fill="#0b675e"/>
      <path d="M579.83,174.76V144.45h7.11a7.57,7.57,0,0,1,4.27,1,5.43,5.43,0,0,1,2.15,2.79,12.73,12.73,0,0,1,0,7.85,6.13,6.13,0,0,1-2.15,3,6.88,6.88,0,0,1-4.23,1.16h-5.13v14.48Zm2-16h4.68a6.34,6.34,0,0,0,3-.64,3.84,3.84,0,0,0,1.76-2,10,10,0,0,0,.58-3.76,11,11,0,0,0-.52-3.8,3.31,3.31,0,0,0-1.69-1.91,7.4,7.4,0,0,0-3.1-.54h-4.72Z" fill="#0b675e"/>
      <path d="M598,174.76V144.45h7.33a7.28,7.28,0,0,1,4.14,1,5,5,0,0,1,2,2.69,12.59,12.59,0,0,1,.55,3.8,14,14,0,0,1-.36,3.22,5.78,5.78,0,0,1-1.31,2.6,4.63,4.63,0,0,1-2.79,1.37l4.87,15.64h-2l-4.72-15.27H600v15.27Zm2-16.84h5.24a5,5,0,0,0,3-.73,3.79,3.79,0,0,0,1.4-2.08,11.42,11.42,0,0,0,.39-3.18,8.22,8.22,0,0,0-1-4.37q-1-1.5-3.84-1.5H600Z" fill="#0b675e"/>
      <path d="M617,174.76V144.45h2v30.31Z" fill="#0b675e"/>
      <path d="M624.32,174.76l.9-30.31h2l6.4,27.35,6.51-27.35h2.1l.86,30.31h-1.76l-.75-25.41-6.17,25.41h-1.5l-6.1-25.37-.75,25.37Z" fill="#0b675e"/>
      <path d="M646.74,174.76l6.36-30.31h2.36l6.39,30.31H659.8l-1.58-8.38h-7.85l-1.61,8.38Zm3.93-9.88H658l-3.66-18Zm3.14-22.23,2.39-7.26h2l-3.36,7.26Z" fill="#0b675e"/>
      <path d="M665.86,174.76V144.45h7.33a7.3,7.3,0,0,1,4.14,1,5,5,0,0,1,2,2.69,12.59,12.59,0,0,1,.54,3.8,14.58,14.58,0,0,1-.35,3.22,5.88,5.88,0,0,1-1.31,2.6,4.63,4.63,0,0,1-2.79,1.37l4.86,15.64h-2l-4.71-15.27h-5.65v15.27Zm2-16.84h5.24a5,5,0,0,0,3-.73,3.8,3.8,0,0,0,1.41-2.08,11.42,11.42,0,0,0,.39-3.18,8.12,8.12,0,0,0-1-4.37c-.63-1-1.91-1.5-3.83-1.5h-5.2Z" fill="#0b675e"/>
      <path d="M684.9,174.76V144.45h2v30.31Z" fill="#0b675e"/>
      <path d="M691,174.76l6.37-30.31h2.35l6.4,30.31H704l-1.57-8.38h-7.86L693,174.76Zm3.93-9.88h7.3l-3.67-18Z" fill="#0b675e"/>
    </g>
    <g>
      <path d="M1,75V.82H19q6.6,0,10.12,2.43A12.31,12.31,0,0,1,34,9.84a30.41,30.41,0,0,1,1.33,9.3A34.77,34.77,0,0,1,34.41,27a14.19,14.19,0,0,1-3.2,6.37,11.28,11.28,0,0,1-6.83,3.34L36.29,75H31.34L19.81,37.63H6V75ZM6,33.79H18.8q4.75,0,7.23-1.79a9.2,9.2,0,0,0,3.44-5.08,28,28,0,0,0,1-7.78q0-7-2.34-10.72T18.71,4.76H6Z" fill="#0b675e"/>
      <path d="M47,75V.82H72.64v4H52V34.61H69v3.85H52v32.6H72.91V75Z" fill="#0b675e"/>
      <path d="M82.62,75V.82H98.83q7.41,0,11.53,2.84a14.9,14.9,0,0,1,5.77,7.69,33.46,33.46,0,0,1,1.65,10.81V52.92a35.89,35.89,0,0,1-1.65,11.31,15.35,15.35,0,0,1-5.63,7.88Q106.53,75,99.28,75Zm4.94-3.93H99q6,0,9-2.57a12.12,12.12,0,0,0,3.85-6.82,44.29,44.29,0,0,0,.91-9.29V22.52a35.65,35.65,0,0,0-1.09-9.38A10.79,10.79,0,0,0,107.52,7q-3-2.14-8.69-2.15H87.56Z" fill="#0b675e"/>
      <path d="M129.41,75V.82h25.64v4h-20.6V34.61h16.93v3.85H134.45v32.6h20.87V75Z" fill="#0b675e"/>
      <path d="M182.42,76a21.93,21.93,0,0,1-11.17-2.61,16.4,16.4,0,0,1-6.77-7.65,32.82,32.82,0,0,1-2.57-12.36l11.63-2.29a35.69,35.69,0,0,0,1.06,7.6,11,11,0,0,0,2.65,5.09A6.37,6.37,0,0,0,182,65.56c2.19,0,3.75-.65,4.67-2a8.54,8.54,0,0,0,1.37-5,13.44,13.44,0,0,0-2.2-8A34.18,34.18,0,0,0,180,44.41l-9.34-8.24a28.22,28.22,0,0,1-6.27-7.56A20.76,20.76,0,0,1,162,18.31q0-8.79,5.12-13.55t14-4.76a20.93,20.93,0,0,1,8.7,1.6A13.84,13.84,0,0,1,195.38,6a20,20,0,0,1,3.07,6.46,38,38,0,0,1,1.28,7.64l-11.54,2a40,40,0,0,0-.77-6.23,8.67,8.67,0,0,0-2.11-4.3,5.91,5.91,0,0,0-4.44-1.56,5.63,5.63,0,0,0-4.63,2,7.56,7.56,0,0,0-1.6,4.9,11.24,11.24,0,0,0,1.56,6.18,24.06,24.06,0,0,0,4.49,5l9.24,8.15a38.34,38.34,0,0,1,7.83,9A23,23,0,0,1,201,57.78a18.86,18.86,0,0,1-2.33,9.43,16.81,16.81,0,0,1-6.5,6.46A19.71,19.71,0,0,1,182.42,76Z" fill="#0b675e"/>
      <path d="M228.85,76Q220.6,76,216,73a15.47,15.47,0,0,1-6.32-8.61A45.23,45.23,0,0,1,208,51V.82h13.19V52.56a45.23,45.23,0,0,0,.45,6.55,9.25,9.25,0,0,0,2.16,4.94,6.49,6.49,0,0,0,5.08,1.88q3.57,0,5.17-1.88a10,10,0,0,0,2.11-4.94,41.18,41.18,0,0,0,.5-6.55V.82h13.1V51A45.57,45.57,0,0,1,248,64.37,15.54,15.54,0,0,1,241.71,73Q237.18,76,228.85,76Z" fill="#0b675e"/>
      <path d="M259.89,75V.82h13.55V65.65h17.95V75Z" fill="#0b675e"/>
    </g>
  </g>
</svg>
