<svg xmlns="http://www.w3.org/2000/svg" width="144" height="49.32" viewBox="0 0 144 49.32">
  <g>
    <g>
      <path d="M.1,37.14V.41H9a8.83,8.83,0,0,1,5,1.2,6.12,6.12,0,0,1,2.4,3.26,15.14,15.14,0,0,1,.66,4.61,17.08,17.08,0,0,1-.43,3.9A7,7,0,0,1,15,16.53a5.63,5.63,0,0,1-3.38,1.66l5.9,19H15.11L9.4,18.64H2.55v18.5ZM2.55,16.73H8.9a6.08,6.08,0,0,0,3.58-.88,4.56,4.56,0,0,0,1.7-2.52,13.72,13.72,0,0,0,.48-3.85A10,10,0,0,0,13.5,4.17Q12.35,2.36,8.85,2.36H2.55Z" fill="#0b675e"/>
      <path d="M22.86,37.14V.41h12.7v2H25.36V17.14h8.39v1.91H25.36V35.19H35.7v2Z" fill="#0b675e"/>
      <path d="M40.5,37.14V.41h8a10.05,10.05,0,0,1,5.72,1.4A7.37,7.37,0,0,1,57.1,5.62,16.46,16.46,0,0,1,57.92,11V26.21a17.6,17.6,0,0,1-.82,5.6,7.55,7.55,0,0,1-2.79,3.9,9.33,9.33,0,0,1-5.55,1.43Zm2.45-2h5.67a6.6,6.6,0,0,0,4.45-1.27A6,6,0,0,0,55,30.54a22,22,0,0,0,.45-4.6V11.16a17.68,17.68,0,0,0-.54-4.65,5.29,5.29,0,0,0-2-3A7.37,7.37,0,0,0,48.53,2.4H43Z" fill="#0b675e"/>
      <path d="M63.68,37.14V.41h12.7v2H66.17V17.14h8.39v1.91H66.17V35.19H76.51v2Z" fill="#0b675e"/>
      <path d="M89.94,37.64a10.89,10.89,0,0,1-5.54-1.29,8.12,8.12,0,0,1-3.35-3.79,16.14,16.14,0,0,1-1.27-6.12l5.76-1.14a17.59,17.59,0,0,0,.52,3.77,5.47,5.47,0,0,0,1.31,2.52,3.16,3.16,0,0,0,2.34.88,2.61,2.61,0,0,0,2.31-1A4.2,4.2,0,0,0,92.7,29a6.65,6.65,0,0,0-1.09-3.94A16.76,16.76,0,0,0,88.71,22l-4.62-4.08A13.85,13.85,0,0,1,81,14.17a10.29,10.29,0,0,1-1.16-5.1,8.71,8.71,0,0,1,2.54-6.71A9.81,9.81,0,0,1,89.3,0a10.47,10.47,0,0,1,4.31.79A6.9,6.9,0,0,1,96.35,3a10,10,0,0,1,1.52,3.2A19.11,19.11,0,0,1,98.51,10l-5.72,1a20.4,20.4,0,0,0-.38-3.08,4.28,4.28,0,0,0-1-2.13A2.93,2.93,0,0,0,89.16,5a2.79,2.79,0,0,0-2.29,1,3.77,3.77,0,0,0-.79,2.43,5.6,5.6,0,0,0,.77,3.06,12.23,12.23,0,0,0,2.22,2.47l4.58,4a18.71,18.71,0,0,1,3.88,4.47,11.41,11.41,0,0,1,1.61,6.19A9.32,9.32,0,0,1,98,33.29a8.36,8.36,0,0,1-3.22,3.19A9.75,9.75,0,0,1,89.94,37.64Z" fill="#0b675e"/>
      <path d="M112.93,37.64a11.45,11.45,0,0,1-6.35-1.5,7.59,7.59,0,0,1-3.13-4.26,22.21,22.21,0,0,1-.86-6.62V.41h6.53V26a22.1,22.1,0,0,0,.22,3.24,4.61,4.61,0,0,0,1.07,2.45,3.23,3.23,0,0,0,2.52.93,3.19,3.19,0,0,0,2.56-.93,4.83,4.83,0,0,0,1-2.45,19.54,19.54,0,0,0,.25-3.24V.41h6.49V25.26a22.54,22.54,0,0,1-.86,6.62,7.65,7.65,0,0,1-3.11,4.26A11.43,11.43,0,0,1,112.93,37.64Z" fill="#0b675e"/>
      <path d="M128.3,37.14V.41H135V32.52h8.89v4.62Z" fill="#0b675e"/>
    </g>
    <g>
      <line y1="46.82" x2="144" y2="46.82" fill="#0b675e"/>
      <rect y="44.32" width="144" height="5" fill="#0b675e"/>
    </g>
  </g>
</svg>
