<svg xmlns="http://www.w3.org/2000/svg" width="292.52" height="124.36" viewBox="0 0 292.52 124.36">
  <g>
    <g>
      <path d="M0,102.87V90.32H.85v12.55Z" fill="#0b675e"/>
      <path d="M3.19,102.87V90.32h.67l4.26,10.6V90.32h.75v12.55H8.2L3.94,92.25v10.62Z" fill="#0b675e"/>
      <path d="M13.69,103a3.14,3.14,0,0,1-1.64-.4,2.52,2.52,0,0,1-1-1.14,4.78,4.78,0,0,1-.41-1.72l.72-.23a7.85,7.85,0,0,0,.34,1.46,1.87,1.87,0,0,0,2,1.33,2.18,2.18,0,0,0,1.47-.46,2,2,0,0,0,.53-1.55,2.67,2.67,0,0,0-.42-1.48,8.88,8.88,0,0,0-1.2-1.42l-2.3-2.28A4.31,4.31,0,0,1,10.94,94a3,3,0,0,1-.26-1.21,2.41,2.41,0,0,1,.77-1.91,2.93,2.93,0,0,1,2-.66,3.76,3.76,0,0,1,1.15.16,2.18,2.18,0,0,1,.89.53,2.51,2.51,0,0,1,.6,1,5.76,5.76,0,0,1,.27,1.48l-.71.18A5.24,5.24,0,0,0,15.35,92a1.8,1.8,0,0,0-.69-.87,2.2,2.2,0,0,0-1.2-.29,2.29,2.29,0,0,0-1.43.43,1.65,1.65,0,0,0-.57,1.4,2.31,2.31,0,0,0,.19.93,3.46,3.46,0,0,0,.72,1l2.26,2.23a8.52,8.52,0,0,1,1.31,1.59,3.29,3.29,0,0,1,.55,1.85,3.05,3.05,0,0,1-.35,1.56,2.16,2.16,0,0,1-1,.9A3.4,3.4,0,0,1,13.69,103Z" fill="#0b675e"/>
      <path d="M19.84,102.87V91H17.33v-.68h5.8V91H20.68v11.87Z" fill="#0b675e"/>
      <path d="M24.6,102.87V90.32h3a3,3,0,0,1,1.71.41,2,2,0,0,1,.82,1.11,5.19,5.19,0,0,1,.23,1.58,5.77,5.77,0,0,1-.15,1.33,2.51,2.51,0,0,1-.54,1.08,1.9,1.9,0,0,1-1.16.56l2,6.48h-.84l-1.95-6.32H25.44v6.32Zm.84-7h2.17a2.07,2.07,0,0,0,1.22-.3,1.55,1.55,0,0,0,.58-.86,4.75,4.75,0,0,0,.17-1.32,3.37,3.37,0,0,0-.4-1.82A1.75,1.75,0,0,0,27.59,91H25.44Z" fill="#0b675e"/>
      <path d="M35.45,103a3.62,3.62,0,0,1-1.9-.41,2.16,2.16,0,0,1-1-1.11,4.42,4.42,0,0,1-.27-1.59V90.32h.84v9.62a3.71,3.71,0,0,0,.19,1.24,1.64,1.64,0,0,0,.7.86,2.74,2.74,0,0,0,1.4.31,2.56,2.56,0,0,0,1.36-.32,1.73,1.73,0,0,0,.72-.86,3.37,3.37,0,0,0,.22-1.23V90.32h.82v9.61a4,4,0,0,1-.3,1.59,2.3,2.3,0,0,1-1,1.11A3.52,3.52,0,0,1,35.45,103Z" fill="#0b675e"/>
      <path d="M40.58,102.87,41,90.32h.83l2.65,11.33,2.7-11.33H48l.36,12.55h-.73l-.31-10.52-2.56,10.52h-.62L41.62,92.36l-.31,10.51Z" fill="#0b675e"/>
      <path d="M50.52,102.87V90.32h4.34V91H51.37v5h2.87v.65H51.37v5.52h3.54v.66Z" fill="#0b675e"/>
      <path d="M56.63,102.87V90.32h.66l4.27,10.6V90.32h.74v12.55h-.66L57.37,92.25v10.62Z" fill="#0b675e"/>
      <path d="M66.27,102.87V91H63.76v-.68h5.8V91H67.11v11.87Z" fill="#0b675e"/>
      <path d="M73.87,103a3.23,3.23,0,0,1-1.9-.48,2.56,2.56,0,0,1-.94-1.34,6.26,6.26,0,0,1-.26-1.91V93.82a5.78,5.78,0,0,1,.28-1.89,2.45,2.45,0,0,1,1-1.29,3.25,3.25,0,0,1,1.87-.46,3.22,3.22,0,0,1,1.86.46,2.51,2.51,0,0,1,1,1.29A6.06,6.06,0,0,1,77,93.82v5.5a6.2,6.2,0,0,1-.27,1.91,2.5,2.5,0,0,1-.93,1.33A3.25,3.25,0,0,1,73.87,103Zm0-.69a2.27,2.27,0,0,0,1.38-.36,1.84,1.84,0,0,0,.68-1,5.61,5.61,0,0,0,.18-1.5V93.7a5.48,5.48,0,0,0-.18-1.49,1.85,1.85,0,0,0-.67-1,3,3,0,0,0-2.78,0,1.81,1.81,0,0,0-.68,1,5.48,5.48,0,0,0-.18,1.49v5.79a5.61,5.61,0,0,0,.18,1.5,1.84,1.84,0,0,0,.68,1A2.3,2.3,0,0,0,73.87,102.35Z" fill="#0b675e"/>
      <path d="M84.89,102.87V90.32h2.74a3.44,3.44,0,0,1,2,.48,2.49,2.49,0,0,1,1,1.3,5.58,5.58,0,0,1,.28,1.83v5.21a6,6,0,0,1-.28,1.91,2.57,2.57,0,0,1-1,1.34,3.23,3.23,0,0,1-1.9.48Zm.84-.66h1.93a2.26,2.26,0,0,0,1.52-.44,2,2,0,0,0,.65-1.15A7.11,7.11,0,0,0,90,99V94a5.77,5.77,0,0,0-.19-1.59,1.79,1.79,0,0,0-.7-1A2.53,2.53,0,0,0,87.63,91h-1.9Z" fill="#0b675e"/>
      <path d="M92.89,102.87V90.32h4.34V91H93.74v5h2.87v.65H93.74v5.52h3.53v.66Z" fill="#0b675e"/>
      <path d="M101.26,102.87l2.63-12.55h1l2.65,12.55h-.85L106,99.4h-3.26l-.66,3.47Zm1.63-4.09h3l-1.52-7.44Z" fill="#0b675e"/>
      <path d="M110.78,102.87l-3-12.55h.84l2.6,11.08,2.43-11.08h.83l-2.87,12.55Z" fill="#0b675e"/>
      <path d="M114.65,102.87l2.64-12.55h1l2.65,12.55h-.85l-.65-3.47h-3.25l-.67,3.47Zm1.63-4.09h3l-1.52-7.44Z" fill="#0b675e"/>
      <path d="M122.57,102.87V90.32h.84v11.89h3.8v.66Z" fill="#0b675e"/>
      <path d="M128.37,102.87V90.32h.84v12.55Z" fill="#0b675e"/>
      <path d="M130.88,102.87l2.64-12.55h1l2.66,12.55h-.86l-.65-3.47h-3.25l-.67,3.47Zm1.63-4.09h3L134,91.34Z" fill="#0b675e"/>
      <path d="M141.56,103a3.07,3.07,0,0,1-1.9-.51,2.55,2.55,0,0,1-.9-1.37,6.67,6.67,0,0,1-.25-1.9V93.93a6.68,6.68,0,0,1,.26-1.93,2.57,2.57,0,0,1,.93-1.33,3.09,3.09,0,0,1,1.86-.49,2.94,2.94,0,0,1,1.72.43,2.35,2.35,0,0,1,.89,1.23,6.21,6.21,0,0,1,.26,1.87v.64h-.8v-.64a5.63,5.63,0,0,0-.18-1.53,1.7,1.7,0,0,0-.62-1,2,2,0,0,0-1.27-.34,2.2,2.2,0,0,0-1.38.37,1.87,1.87,0,0,0-.65,1,6.44,6.44,0,0,0-.17,1.55v5.55a5.55,5.55,0,0,0,.19,1.58,1.83,1.83,0,0,0,.66,1,2.21,2.21,0,0,0,1.35.36,2,2,0,0,0,1.29-.36,1.8,1.8,0,0,0,.61-1,6.07,6.07,0,0,0,.17-1.5v-.76h.8v.62a6.55,6.55,0,0,1-.25,1.91,2.43,2.43,0,0,1-.86,1.31A2.83,2.83,0,0,1,141.56,103Zm-.28,2.72h-.21l-.24,0v-.45l.18,0h.17a1.48,1.48,0,0,0,.79-.16.54.54,0,0,0,.26-.49.62.62,0,0,0-.12-.38.81.81,0,0,0-.35-.25,1.78,1.78,0,0,0-.58-.13v-1h.45v.73a1.41,1.41,0,0,1,1,.32,1,1,0,0,1,.29.74,1,1,0,0,1-.18.6,1,1,0,0,1-.53.37A2.44,2.44,0,0,1,141.28,105.76Z" fill="#0b675e"/>
      <path d="M145.69,102.87l2.63-12.55h1L152,102.87h-.85l-.65-3.47h-3.26l-.67,3.47Zm3.93-14.24a1,1,0,0,1-.61-.19c-.18-.12-.35-.24-.5-.36a.8.8,0,0,0-.48-.18.44.44,0,0,0-.35.15.69.69,0,0,0-.13.45H147a1.78,1.78,0,0,1,.07-.42,1.4,1.4,0,0,1,.27-.51.76.76,0,0,1,.62-.24,1.15,1.15,0,0,1,.65.17,5.32,5.32,0,0,1,.52.37.8.8,0,0,0,.49.18.45.45,0,0,0,.37-.15,1,1,0,0,0,.14-.54h.53a2.79,2.79,0,0,1-.06.48,1.31,1.31,0,0,1-.28.55A.9.9,0,0,1,149.62,88.63Zm-2.31,10.15h3l-1.52-7.44Z" fill="#0b675e"/>
      <path d="M156.45,103a3.23,3.23,0,0,1-1.9-.48,2.5,2.5,0,0,1-.94-1.34,6.25,6.25,0,0,1-.27-1.91V93.82a6.06,6.06,0,0,1,.28-1.89,2.51,2.51,0,0,1,1-1.29,4,4,0,0,1,3.73,0,2.51,2.51,0,0,1,1,1.29,6.06,6.06,0,0,1,.28,1.89v5.5a6.2,6.2,0,0,1-.27,1.91,2.51,2.51,0,0,1-.94,1.33A3.22,3.22,0,0,1,156.45,103Zm0-.69a2.29,2.29,0,0,0,1.38-.36,1.84,1.84,0,0,0,.68-1,5.61,5.61,0,0,0,.18-1.5V93.7a5.48,5.48,0,0,0-.18-1.49,1.85,1.85,0,0,0-.67-1,3,3,0,0,0-2.78,0,1.81,1.81,0,0,0-.68,1,5.48,5.48,0,0,0-.18,1.49v5.79a5.61,5.61,0,0,0,.18,1.5,1.84,1.84,0,0,0,.68,1A2.3,2.3,0,0,0,156.45,102.35Z" fill="#0b675e"/>
      <path d="M164.54,102.87V90.32h2.74a3.38,3.38,0,0,1,1.95.48,2.51,2.51,0,0,1,1,1.3,5.58,5.58,0,0,1,.28,1.83v5.21a6,6,0,0,1-.28,1.91,2.63,2.63,0,0,1-1,1.34,3.25,3.25,0,0,1-1.9.48Zm.83-.66h1.94a2.26,2.26,0,0,0,1.52-.44,2,2,0,0,0,.65-1.15,7.11,7.11,0,0,0,.16-1.58V94a5.77,5.77,0,0,0-.19-1.59,1.83,1.83,0,0,0-.7-1,2.53,2.53,0,0,0-1.47-.36h-1.91Z" fill="#0b675e"/>
      <path d="M171.89,102.87l2.63-12.55h1l2.65,12.55h-.85l-.66-3.47h-3.25l-.67,3.47Zm1.62-4.09h3L175,91.34Z" fill="#0b675e"/>
      <path d="M185.53,103a3,3,0,0,1-1.9-.51,2.63,2.63,0,0,1-.91-1.37,7,7,0,0,1-.25-1.9V93.93a6.34,6.34,0,0,1,.27-1.93,2.46,2.46,0,0,1,.93-1.33,3,3,0,0,1,1.86-.49,3,3,0,0,1,1.72.43,2.34,2.34,0,0,1,.88,1.23,5.91,5.91,0,0,1,.26,1.87v.64h-.8v-.64a6.1,6.1,0,0,0-.17-1.53,1.76,1.76,0,0,0-.62-1,2.06,2.06,0,0,0-1.27-.34,2.2,2.2,0,0,0-1.38.37,1.82,1.82,0,0,0-.65,1,6,6,0,0,0-.17,1.55v5.55a6,6,0,0,0,.18,1.58,1.9,1.9,0,0,0,.67,1,2.21,2.21,0,0,0,1.35.36,2,2,0,0,0,1.28-.36,1.81,1.81,0,0,0,.62-1,6.63,6.63,0,0,0,.16-1.5v-.76h.8v.62a6.93,6.93,0,0,1-.24,1.91,2.5,2.5,0,0,1-.87,1.31A2.8,2.8,0,0,1,185.53,103Z" fill="#0b675e"/>
      <path d="M193.15,103a3.25,3.25,0,0,1-1.9-.48,2.54,2.54,0,0,1-.93-1.34,6.25,6.25,0,0,1-.27-1.91V93.82a6.06,6.06,0,0,1,.28-1.89,2.51,2.51,0,0,1,1-1.29,4,4,0,0,1,3.73,0,2.45,2.45,0,0,1,.95,1.29,5.78,5.78,0,0,1,.28,1.89v5.5a6.22,6.22,0,0,1-.26,1.91,2.57,2.57,0,0,1-.94,1.33A3.23,3.23,0,0,1,193.15,103Zm0-.69a2.3,2.3,0,0,0,1.39-.36,1.84,1.84,0,0,0,.68-1,5.61,5.61,0,0,0,.18-1.5V93.7a5.48,5.48,0,0,0-.18-1.49,1.85,1.85,0,0,0-.67-1,2.39,2.39,0,0,0-1.4-.34,2.34,2.34,0,0,0-1.38.34,1.81,1.81,0,0,0-.68,1,5.48,5.48,0,0,0-.18,1.49v5.79a5.61,5.61,0,0,0,.18,1.5,1.84,1.84,0,0,0,.68,1A2.27,2.27,0,0,0,193.15,102.35Z" fill="#0b675e"/>
      <path d="M201.15,103a3.25,3.25,0,0,1-1.9-.48,2.49,2.49,0,0,1-.93-1.34,6.25,6.25,0,0,1-.27-1.91V93.82a6.06,6.06,0,0,1,.28-1.89,2.51,2.51,0,0,1,1-1.29,3.22,3.22,0,0,1,1.86-.46,3.25,3.25,0,0,1,1.87.46,2.45,2.45,0,0,1,.95,1.29,5.78,5.78,0,0,1,.28,1.89v5.5a6.22,6.22,0,0,1-.26,1.91,2.57,2.57,0,0,1-.94,1.33A3.23,3.23,0,0,1,201.15,103Zm0-.69a2.32,2.32,0,0,0,1.39-.36,1.78,1.78,0,0,0,.67-1,5.21,5.21,0,0,0,.19-1.5V93.7a5.09,5.09,0,0,0-.19-1.49,1.79,1.79,0,0,0-.66-1,2.39,2.39,0,0,0-1.4-.34,2.34,2.34,0,0,0-1.38.34,1.81,1.81,0,0,0-.68,1,5.48,5.48,0,0,0-.18,1.49v5.79a5.61,5.61,0,0,0,.18,1.5,1.84,1.84,0,0,0,.68,1A2.27,2.27,0,0,0,201.15,102.35Z" fill="#0b675e"/>
      <path d="M206.32,102.87V90.32h3a3,3,0,0,1,1.72.41,2.09,2.09,0,0,1,.82,1.11,5.2,5.2,0,0,1,.22,1.58,6.38,6.38,0,0,1-.14,1.33,2.42,2.42,0,0,1-.55,1.08,1.9,1.9,0,0,1-1.15.56l2,6.48h-.83l-2-6.32h-2.34v6.32Zm.83-7h2.17a2.11,2.11,0,0,0,1.23-.3,1.6,1.6,0,0,0,.58-.86,4.77,4.77,0,0,0,.16-1.32,3.47,3.47,0,0,0-.39-1.82,1.78,1.78,0,0,0-1.59-.62h-2.16Z" fill="#0b675e"/>
      <path d="M214.19,102.87V90.32h2.74a3.44,3.44,0,0,1,2,.48,2.49,2.49,0,0,1,1,1.3,5.58,5.58,0,0,1,.28,1.83v5.21a6,6,0,0,1-.28,1.91,2.57,2.57,0,0,1-1,1.34,3.23,3.23,0,0,1-1.9.48Zm.84-.66H217a2.23,2.23,0,0,0,1.51-.44,2.11,2.11,0,0,0,.66-1.15,7.78,7.78,0,0,0,.15-1.58V94a5.77,5.77,0,0,0-.19-1.59,1.82,1.82,0,0,0-.69-1,2.57,2.57,0,0,0-1.48-.36H215Z" fill="#0b675e"/>
      <path d="M222.19,102.87V90.32h4.34V91H223v5h2.87v.65H223v5.52h3.54v.66Z" fill="#0b675e"/>
      <path d="M228.3,102.87V90.32H229l4.27,10.6V90.32H234v12.55h-.67L229,92.25v10.62Z" fill="#0b675e"/>
      <path d="M235.61,102.87l2.64-12.55h1l2.65,12.55H241l-.65-3.47h-3.25l-.67,3.47Zm1.63-4.09h3l-1.51-7.44Z" fill="#0b675e"/>
      <path d="M246.29,103a3,3,0,0,1-1.89-.51,2.57,2.57,0,0,1-.91-1.37,6.67,6.67,0,0,1-.25-1.9V93.93A6.68,6.68,0,0,1,243.5,92a2.57,2.57,0,0,1,.93-1.33,3.09,3.09,0,0,1,1.86-.49,3,3,0,0,1,1.73.43,2.39,2.39,0,0,1,.88,1.23,6.21,6.21,0,0,1,.26,1.87v.64h-.8v-.64a6.1,6.1,0,0,0-.17-1.53,1.76,1.76,0,0,0-.62-1,2.07,2.07,0,0,0-1.28-.34,2.19,2.19,0,0,0-1.37.37,1.83,1.83,0,0,0-.66,1,6.44,6.44,0,0,0-.17,1.55v5.55a5.94,5.94,0,0,0,.19,1.58,1.84,1.84,0,0,0,.67,1,2.2,2.2,0,0,0,1.34.36,2,2,0,0,0,1.29-.36,1.8,1.8,0,0,0,.61-1,6.07,6.07,0,0,0,.17-1.5v-.76h.8v.62a6.55,6.55,0,0,1-.25,1.91,2.43,2.43,0,0,1-.86,1.31A2.83,2.83,0,0,1,246.29,103Zm-.27,2.72h-.22l-.23,0v-.45l.17,0h.17a1.55,1.55,0,0,0,.8-.16.53.53,0,0,0,.25-.49.62.62,0,0,0-.12-.38.84.84,0,0,0-.34-.25,1.91,1.91,0,0,0-.59-.13v-1h.45v.73a1.41,1.41,0,0,1,.95.32,1,1,0,0,1,.29.74,1,1,0,0,1-.18.6,1,1,0,0,1-.53.37A2.42,2.42,0,0,1,246,105.76Z" fill="#0b675e"/>
      <path d="M250.42,102.87l2.63-12.55h1l2.65,12.55h-.85l-.65-3.47h-3.26l-.66,3.47Zm3.94-14.24a1,1,0,0,1-.62-.19c-.18-.12-.35-.24-.5-.36a.8.8,0,0,0-.48-.18.44.44,0,0,0-.35.15.69.69,0,0,0-.13.45h-.56a1.78,1.78,0,0,1,.07-.42,1.4,1.4,0,0,1,.27-.51.77.77,0,0,1,.62-.24,1.15,1.15,0,0,1,.65.17,5.32,5.32,0,0,1,.52.37.8.8,0,0,0,.49.18.44.44,0,0,0,.37-.15,1,1,0,0,0,.14-.54h.53a2.79,2.79,0,0,1-.06.48,1.2,1.2,0,0,1-.28.55A.88.88,0,0,1,254.36,88.63Zm-2.31,10.15h3l-1.52-7.44Z" fill="#0b675e"/>
      <path d="M261.18,103a3.23,3.23,0,0,1-1.9-.48,2.56,2.56,0,0,1-.94-1.34,6.26,6.26,0,0,1-.26-1.91V93.82a5.78,5.78,0,0,1,.28-1.89,2.45,2.45,0,0,1,.95-1.29,3.25,3.25,0,0,1,1.87-.46,3.22,3.22,0,0,1,1.86.46,2.51,2.51,0,0,1,1,1.29,6.06,6.06,0,0,1,.28,1.89v5.5a6.2,6.2,0,0,1-.27,1.91,2.5,2.5,0,0,1-.93,1.33A3.25,3.25,0,0,1,261.18,103Zm0-.69a2.27,2.27,0,0,0,1.38-.36,1.84,1.84,0,0,0,.68-1,5.61,5.61,0,0,0,.18-1.5V93.7a5.48,5.48,0,0,0-.18-1.49,1.85,1.85,0,0,0-.67-1,3,3,0,0,0-2.78,0,1.81,1.81,0,0,0-.68,1,5.48,5.48,0,0,0-.18,1.49v5.79a5.61,5.61,0,0,0,.18,1.5,1.84,1.84,0,0,0,.68,1A2.3,2.3,0,0,0,261.18,102.35Z" fill="#0b675e"/>
      <path d="M269.27,102.87V90.32H272a3.44,3.44,0,0,1,2,.48,2.49,2.49,0,0,1,1,1.3,5.58,5.58,0,0,1,.28,1.83v5.21a6,6,0,0,1-.28,1.91,2.57,2.57,0,0,1-.95,1.34,3.23,3.23,0,0,1-1.9.48Zm.84-.66H272a2.24,2.24,0,0,0,1.52-.44,2,2,0,0,0,.65-1.15,7.11,7.11,0,0,0,.16-1.58V94a5.77,5.77,0,0,0-.19-1.59,1.82,1.82,0,0,0-.69-1A2.59,2.59,0,0,0,272,91h-1.9Z" fill="#0b675e"/>
      <path d="M276.62,102.87l2.63-12.55h1l2.65,12.55H282l-.65-3.47h-3.26l-.67,3.47Zm1.62-4.09h3l-1.52-7.44Z" fill="#0b675e"/>
      <path d="M287.05,103a3.14,3.14,0,0,1-1.64-.4,2.52,2.52,0,0,1-1-1.14,4.78,4.78,0,0,1-.41-1.72l.72-.23a7.85,7.85,0,0,0,.34,1.46,1.87,1.87,0,0,0,2,1.33,2.18,2.18,0,0,0,1.47-.46,2,2,0,0,0,.53-1.55,2.67,2.67,0,0,0-.42-1.48,8.88,8.88,0,0,0-1.2-1.42l-2.3-2.28a4.06,4.06,0,0,1-.83-1.18,2.88,2.88,0,0,1-.27-1.21,2.41,2.41,0,0,1,.77-1.91,2.93,2.93,0,0,1,2-.66,3.76,3.76,0,0,1,1.15.16,2.18,2.18,0,0,1,.89.53,2.51,2.51,0,0,1,.6,1,6.19,6.19,0,0,1,.28,1.48l-.72.18a5.24,5.24,0,0,0-.29-1.48,1.78,1.78,0,0,0-.68-.87,2.26,2.26,0,0,0-1.21-.29,2.29,2.29,0,0,0-1.43.43,1.65,1.65,0,0,0-.57,1.4,2.31,2.31,0,0,0,.19.93,3.46,3.46,0,0,0,.72,1L288,96.83a8.52,8.52,0,0,1,1.31,1.59,3.3,3.3,0,0,1,.56,1.85,3.05,3.05,0,0,1-.36,1.56,2.16,2.16,0,0,1-1,.9A3.4,3.4,0,0,1,287.05,103Z" fill="#0b675e"/>
      <path d="M0,121.48V108.92H3a3,3,0,0,1,1.71.41,2.07,2.07,0,0,1,.82,1.12A5.13,5.13,0,0,1,5.8,112a5.71,5.71,0,0,1-.15,1.33,2.4,2.4,0,0,1-.54,1.08A1.94,1.94,0,0,1,4,115l2,6.48H5.13l-1.95-6.33H.84v6.33Zm.84-7H3a2.09,2.09,0,0,0,1.22-.3,1.56,1.56,0,0,0,.58-.86A4.65,4.65,0,0,0,5,112a3.4,3.4,0,0,0-.4-1.81A1.73,1.73,0,0,0,3,109.59H.84Z" fill="#0b675e"/>
      <path d="M7.86,121.48V108.92H12.2v.68H8.71v5h2.87v.65H8.71v5.52h3.54v.67Z" fill="#0b675e"/>
      <path d="M14,121.48V108.92h2.74a3.38,3.38,0,0,1,1.95.48,2.51,2.51,0,0,1,1,1.3,5.58,5.58,0,0,1,.28,1.83v5.21a6,6,0,0,1-.28,1.91,2.63,2.63,0,0,1-.95,1.34,3.25,3.25,0,0,1-1.9.49Zm.83-.67h1.94a2.26,2.26,0,0,0,1.52-.43,2.06,2.06,0,0,0,.65-1.16,7,7,0,0,0,.16-1.57v-5.06a5.77,5.77,0,0,0-.19-1.59,1.81,1.81,0,0,0-.7-1,2.46,2.46,0,0,0-1.47-.37H14.8Z" fill="#0b675e"/>
      <path d="M22,121.48V108.92h4.34v.68H22.82v5h2.87v.65H22.82v5.52h3.53v.67Z" fill="#0b675e"/>
      <path d="M30.59,121.63a3,3,0,0,1-1.64-.4,2.64,2.64,0,0,1-1-1.13,5.11,5.11,0,0,1-.41-1.72l.73-.24a7,7,0,0,0,.33,1.46,1.84,1.84,0,0,0,2,1.33,2.18,2.18,0,0,0,1.47-.46,2,2,0,0,0,.53-1.55,2.62,2.62,0,0,0-.43-1.48A8.31,8.31,0,0,0,31,116l-2.29-2.28a4.16,4.16,0,0,1-.84-1.18,3,3,0,0,1-.26-1.21,2.35,2.35,0,0,1,.77-1.9,2.89,2.89,0,0,1,2-.67,3.7,3.7,0,0,1,1.14.16,2.34,2.34,0,0,1,.9.53,2.45,2.45,0,0,1,.59,1,5.34,5.34,0,0,1,.28,1.49l-.71.17a4.89,4.89,0,0,0-.3-1.48,1.73,1.73,0,0,0-.68-.87,2.23,2.23,0,0,0-1.21-.29,2.27,2.27,0,0,0-1.42.44,1.61,1.61,0,0,0-.58,1.39,2.32,2.32,0,0,0,.2.93,3.33,3.33,0,0,0,.72,1l2.26,2.23A9.7,9.7,0,0,1,32.84,117a3.29,3.29,0,0,1,.55,1.85,3.05,3.05,0,0,1-.36,1.56,2.13,2.13,0,0,1-1,.91A3.51,3.51,0,0,1,30.59,121.63Z" fill="#0b675e"/>
      <path d="M38,121.48V108.92h2.74a3.44,3.44,0,0,1,2,.48,2.49,2.49,0,0,1,1,1.3,5.58,5.58,0,0,1,.28,1.83v5.21a6,6,0,0,1-.28,1.91,2.57,2.57,0,0,1-1,1.34,3.23,3.23,0,0,1-1.9.49Zm.84-.67h1.94a2.23,2.23,0,0,0,1.51-.43,2.07,2.07,0,0,0,.66-1.16,7.68,7.68,0,0,0,.15-1.57v-5.06a6.22,6.22,0,0,0-.18-1.59,1.86,1.86,0,0,0-.7-1,2.47,2.47,0,0,0-1.48-.37h-1.9Z" fill="#0b675e"/>
      <path d="M46,121.48V108.92h4.34v.68H46.86v5h2.87v.65H46.86v5.52H50.4v.67Z" fill="#0b675e"/>
      <path d="M54.38,121.48,57,108.92h1l2.65,12.56h-.85L59.14,118H55.88l-.66,3.48Zm1.63-4.1h3l-1.52-7.44Z" fill="#0b675e"/>
      <path d="M63.37,121.48V109.6H60.86v-.68h5.8v.68H64.21v11.88Z" fill="#0b675e"/>
      <path d="M68.12,121.48V108.92h4.34v.68H69v5h2.87v.65H69v5.52H72.5v.67Z" fill="#0b675e"/>
      <path d="M74.22,121.48V108.92h.67l4.26,10.6v-10.6h.75v12.56h-.67L75,110.86v10.62Z" fill="#0b675e"/>
      <path d="M85,121.65a3,3,0,0,1-1.9-.51,2.65,2.65,0,0,1-.91-1.38,7,7,0,0,1-.25-1.9v-5.33a6.34,6.34,0,0,1,.27-1.93,2.46,2.46,0,0,1,.93-1.33,3,3,0,0,1,1.86-.49,3,3,0,0,1,1.72.43,2.33,2.33,0,0,1,.88,1.24,5.79,5.79,0,0,1,.27,1.86V113h-.81v-.64a6.07,6.07,0,0,0-.17-1.52,1.78,1.78,0,0,0-.62-1,2,2,0,0,0-1.27-.34,2.2,2.2,0,0,0-1.38.37,1.82,1.82,0,0,0-.65,1,6,6,0,0,0-.17,1.55V118a6.11,6.11,0,0,0,.18,1.59,1.83,1.83,0,0,0,.67,1A2.21,2.21,0,0,0,85,121a2,2,0,0,0,1.28-.36,1.78,1.78,0,0,0,.62-1,6.54,6.54,0,0,0,.16-1.49v-.76h.81V118a6.83,6.83,0,0,1-.25,1.9,2.5,2.5,0,0,1-.87,1.31A2.8,2.8,0,0,1,85,121.65Zm-.28,2.71H84.5l-.23,0v-.45l.18,0h.16a1.64,1.64,0,0,0,.8-.15.54.54,0,0,0,.25-.5.56.56,0,0,0-.11-.37.87.87,0,0,0-.35-.26,1.84,1.84,0,0,0-.59-.13v-1h.45v.73a1.41,1.41,0,0,1,1,.31,1,1,0,0,1,.29.74,1,1,0,0,1-.18.6,1.07,1.07,0,0,1-.53.38A2.68,2.68,0,0,1,84.72,124.36Z" fill="#0b675e"/>
      <path d="M89.12,121.48l2.64-12.56h1l2.65,12.56h-.85L93.88,118H90.62L90,121.48Zm3.94-14.25a1,1,0,0,1-.61-.19c-.19-.12-.35-.24-.51-.36a.76.76,0,0,0-.48-.18.43.43,0,0,0-.35.16.65.65,0,0,0-.13.45h-.56a2.25,2.25,0,0,1,.07-.42,1.36,1.36,0,0,1,.27-.52.77.77,0,0,1,.62-.24,1.21,1.21,0,0,1,.66.18l.51.36a.84.84,0,0,0,.49.19.45.45,0,0,0,.37-.16.88.88,0,0,0,.14-.54h.53a2.79,2.79,0,0,1-.06.48,1.16,1.16,0,0,1-.28.55A.86.86,0,0,1,93.06,107.23Zm-2.31,10.15h3l-1.52-7.44Z" fill="#0b675e"/>
      <path d="M99.88,121.65a3.23,3.23,0,0,1-1.9-.49,2.57,2.57,0,0,1-.94-1.33,6.7,6.7,0,0,1-.26-1.92v-5.49a5.78,5.78,0,0,1,.28-1.89,2.42,2.42,0,0,1,1-1.28,4,4,0,0,1,3.74,0,2.47,2.47,0,0,1,1,1.28,5.78,5.78,0,0,1,.28,1.89v5.51a6.47,6.47,0,0,1-.26,1.9,2.57,2.57,0,0,1-.94,1.33A3.25,3.25,0,0,1,99.88,121.65Zm0-.7a2.32,2.32,0,0,0,1.39-.36,1.79,1.79,0,0,0,.67-1,5.5,5.5,0,0,0,.19-1.49v-5.8a5.45,5.45,0,0,0-.19-1.49,1.77,1.77,0,0,0-.67-1,2.28,2.28,0,0,0-1.39-.35,2.32,2.32,0,0,0-1.39.35,1.77,1.77,0,0,0-.67,1,5.09,5.09,0,0,0-.19,1.49v5.8a5.14,5.14,0,0,0,.19,1.49,1.79,1.79,0,0,0,.67,1A2.32,2.32,0,0,0,99.88,121Z" fill="#0b675e"/>
      <path d="M107.3,121.48l2.64-12.56h1l2.65,12.56h-.86l-.65-3.48h-3.25l-.67,3.48Zm1.63-4.1h3l-1.51-7.44Zm1.27-9.2-1.25-3h.83l.84,3Z" fill="#0b675e"/>
      <path d="M120.67,121.63a3,3,0,0,1-1.64-.4,2.64,2.64,0,0,1-1-1.13,5.36,5.36,0,0,1-.41-1.72l.73-.24a7.66,7.66,0,0,0,.34,1.46,1.84,1.84,0,0,0,2,1.33,2.18,2.18,0,0,0,1.47-.46,2,2,0,0,0,.53-1.55,2.69,2.69,0,0,0-.42-1.48,8.91,8.91,0,0,0-1.21-1.42l-2.29-2.28a4.16,4.16,0,0,1-.84-1.18,3,3,0,0,1-.26-1.21,2.38,2.38,0,0,1,.77-1.9,2.89,2.89,0,0,1,2-.67,3.76,3.76,0,0,1,1.15.16,2.37,2.37,0,0,1,.89.53,2.45,2.45,0,0,1,.59,1,5.34,5.34,0,0,1,.28,1.49l-.71.17a5.24,5.24,0,0,0-.29-1.48,1.8,1.8,0,0,0-.69-.87,2.23,2.23,0,0,0-1.21-.29,2.29,2.29,0,0,0-1.42.44,1.64,1.64,0,0,0-.58,1.39,2.32,2.32,0,0,0,.2.93,3.33,3.33,0,0,0,.72,1l2.26,2.23a9.22,9.22,0,0,1,1.31,1.59,3.29,3.29,0,0,1,.55,1.85,3.16,3.16,0,0,1-.35,1.56,2.2,2.2,0,0,1-1,.91A3.51,3.51,0,0,1,120.67,121.63Z" fill="#0b675e"/>
      <path d="M124.5,121.48l2.63-12.56h1l2.65,12.56h-.85l-.66-3.48H126l-.67,3.48Zm1.62-4.1h3l-1.52-7.44Z" fill="#0b675e"/>
      <path d="M135.39,121.65a3.72,3.72,0,0,1-1.9-.41,2.22,2.22,0,0,1-1-1.12,4.42,4.42,0,0,1-.27-1.59v-9.61h.84v9.63a3.69,3.69,0,0,0,.19,1.23,1.65,1.65,0,0,0,.7.86,2.64,2.64,0,0,0,1.4.31,2.56,2.56,0,0,0,1.36-.32,1.73,1.73,0,0,0,.72-.86,3.16,3.16,0,0,0,.22-1.22v-9.63h.82v9.61a4.21,4.21,0,0,1-.29,1.59,2.39,2.39,0,0,1-1,1.12A3.61,3.61,0,0,1,135.39,121.65Zm-.2-13.47,1-3H137l-1.39,3Z" fill="#0b675e"/>
      <path d="M140.68,121.48V108.92h2.74a3.44,3.44,0,0,1,2,.48,2.49,2.49,0,0,1,1,1.3,5.58,5.58,0,0,1,.28,1.83v5.21a6,6,0,0,1-.28,1.91,2.57,2.57,0,0,1-.95,1.34,3.23,3.23,0,0,1-1.9.49Zm.84-.67h1.93a2.24,2.24,0,0,0,1.52-.43,2.06,2.06,0,0,0,.65-1.16,7,7,0,0,0,.16-1.57v-5.06a5.77,5.77,0,0,0-.19-1.59,1.8,1.8,0,0,0-.69-1,2.49,2.49,0,0,0-1.48-.37h-1.9Z" fill="#0b675e"/>
      <path d="M148.68,121.48V108.92H153v.68h-3.49v5h2.87v.65h-2.87v5.52h3.54v.67Z" fill="#0b675e"/>
      <path d="M157.72,121.48V108.92h2.94a3.09,3.09,0,0,1,1.77.43,2.26,2.26,0,0,1,.89,1.15,5.24,5.24,0,0,1,0,3.26,2.58,2.58,0,0,1-.89,1.24,2.84,2.84,0,0,1-1.75.48h-2.13v6Zm.83-6.65h1.94a2.57,2.57,0,0,0,1.25-.27,1.64,1.64,0,0,0,.73-.84,4.19,4.19,0,0,0,.24-1.56,4.37,4.37,0,0,0-.22-1.57,1.35,1.35,0,0,0-.7-.79,3.05,3.05,0,0,0-1.28-.23h-2Z" fill="#0b675e"/>
      <path d="M165.22,121.48V108.92h4.34v.68h-3.49v5h2.87v.65h-2.87v5.52h3.54v.67Z" fill="#0b675e"/>
      <path d="M171.33,121.48V108.92h.83v11.89H176v.67Z" fill="#0b675e"/>
      <path d="M176.44,121.48l2.64-12.56h1l2.66,12.56h-.86L181.2,118H178l-.67,3.48Zm1.63-4.1h3l-1.52-7.44Z" fill="#0b675e"/>
      <path d="M186.63,121.48l2.63-12.56h1l2.65,12.56H192l-.65-3.48h-3.26l-.67,3.48Zm1.62-4.1h3l-1.52-7.44Z" fill="#0b675e"/>
      <path d="M195.62,121.48V109.6h-2.51v-.68h5.79v.68h-2.44v11.88Z" fill="#0b675e"/>
      <path d="M200.36,121.48V108.92h4.34v.68h-3.49v5h2.87v.65h-2.87v5.52h3.54v.67Z" fill="#0b675e"/>
      <path d="M206.47,121.48V108.92h.67l4.26,10.6v-10.6h.74v12.56h-.66l-4.27-10.62v10.62Z" fill="#0b675e"/>
      <path d="M217.24,121.65a3.07,3.07,0,0,1-1.9-.51,2.64,2.64,0,0,1-.9-1.38,6.62,6.62,0,0,1-.25-1.9v-5.33a6.68,6.68,0,0,1,.26-1.93,2.57,2.57,0,0,1,.93-1.33,3.09,3.09,0,0,1,1.86-.49,2.94,2.94,0,0,1,1.72.43,2.34,2.34,0,0,1,.89,1.24,6.1,6.1,0,0,1,.26,1.86V113h-.8v-.64a5.61,5.61,0,0,0-.18-1.52,1.73,1.73,0,0,0-.62-1,2,2,0,0,0-1.27-.34,2.2,2.2,0,0,0-1.38.37,1.87,1.87,0,0,0-.65,1,6.44,6.44,0,0,0-.17,1.55V118a5.68,5.68,0,0,0,.19,1.59,1.77,1.77,0,0,0,.66,1,2.23,2.23,0,0,0,1.35.36,2,2,0,0,0,1.29-.36,1.76,1.76,0,0,0,.61-1,6,6,0,0,0,.17-1.49v-.76h.8V118a6.48,6.48,0,0,1-.25,1.9,2.43,2.43,0,0,1-.86,1.31A2.83,2.83,0,0,1,217.24,121.65Zm-.28,2.71h-.21l-.24,0v-.45l.18,0h.17a1.6,1.6,0,0,0,.79-.15.55.55,0,0,0,.26-.5.57.57,0,0,0-.12-.37.77.77,0,0,0-.34-.26,1.91,1.91,0,0,0-.59-.13v-1h.45v.73a1.41,1.41,0,0,1,.95.31,1,1,0,0,1,.29.74,1,1,0,0,1-.18.6,1.12,1.12,0,0,1-.53.38A2.71,2.71,0,0,1,217,124.36Z" fill="#0b675e"/>
      <path d="M221.37,121.48,224,108.92h1l2.65,12.56h-.85l-.65-3.48h-3.26l-.67,3.48Zm3.93-14.25a1,1,0,0,1-.61-.19c-.18-.12-.35-.24-.5-.36a.8.8,0,0,0-.48-.18.42.42,0,0,0-.35.16.65.65,0,0,0-.13.45h-.56a1.64,1.64,0,0,1,.07-.42,1.36,1.36,0,0,1,.27-.52.76.76,0,0,1,.62-.24,1.15,1.15,0,0,1,.65.18c.19.12.36.24.52.36a.82.82,0,0,0,.49.19.46.46,0,0,0,.37-.16,1,1,0,0,0,.14-.54h.53a2.79,2.79,0,0,1-.06.48,1.25,1.25,0,0,1-.28.55A.9.9,0,0,1,225.3,107.23ZM223,117.38h3l-1.52-7.44Z" fill="#0b675e"/>
      <path d="M232.13,121.65a3.23,3.23,0,0,1-1.9-.49,2.51,2.51,0,0,1-.94-1.33,6.36,6.36,0,0,1-.27-1.92v-5.49a6.06,6.06,0,0,1,.28-1.89,2.49,2.49,0,0,1,1-1.28,3.94,3.94,0,0,1,3.73,0,2.49,2.49,0,0,1,1,1.28,6.06,6.06,0,0,1,.28,1.89v5.51a6.14,6.14,0,0,1-.27,1.9,2.51,2.51,0,0,1-.94,1.33A3.22,3.22,0,0,1,232.13,121.65Zm0-.7a2.29,2.29,0,0,0,1.38-.36,1.8,1.8,0,0,0,.68-1,5.53,5.53,0,0,0,.18-1.49v-5.8a5.48,5.48,0,0,0-.18-1.49,1.83,1.83,0,0,0-.67-1,2.94,2.94,0,0,0-2.78,0,1.79,1.79,0,0,0-.68,1,5.48,5.48,0,0,0-.18,1.49v5.8a5.53,5.53,0,0,0,.18,1.49,1.8,1.8,0,0,0,.68,1A2.3,2.3,0,0,0,232.13,121Z" fill="#0b675e"/>
      <path d="M240.22,121.48V108.92h2.94a3.09,3.09,0,0,1,1.77.43,2.26,2.26,0,0,1,.89,1.15,5.24,5.24,0,0,1,0,3.26,2.58,2.58,0,0,1-.89,1.24,2.84,2.84,0,0,1-1.75.48h-2.13v6Zm.83-6.65H243a2.57,2.57,0,0,0,1.25-.27,1.6,1.6,0,0,0,.73-.84,4.19,4.19,0,0,0,.24-1.56,4.37,4.37,0,0,0-.22-1.57,1.35,1.35,0,0,0-.7-.79,3,3,0,0,0-1.28-.23h-2Z" fill="#0b675e"/>
      <path d="M247.74,121.48V108.92h3a3.06,3.06,0,0,1,1.72.41,2.12,2.12,0,0,1,.82,1.12,5.14,5.14,0,0,1,.22,1.57,6.31,6.31,0,0,1-.14,1.33,2.32,2.32,0,0,1-.55,1.08,1.91,1.91,0,0,1-1.15.57l2,6.48h-.83l-2-6.33h-2.34v6.33Zm.83-7h2.17a2.11,2.11,0,0,0,1.23-.3,1.56,1.56,0,0,0,.58-.86,4.68,4.68,0,0,0,.16-1.32,3.4,3.4,0,0,0-.39-1.81,1.75,1.75,0,0,0-1.59-.62h-2.16Z" fill="#0b675e"/>
      <path d="M255.63,121.48V108.92h.83v12.56Z" fill="#0b675e"/>
      <path d="M258.65,121.48l.37-12.56h.84l2.65,11.33,2.7-11.33h.86l.36,12.56h-.73L265.39,111l-2.56,10.53h-.62L259.69,111l-.31,10.51Z" fill="#0b675e"/>
      <path d="M267.93,121.48l2.64-12.56h1l2.65,12.56h-.85l-.66-3.48h-3.25l-.67,3.48Zm1.63-4.1h3l-1.52-7.44Zm1.3-9.2,1-3h.83l-1.39,3Z" fill="#0b675e"/>
      <path d="M275.86,121.48V108.92h3a3.06,3.06,0,0,1,1.72.41,2.12,2.12,0,0,1,.82,1.12,5.14,5.14,0,0,1,.22,1.57,6.31,6.31,0,0,1-.14,1.33,2.32,2.32,0,0,1-.55,1.08,1.88,1.88,0,0,1-1.15.57l2,6.48H281l-2-6.33h-2.34v6.33Zm.83-7h2.17a2.11,2.11,0,0,0,1.23-.3,1.56,1.56,0,0,0,.58-.86,4.68,4.68,0,0,0,.16-1.32,3.4,3.4,0,0,0-.39-1.81,1.75,1.75,0,0,0-1.59-.62h-2.16Z" fill="#0b675e"/>
      <path d="M283.75,121.48V108.92h.83v12.56Z" fill="#0b675e"/>
      <path d="M286.26,121.48l2.63-12.56h1l2.65,12.56h-.85L291,118h-3.26l-.67,3.48Zm1.63-4.1h3l-1.52-7.44Z" fill="#0b675e"/>
    </g>
    <g>
      <path d="M1,75V.82H19q6.6,0,10.12,2.43A12.31,12.31,0,0,1,34,9.84a30.41,30.41,0,0,1,1.33,9.3A34.77,34.77,0,0,1,34.41,27a14.19,14.19,0,0,1-3.2,6.37,11.28,11.28,0,0,1-6.83,3.34L36.29,75H31.34L19.81,37.63H6V75ZM6,33.79H18.8q4.75,0,7.23-1.79a9.2,9.2,0,0,0,3.44-5.08,28,28,0,0,0,1-7.78q0-7-2.34-10.72T18.71,4.76H6Z" fill="#0b675e"/>
      <path d="M47,75V.82H72.64v4H52V34.61H69v3.85H52v32.6H72.91V75Z" fill="#0b675e"/>
      <path d="M82.62,75V.82H98.83q7.41,0,11.53,2.84a14.9,14.9,0,0,1,5.77,7.69,33.46,33.46,0,0,1,1.65,10.81V52.92a35.89,35.89,0,0,1-1.65,11.31,15.35,15.35,0,0,1-5.63,7.88Q106.53,75,99.28,75Zm4.94-3.93H99q6,0,9-2.57a12.12,12.12,0,0,0,3.85-6.82,44.29,44.29,0,0,0,.91-9.29V22.52a35.65,35.65,0,0,0-1.09-9.38A10.79,10.79,0,0,0,107.52,7q-3-2.14-8.69-2.15H87.56Z" fill="#0b675e"/>
      <path d="M129.41,75V.82h25.64v4h-20.6V34.61h16.93v3.85H134.45v32.6h20.87V75Z" fill="#0b675e"/>
      <path d="M182.42,76a21.93,21.93,0,0,1-11.17-2.61,16.4,16.4,0,0,1-6.77-7.65,32.82,32.82,0,0,1-2.57-12.36l11.63-2.29a35.69,35.69,0,0,0,1.06,7.6,11,11,0,0,0,2.65,5.09A6.37,6.37,0,0,0,182,65.56c2.19,0,3.75-.65,4.67-2a8.54,8.54,0,0,0,1.37-5,13.44,13.44,0,0,0-2.2-8A34.18,34.18,0,0,0,180,44.41l-9.34-8.24a28.22,28.22,0,0,1-6.27-7.56A20.76,20.76,0,0,1,162,18.31q0-8.79,5.12-13.55t14-4.76a20.93,20.93,0,0,1,8.7,1.6A13.84,13.84,0,0,1,195.38,6a20,20,0,0,1,3.07,6.46,38,38,0,0,1,1.28,7.64l-11.54,2a40,40,0,0,0-.77-6.23,8.67,8.67,0,0,0-2.11-4.3,5.91,5.91,0,0,0-4.44-1.56,5.63,5.63,0,0,0-4.63,2,7.56,7.56,0,0,0-1.6,4.9,11.24,11.24,0,0,0,1.56,6.18,24.06,24.06,0,0,0,4.49,5l9.24,8.15a38.34,38.34,0,0,1,7.83,9A23,23,0,0,1,201,57.78a18.86,18.86,0,0,1-2.33,9.43,16.81,16.81,0,0,1-6.5,6.46A19.71,19.71,0,0,1,182.42,76Z" fill="#0b675e"/>
      <path d="M228.85,76Q220.6,76,216,73a15.47,15.47,0,0,1-6.32-8.61A45.23,45.23,0,0,1,208,51V.82h13.19V52.56a45.23,45.23,0,0,0,.45,6.55,9.25,9.25,0,0,0,2.16,4.94,6.49,6.49,0,0,0,5.08,1.88q3.57,0,5.17-1.88a10,10,0,0,0,2.11-4.94,41.18,41.18,0,0,0,.5-6.55V.82h13.1V51A45.57,45.57,0,0,1,248,64.37,15.54,15.54,0,0,1,241.71,73Q237.18,76,228.85,76Z" fill="#0b675e"/>
      <path d="M259.89,75V.82h13.55V65.65h17.95V75Z" fill="#0b675e"/>
    </g>
  </g>
</svg>
