<svg xmlns="http://www.w3.org/2000/svg" width="143.8" height="37.64" viewBox="0 0 143.8 37.64">
  <g>
    <path d="M0,37.14V.41H8.89a8.79,8.79,0,0,1,5,1.2,6.12,6.12,0,0,1,2.4,3.26A15.14,15.14,0,0,1,17,9.48a17.08,17.08,0,0,1-.43,3.9,7,7,0,0,1-1.59,3.15,5.6,5.6,0,0,1-3.38,1.66l5.9,19H15L9.3,18.64H2.45v18.5ZM2.45,16.73H8.8a6.08,6.08,0,0,0,3.58-.88,4.56,4.56,0,0,0,1.7-2.52,13.72,13.72,0,0,0,.48-3.85A10,10,0,0,0,13.4,4.17Q12.25,2.36,8.75,2.36H2.45Z" fill="#0b675e"/>
    <path d="M22.77,37.14V.41H35.46v2H25.26V17.14h8.39v1.91H25.26V35.19H35.6v2Z" fill="#0b675e"/>
    <path d="M40.41,37.14V.41h8a10.05,10.05,0,0,1,5.72,1.4A7.37,7.37,0,0,1,57,5.62,16.46,16.46,0,0,1,57.82,11V26.21a17.6,17.6,0,0,1-.82,5.6,7.55,7.55,0,0,1-2.79,3.9,9.33,9.33,0,0,1-5.55,1.43Zm2.44-2h5.67A6.6,6.6,0,0,0,53,33.92a6,6,0,0,0,1.9-3.38,22,22,0,0,0,.46-4.6V11.16a17.65,17.65,0,0,0-.55-4.65,5.29,5.29,0,0,0-2-3A7.37,7.37,0,0,0,48.43,2.4H42.85Z" fill="#0b675e"/>
    <path d="M63.58,37.14V.41h12.7v2H66.07V17.14h8.39v1.91H66.07V35.19H76.41v2Z" fill="#0b675e"/>
    <path d="M89.84,37.64a10.89,10.89,0,0,1-5.54-1.29A8.12,8.12,0,0,1,81,32.56a16.14,16.14,0,0,1-1.27-6.12l5.76-1.14A17.59,17.59,0,0,0,86,29.07a5.47,5.47,0,0,0,1.31,2.52,3.16,3.16,0,0,0,2.34.88,2.61,2.61,0,0,0,2.31-1A4.2,4.2,0,0,0,92.6,29a6.65,6.65,0,0,0-1.09-3.94A16.76,16.76,0,0,0,88.61,22L84,17.91a13.85,13.85,0,0,1-3.11-3.74,10.29,10.29,0,0,1-1.16-5.1,8.71,8.71,0,0,1,2.54-6.71A9.83,9.83,0,0,1,89.2,0a10.47,10.47,0,0,1,4.31.79A6.9,6.9,0,0,1,96.25,3a10,10,0,0,1,1.52,3.2A19.11,19.11,0,0,1,98.41,10l-5.72,1a20.4,20.4,0,0,0-.38-3.08,4.28,4.28,0,0,0-1-2.13A2.92,2.92,0,0,0,89.07,5a2.76,2.76,0,0,0-2.29,1A3.72,3.72,0,0,0,86,8.39a5.6,5.6,0,0,0,.77,3.06A12.23,12.23,0,0,0,89,13.92l4.58,4a18.71,18.71,0,0,1,3.88,4.47A11.32,11.32,0,0,1,99,28.62a9.32,9.32,0,0,1-1.15,4.67,8.36,8.36,0,0,1-3.22,3.19A9.75,9.75,0,0,1,89.84,37.64Z" fill="#0b675e"/>
    <path d="M112.83,37.64a11.45,11.45,0,0,1-6.35-1.5,7.59,7.59,0,0,1-3.13-4.26,22.54,22.54,0,0,1-.86-6.62V.41H109V26a20.76,20.76,0,0,0,.23,3.24,4.53,4.53,0,0,0,1.06,2.45,3.23,3.23,0,0,0,2.52.93,3.19,3.19,0,0,0,2.56-.93,4.83,4.83,0,0,0,1-2.45,19.54,19.54,0,0,0,.25-3.24V.41h6.49V25.26a22.54,22.54,0,0,1-.86,6.62,7.65,7.65,0,0,1-3.11,4.26A11.43,11.43,0,0,1,112.83,37.64Z" fill="#0b675e"/>
    <path d="M128.2,37.14V.41h6.71V32.52h8.89v4.62Z" fill="#0b675e"/>
  </g>
</svg>
