<svg xmlns="http://www.w3.org/2000/svg" width="1018.05" height="89.39" viewBox="0 0 1018.05 89.39">
  <g>
    <g>
      <path d="M312,37.53V7.22h2V37.53Z" fill="#0b675e"/>
      <path d="M319.67,37.53V7.22h1.61l10.29,25.6V7.22h1.8V37.53h-1.61L321.47,11.9V37.53Z" fill="#0b675e"/>
      <path d="M345,37.91a7.29,7.29,0,0,1-3.95-1,6.18,6.18,0,0,1-2.36-2.73,12.05,12.05,0,0,1-1-4.15l1.76-.56a17.15,17.15,0,0,0,.8,3.51,4.88,4.88,0,0,0,1.67,2.38,5.07,5.07,0,0,0,3.1.84,5.2,5.2,0,0,0,3.54-1.12,4.74,4.74,0,0,0,1.29-3.74,6.43,6.43,0,0,0-1-3.58,20.63,20.63,0,0,0-2.9-3.42l-5.54-5.5a10.32,10.32,0,0,1-2-2.84,7.18,7.18,0,0,1-.63-2.92,5.77,5.77,0,0,1,1.85-4.61,7.08,7.08,0,0,1,4.81-1.61,9.22,9.22,0,0,1,2.77.4,5.39,5.39,0,0,1,2.15,1.27,6,6,0,0,1,1.44,2.34,13.51,13.51,0,0,1,.67,3.59l-1.72.41a12.22,12.22,0,0,0-.71-3.55,4.26,4.26,0,0,0-1.65-2.12,5.37,5.37,0,0,0-2.92-.69A5.52,5.52,0,0,0,341,9.58,4,4,0,0,0,339.62,13a5.61,5.61,0,0,0,.46,2.24,8.23,8.23,0,0,0,1.74,2.36l5.47,5.39a23.12,23.12,0,0,1,3.16,3.83,8.08,8.08,0,0,1,1.33,4.48,7.45,7.45,0,0,1-.86,3.76,5.28,5.28,0,0,1-2.4,2.18A8.15,8.15,0,0,1,345,37.91Z" fill="#0b675e"/>
      <path d="M359.86,37.53V8.87H353.8V7.22h14V8.87h-5.91V37.53Z" fill="#0b675e"/>
      <path d="M371.35,37.53V7.22h7.33a7.28,7.28,0,0,1,4.14,1,5,5,0,0,1,2,2.7,12.5,12.5,0,0,1,.54,3.8,14.55,14.55,0,0,1-.35,3.21,5.83,5.83,0,0,1-1.31,2.6,4.57,4.57,0,0,1-2.79,1.37l4.86,15.64h-2L379,22.26h-5.65V37.53Zm2-16.84h5.24a5,5,0,0,0,2.95-.73A3.77,3.77,0,0,0,383,17.89a11.52,11.52,0,0,0,.39-3.18,8.18,8.18,0,0,0-1-4.38c-.63-1-1.91-1.5-3.83-1.5h-5.2Z" fill="#0b675e"/>
      <path d="M397.54,37.94a9,9,0,0,1-4.6-1,5.28,5.28,0,0,1-2.3-2.69,10.59,10.59,0,0,1-.66-3.84V7.22h2V30.46a8.9,8.9,0,0,0,.47,3,3.88,3.88,0,0,0,1.68,2.08,6.45,6.45,0,0,0,3.39.75,6.09,6.09,0,0,0,3.27-.77,4.18,4.18,0,0,0,1.74-2.07,7.92,7.92,0,0,0,.53-3V7.22h2v23.2a10,10,0,0,1-.71,3.84A5.6,5.6,0,0,1,402,37,8.56,8.56,0,0,1,397.54,37.94Z" fill="#0b675e"/>
      <path d="M409.93,37.53l.89-30.31h2l6.4,27.36,6.51-27.36h2.1l.86,30.31H427l-.75-25.41L420,37.53h-1.5l-6.1-25.37-.75,25.37Z" fill="#0b675e"/>
      <path d="M433.91,37.53V7.22h10.48V8.87H436V21h6.92V22.6H436V35.92h8.53v1.61Z" fill="#0b675e"/>
      <path d="M448.65,37.53V7.22h1.61l10.29,25.6V7.22h1.8V37.53h-1.61L450.45,11.9V37.53Z" fill="#0b675e"/>
      <path d="M471.93,37.53V8.87h-6.06V7.22h14V8.87H474V37.53Z" fill="#0b675e"/>
      <path d="M490.26,37.94a7.66,7.66,0,0,1-4.58-1.18,6,6,0,0,1-2.26-3.21,15.33,15.33,0,0,1-.64-4.63V15.68a14.23,14.23,0,0,1,.67-4.57,6,6,0,0,1,2.3-3.1,9.57,9.57,0,0,1,9,0,6,6,0,0,1,2.3,3.1,14.22,14.22,0,0,1,.68,4.57V29a15.4,15.4,0,0,1-.64,4.6,6.06,6.06,0,0,1-2.26,3.2A7.71,7.71,0,0,1,490.26,37.94Zm0-1.68a5.62,5.62,0,0,0,3.35-.86A4.36,4.36,0,0,0,495.24,33a13,13,0,0,0,.45-3.61v-14a12.8,12.8,0,0,0-.45-3.59,4.34,4.34,0,0,0-1.61-2.38,7.14,7.14,0,0,0-6.72,0,4.3,4.3,0,0,0-1.62,2.38,12.8,12.8,0,0,0-.45,3.59v14a13,13,0,0,0,.45,3.61,4.4,4.4,0,0,0,1.62,2.42A5.66,5.66,0,0,0,490.26,36.26Z" fill="#0b675e"/>
      <path d="M516.87,37.53V7.22h6.62a8.24,8.24,0,0,1,4.71,1.16,6.07,6.07,0,0,1,2.36,3.15,13.6,13.6,0,0,1,.68,4.41V28.51a14.62,14.62,0,0,1-.68,4.62,6.24,6.24,0,0,1-2.3,3.22,7.66,7.66,0,0,1-4.58,1.18Zm2-1.61h4.68a5.44,5.44,0,0,0,3.66-1.05,4.91,4.91,0,0,0,1.57-2.78,18.06,18.06,0,0,0,.38-3.8V16.09a14.56,14.56,0,0,0-.45-3.84A4.35,4.35,0,0,0,527,9.75a6,6,0,0,0-3.55-.88h-4.6Z" fill="#0b675e"/>
      <path d="M536.18,37.53V7.22h10.47V8.87h-8.42V21h6.93V22.6h-6.93V35.92h8.54v1.61Z" fill="#0b675e"/>
      <path d="M556.38,37.53l6.36-30.31h2.36l6.4,30.31h-2.06l-1.57-8.38H560l-1.61,8.38Zm3.93-9.88h7.3l-3.67-18Z" fill="#0b675e"/>
      <path d="M579.36,37.53,572,7.22h2L580.33,34,586.2,7.22h2l-6.93,30.31Z" fill="#0b675e"/>
      <path d="M588.71,37.53l6.36-30.31h2.36l6.4,30.31h-2.06l-1.57-8.38h-7.86l-1.61,8.38Zm3.93-9.88h7.3l-3.67-18Z" fill="#0b675e"/>
      <path d="M607.83,37.53V7.22h2v28.7H619v1.61Z" fill="#0b675e"/>
      <path d="M621.83,37.53V7.22h2V37.53Z" fill="#0b675e"/>
      <path d="M627.89,37.53l6.36-30.31h2.36L643,37.53h-2l-1.58-8.38h-7.85l-1.61,8.38Zm3.93-9.88h7.29l-3.66-18Z" fill="#0b675e"/>
      <path d="M653.67,37.94a7.38,7.38,0,0,1-4.59-1.23,6.23,6.23,0,0,1-2.18-3.31,16.56,16.56,0,0,1-.6-4.59V15.94a15.78,15.78,0,0,1,.63-4.66,6.2,6.2,0,0,1,2.25-3.22,7.51,7.51,0,0,1,4.49-1.18,7.14,7.14,0,0,1,4.15,1,5.64,5.64,0,0,1,2.13,3,14.22,14.22,0,0,1,.64,4.51V17h-1.94V15.42a14,14,0,0,0-.42-3.69,4.21,4.21,0,0,0-1.49-2.34,5,5,0,0,0-3.07-.82,5.33,5.33,0,0,0-3.33.9,4.38,4.38,0,0,0-1.57,2.5,15,15,0,0,0-.41,3.75V29.11A14.28,14.28,0,0,0,648.8,33a4.45,4.45,0,0,0,1.61,2.45,5.42,5.42,0,0,0,3.26.86,4.89,4.89,0,0,0,3.1-.86A4.27,4.27,0,0,0,658.25,33a14.8,14.8,0,0,0,.4-3.61V27.54h1.94V29a16.18,16.18,0,0,1-.6,4.6,6,6,0,0,1-2.09,3.16A6.87,6.87,0,0,1,653.67,37.94ZM653,44.49l-.52,0-.56,0V43.33l.43.06.39,0a3.81,3.81,0,0,0,1.93-.38,1.3,1.3,0,0,0,.62-1.2,1.47,1.47,0,0,0-.28-.89,2,2,0,0,0-.85-.62,4.59,4.59,0,0,0-1.42-.32V37.53h1.09v1.76a3.37,3.37,0,0,1,2.3.77,2.65,2.65,0,0,1,.26,3.23,2.58,2.58,0,0,1-1.27.9A6.4,6.4,0,0,1,653,44.49Z" fill="#0b675e"/>
      <path d="M663.62,37.53,670,7.22h2.36l6.4,30.31h-2.06l-1.57-8.38h-7.86l-1.61,8.38Zm9.51-34.39a2.54,2.54,0,0,1-1.48-.45c-.44-.3-.84-.59-1.22-.88a1.92,1.92,0,0,0-1.16-.43,1,1,0,0,0-.84.38,1.64,1.64,0,0,0-.32,1.08h-1.34a4.66,4.66,0,0,1,.16-1,3.15,3.15,0,0,1,.66-1.25A1.82,1.82,0,0,1,669.08,0a2.86,2.86,0,0,1,1.58.43c.45.29.86.58,1.25.88a1.92,1.92,0,0,0,1.18.45,1.09,1.09,0,0,0,.9-.38,2.22,2.22,0,0,0,.33-1.3h1.28a6.4,6.4,0,0,1-.15,1.16,2.75,2.75,0,0,1-.68,1.32A2.1,2.1,0,0,1,673.13,3.14Zm-5.58,24.51h7.3l-3.67-18Z" fill="#0b675e"/>
      <path d="M689.59,37.94A7.66,7.66,0,0,1,685,36.76a6.06,6.06,0,0,1-2.27-3.21,15.67,15.67,0,0,1-.63-4.63V15.68a14.23,14.23,0,0,1,.67-4.57,6,6,0,0,1,2.3-3.1,9.57,9.57,0,0,1,9,0,6,6,0,0,1,2.3,3.1,14.23,14.23,0,0,1,.67,4.57V29a15.41,15.41,0,0,1-.63,4.6,6.07,6.07,0,0,1-2.27,3.2A7.66,7.66,0,0,1,689.59,37.94Zm0-1.68a5.64,5.64,0,0,0,3.35-.86A4.36,4.36,0,0,0,694.57,33a13,13,0,0,0,.45-3.61v-14a12.8,12.8,0,0,0-.45-3.59A4.34,4.34,0,0,0,693,9.41a7.14,7.14,0,0,0-6.72,0,4.31,4.31,0,0,0-1.63,2.38,12.8,12.8,0,0,0-.45,3.59v14a13,13,0,0,0,.45,3.61,4.42,4.42,0,0,0,1.63,2.42A5.64,5.64,0,0,0,689.59,36.26Z" fill="#0b675e"/>
      <path d="M709.12,37.53V7.22h6.63a8.24,8.24,0,0,1,4.71,1.16,6.13,6.13,0,0,1,2.36,3.15,13.61,13.61,0,0,1,.67,4.41V28.51a14.63,14.63,0,0,1-.67,4.62,6.3,6.3,0,0,1-2.3,3.22,7.71,7.71,0,0,1-4.59,1.18Zm2-1.61h4.68a5.45,5.45,0,0,0,3.67-1.05,4.91,4.91,0,0,0,1.57-2.78,18.08,18.08,0,0,0,.37-3.8V16.09a14.56,14.56,0,0,0-.45-3.84,4.34,4.34,0,0,0-1.68-2.5,6,6,0,0,0-3.55-.88h-4.61Z" fill="#0b675e"/>
      <path d="M726.86,37.53l6.36-30.31h2.36L742,37.53h-2.06l-1.57-8.38h-7.86l-1.61,8.38Zm3.93-9.88h7.29l-3.66-18Z" fill="#0b675e"/>
      <path d="M759.79,37.94a7.38,7.38,0,0,1-4.59-1.23A6.31,6.31,0,0,1,753,33.4a17,17,0,0,1-.59-4.59V15.94a15.78,15.78,0,0,1,.63-4.66,6.15,6.15,0,0,1,2.25-3.22,7.51,7.51,0,0,1,4.49-1.18,7.14,7.14,0,0,1,4.15,1,5.64,5.64,0,0,1,2.13,3,14.22,14.22,0,0,1,.64,4.51V17h-2V15.42a14,14,0,0,0-.41-3.69,4.21,4.21,0,0,0-1.49-2.34,5,5,0,0,0-3.07-.82,5.33,5.33,0,0,0-3.33.9,4.38,4.38,0,0,0-1.57,2.5,15,15,0,0,0-.42,3.75V29.11a14.25,14.25,0,0,0,.45,3.84,4.45,4.45,0,0,0,1.61,2.45,5.42,5.42,0,0,0,3.26.86,4.91,4.91,0,0,0,3.1-.86A4.27,4.27,0,0,0,764.37,33a14.83,14.83,0,0,0,.39-3.61V27.54h2V29a16.18,16.18,0,0,1-.6,4.6A6,6,0,0,1,764,36.8,6.87,6.87,0,0,1,759.79,37.94Z" fill="#0b675e"/>
      <path d="M778.2,37.94a7.71,7.71,0,0,1-4.59-1.18,6,6,0,0,1-2.26-3.21,15.33,15.33,0,0,1-.64-4.63V15.68a14.22,14.22,0,0,1,.68-4.57,6,6,0,0,1,2.3-3.1,9.57,9.57,0,0,1,9,0,6,6,0,0,1,2.3,3.1,14.23,14.23,0,0,1,.67,4.57V29a15.08,15.08,0,0,1-.64,4.6,6,6,0,0,1-2.26,3.2A7.68,7.68,0,0,1,778.2,37.94Zm0-1.68a5.66,5.66,0,0,0,3.35-.86A4.4,4.4,0,0,0,783.17,33a13,13,0,0,0,.45-3.61v-14a12.8,12.8,0,0,0-.45-3.59,4.28,4.28,0,0,0-1.61-2.38,7.12,7.12,0,0,0-6.71,0,4.26,4.26,0,0,0-1.63,2.38,12.8,12.8,0,0,0-.45,3.59v14a13,13,0,0,0,.45,3.61,4.36,4.36,0,0,0,1.63,2.42A5.62,5.62,0,0,0,778.2,36.26Z" fill="#0b675e"/>
      <path d="M797.51,37.94a7.69,7.69,0,0,1-4.59-1.18,6,6,0,0,1-2.26-3.21,15.33,15.33,0,0,1-.64-4.63V15.68a14.51,14.51,0,0,1,.67-4.57A6,6,0,0,1,793,8a9.55,9.55,0,0,1,9,0,5.92,5.92,0,0,1,2.3,3.1,14.22,14.22,0,0,1,.68,4.57V29a15.08,15.08,0,0,1-.64,4.6,6.06,6.06,0,0,1-2.26,3.2A7.68,7.68,0,0,1,797.51,37.94Zm0-1.68a5.61,5.61,0,0,0,3.34-.86A4.36,4.36,0,0,0,802.48,33a13,13,0,0,0,.45-3.61v-14a12.8,12.8,0,0,0-.45-3.59,4.28,4.28,0,0,0-1.61-2.38,7.12,7.12,0,0,0-6.71,0,4.26,4.26,0,0,0-1.63,2.38,12.8,12.8,0,0,0-.45,3.59v14a13,13,0,0,0,.45,3.61,4.36,4.36,0,0,0,1.63,2.42A5.62,5.62,0,0,0,797.51,36.26Z" fill="#0b675e"/>
      <path d="M810,37.53V7.22h7.33a7.24,7.24,0,0,1,4.13,1,5.07,5.07,0,0,1,2,2.7,12.5,12.5,0,0,1,.54,3.8,14,14,0,0,1-.36,3.21,5.63,5.63,0,0,1-1.31,2.6,4.52,4.52,0,0,1-2.78,1.37l4.86,15.64h-2l-4.71-15.27H812V37.53Zm2-16.84h5.23a5,5,0,0,0,3-.73,3.76,3.76,0,0,0,1.4-2.07,11.13,11.13,0,0,0,.4-3.18,8.18,8.18,0,0,0-1-4.38c-.63-1-1.91-1.5-3.83-1.5H812Z" fill="#0b675e"/>
      <path d="M829,37.53V7.22h6.63a8.24,8.24,0,0,1,4.71,1.16,6.13,6.13,0,0,1,2.36,3.15,13.61,13.61,0,0,1,.67,4.41V28.51a14.63,14.63,0,0,1-.67,4.62,6.3,6.3,0,0,1-2.3,3.22,7.71,7.71,0,0,1-4.59,1.18Zm2-1.61h4.68a5.45,5.45,0,0,0,3.67-1.05,4.91,4.91,0,0,0,1.57-2.78,18.08,18.08,0,0,0,.37-3.8V16.09a14.59,14.59,0,0,0-.44-3.84,4.35,4.35,0,0,0-1.69-2.5,6,6,0,0,0-3.55-.88H831Z" fill="#0b675e"/>
      <path d="M848.28,37.53V7.22h10.48V8.87h-8.42V21h6.92V22.6h-6.92V35.92h8.53v1.61Z" fill="#0b675e"/>
      <path d="M863,37.53V7.22h1.61l10.29,25.6V7.22h1.8V37.53h-1.61L864.82,11.9V37.53Z" fill="#0b675e"/>
      <path d="M880.69,37.53l6.36-30.31h2.35l6.4,30.31h-2l-1.58-8.38h-7.85l-1.61,8.38Zm3.92-9.88h7.3l-3.67-18Z" fill="#0b675e"/>
      <path d="M906.47,37.94a7.38,7.38,0,0,1-4.59-1.23,6.31,6.31,0,0,1-2.19-3.31,17,17,0,0,1-.59-4.59V15.94a15.78,15.78,0,0,1,.63-4.66A6.15,6.15,0,0,1,902,8.06a7.51,7.51,0,0,1,4.49-1.18,7.14,7.14,0,0,1,4.15,1,5.64,5.64,0,0,1,2.13,3,14.22,14.22,0,0,1,.64,4.51V17h-1.95V15.42a14,14,0,0,0-.41-3.69,4.21,4.21,0,0,0-1.49-2.34,5,5,0,0,0-3.07-.82,5.33,5.33,0,0,0-3.33.9,4.45,4.45,0,0,0-1.58,2.5,15.48,15.48,0,0,0-.41,3.75V29.11A14.25,14.25,0,0,0,901.6,33a4.45,4.45,0,0,0,1.61,2.45,5.4,5.4,0,0,0,3.26.86,4.91,4.91,0,0,0,3.1-.86A4.27,4.27,0,0,0,911.05,33a14.83,14.83,0,0,0,.39-3.61V27.54h1.95V29a16.18,16.18,0,0,1-.6,4.6,6,6,0,0,1-2.09,3.16A6.87,6.87,0,0,1,906.47,37.94Zm-.68,6.55-.52,0-.56,0V43.33l.43.06.39,0a3.83,3.83,0,0,0,1.93-.38,1.3,1.3,0,0,0,.62-1.2,1.47,1.47,0,0,0-.28-.89,2,2,0,0,0-.85-.62,4.59,4.59,0,0,0-1.42-.32V37.53h1.09v1.76a3.37,3.37,0,0,1,2.3.77,2.65,2.65,0,0,1,.26,3.23,2.58,2.58,0,0,1-1.27.9A6.4,6.4,0,0,1,905.79,44.49Z" fill="#0b675e"/>
      <path d="M916.42,37.53l6.36-30.31h2.36l6.4,30.31h-2.06l-1.57-8.38h-7.86l-1.61,8.38Zm9.51-34.39a2.54,2.54,0,0,1-1.48-.45c-.44-.3-.84-.59-1.22-.88a1.92,1.92,0,0,0-1.16-.43,1,1,0,0,0-.84.38,1.64,1.64,0,0,0-.32,1.08h-1.35a4.83,4.83,0,0,1,.17-1,3,3,0,0,1,.66-1.25A1.82,1.82,0,0,1,921.88,0a2.86,2.86,0,0,1,1.58.43c.44.29.86.58,1.25.88a1.92,1.92,0,0,0,1.18.45,1.09,1.09,0,0,0,.9-.38,2.3,2.3,0,0,0,.33-1.3h1.28a6.61,6.61,0,0,1-.16,1.16,2.65,2.65,0,0,1-.67,1.32A2.1,2.1,0,0,1,925.93,3.14Zm-5.58,24.51h7.3L924,9.69Z" fill="#0b675e"/>
      <path d="M942.39,37.94a7.66,7.66,0,0,1-4.58-1.18,6.06,6.06,0,0,1-2.27-3.21,15.65,15.65,0,0,1-.64-4.63V15.68a14.22,14.22,0,0,1,.68-4.57,6,6,0,0,1,2.3-3.1,9.57,9.57,0,0,1,9,0,6,6,0,0,1,2.3,3.1,14.23,14.23,0,0,1,.67,4.57V29a15.41,15.41,0,0,1-.63,4.6,6.07,6.07,0,0,1-2.27,3.2A7.66,7.66,0,0,1,942.39,37.94Zm0-1.68a5.64,5.64,0,0,0,3.35-.86A4.42,4.42,0,0,0,947.37,33a13.36,13.36,0,0,0,.44-3.61v-14a13.2,13.2,0,0,0-.44-3.59,4.34,4.34,0,0,0-1.61-2.38,7.14,7.14,0,0,0-6.72,0,4.26,4.26,0,0,0-1.63,2.38,12.8,12.8,0,0,0-.45,3.59v14a13,13,0,0,0,.45,3.61A4.36,4.36,0,0,0,939,35.4,5.64,5.64,0,0,0,942.39,36.26Z" fill="#0b675e"/>
      <path d="M961.92,37.53V7.22h6.62a8.27,8.27,0,0,1,4.72,1.16,6.13,6.13,0,0,1,2.36,3.15,13.61,13.61,0,0,1,.67,4.41V28.51a14.63,14.63,0,0,1-.67,4.62,6.26,6.26,0,0,1-2.31,3.22,7.66,7.66,0,0,1-4.58,1.18Zm2-1.61h4.68a5.45,5.45,0,0,0,3.67-1.05,5,5,0,0,0,1.57-2.78,18.08,18.08,0,0,0,.37-3.8V16.09a14.56,14.56,0,0,0-.45-3.84,4.39,4.39,0,0,0-1.68-2.5,6.06,6.06,0,0,0-3.56-.88h-4.6Z" fill="#0b675e"/>
      <path d="M979.66,37.53,986,7.22h2.36l6.39,30.31h-2l-1.57-8.38h-7.86l-1.61,8.38Zm3.93-9.88h7.29l-3.66-18Z" fill="#0b675e"/>
      <path d="M1004.84,37.91a7.32,7.32,0,0,1-4-1,6.16,6.16,0,0,1-2.35-2.73,12.28,12.28,0,0,1-1-4.15l1.76-.56a17.13,17.13,0,0,0,.81,3.51,4.87,4.87,0,0,0,1.66,2.38,5.11,5.11,0,0,0,3.11.84,5.19,5.19,0,0,0,3.53-1.12,4.74,4.74,0,0,0,1.29-3.74,6.5,6.5,0,0,0-1-3.58,21.13,21.13,0,0,0-2.9-3.42l-5.54-5.5a9.91,9.91,0,0,1-2-2.84,7,7,0,0,1-.64-2.92,5.8,5.8,0,0,1,1.85-4.61,7.1,7.1,0,0,1,4.81-1.61,9.17,9.17,0,0,1,2.77.4,5.39,5.39,0,0,1,2.15,1.27,6,6,0,0,1,1.44,2.34,13.48,13.48,0,0,1,.68,3.59l-1.72.41a11.88,11.88,0,0,0-.72-3.55,4.3,4.3,0,0,0-1.64-2.12,5.42,5.42,0,0,0-2.92-.69,5.52,5.52,0,0,0-3.44,1.05A3.94,3.94,0,0,0,999.45,13a5.63,5.63,0,0,0,.47,2.24,7.87,7.87,0,0,0,1.74,2.36l5.46,5.39a22.17,22.17,0,0,1,3.16,3.83,8,8,0,0,1,1.33,4.48,7.34,7.34,0,0,1-.86,3.76,5.26,5.26,0,0,1-2.39,2.18A8.23,8.23,0,0,1,1004.84,37.91Z" fill="#0b675e"/>
      <path d="M312,82.43V52.12h7.34a7.26,7.26,0,0,1,4.13,1,5.05,5.05,0,0,1,2,2.69,12.55,12.55,0,0,1,.54,3.8,14.12,14.12,0,0,1-.36,3.22,5.68,5.68,0,0,1-1.31,2.6,4.56,4.56,0,0,1-2.78,1.36l4.86,15.64h-2l-4.71-15.26H314V82.43Zm2-16.84h5.23a5.07,5.07,0,0,0,3-.72,3.79,3.79,0,0,0,1.4-2.08,11.13,11.13,0,0,0,.4-3.18,8.18,8.18,0,0,0-1-4.38c-.63-1-1.91-1.5-3.83-1.5H314Z" fill="#0b675e"/>
      <path d="M330.94,82.43V52.12h10.47v1.65H333V65.93h6.93V67.5H333V80.82h8.54v1.61Z" fill="#0b675e"/>
      <path d="M345.68,82.43V52.12h6.62A8.29,8.29,0,0,1,357,53.28a6.15,6.15,0,0,1,2.35,3.15,13.6,13.6,0,0,1,.68,4.41V73.42a14.67,14.67,0,0,1-.68,4.62,6.22,6.22,0,0,1-2.3,3.21,7.66,7.66,0,0,1-4.58,1.18Zm2-1.61h4.68a5.42,5.42,0,0,0,3.66-1A5,5,0,0,0,357.62,77a18.77,18.77,0,0,0,.37-3.8V61a14.43,14.43,0,0,0-.45-3.83,4.41,4.41,0,0,0-1.68-2.51,6.08,6.08,0,0,0-3.56-.88h-4.6Z" fill="#0b675e"/>
      <path d="M365,82.43V52.12h10.47v1.65H367V65.93H374V67.5H367V80.82h8.54v1.61Z" fill="#0b675e"/>
      <path d="M385.79,82.81a7.32,7.32,0,0,1-4-1,6.05,6.05,0,0,1-2.35-2.73,12.22,12.22,0,0,1-1-4.15l1.76-.56a18.09,18.09,0,0,0,.81,3.52,4.89,4.89,0,0,0,1.66,2.37,5.11,5.11,0,0,0,3.11.84A5.17,5.17,0,0,0,389.36,80a4.7,4.7,0,0,0,1.3-3.74,6.48,6.48,0,0,0-1-3.57,21.16,21.16,0,0,0-2.9-3.43l-5.54-5.5a10,10,0,0,1-2-2.84,7,7,0,0,1-.64-2.92,5.77,5.77,0,0,1,1.85-4.6,7,7,0,0,1,4.81-1.61,9.18,9.18,0,0,1,2.77.39,5.51,5.51,0,0,1,2.15,1.27,6,6,0,0,1,1.44,2.34,13.48,13.48,0,0,1,.68,3.59l-1.72.41a11.88,11.88,0,0,0-.72-3.55,4.22,4.22,0,0,0-1.64-2.11,5.41,5.41,0,0,0-2.92-.7,5.52,5.52,0,0,0-3.44,1,3.94,3.94,0,0,0-1.39,3.37,5.63,5.63,0,0,0,.47,2.24,7.87,7.87,0,0,0,1.74,2.36l5.46,5.39a22.77,22.77,0,0,1,3.17,3.84,8.06,8.06,0,0,1,1.32,4.47,7.34,7.34,0,0,1-.86,3.76,5.33,5.33,0,0,1-2.39,2.19A8.35,8.35,0,0,1,385.79,82.81Z" fill="#0b675e"/>
      <path d="M403.71,82.43V52.12h6.63a8.24,8.24,0,0,1,4.71,1.16,6.11,6.11,0,0,1,2.36,3.15,13.61,13.61,0,0,1,.67,4.41V73.42a14.68,14.68,0,0,1-.67,4.62,6.27,6.27,0,0,1-2.3,3.21,7.69,7.69,0,0,1-4.59,1.18Zm2-1.61h4.67a5.45,5.45,0,0,0,3.67-1A5,5,0,0,0,415.65,77a18.06,18.06,0,0,0,.38-3.8V61a14.43,14.43,0,0,0-.45-3.83,4.38,4.38,0,0,0-1.69-2.51,6,6,0,0,0-3.55-.88h-4.6Z" fill="#0b675e"/>
      <path d="M423,82.43V52.12H433.5v1.65h-8.42V65.93H432V67.5h-6.92V80.82h8.53v1.61Z" fill="#0b675e"/>
      <path d="M443.23,82.43l6.36-30.31H452l6.4,30.31h-2.06l-1.57-8.38h-7.86l-1.61,8.38Zm3.93-9.88h7.29l-3.66-18Z" fill="#0b675e"/>
      <path d="M464.93,82.43V53.77h-6.06V52.12h14v1.65H467V82.43Z" fill="#0b675e"/>
      <path d="M476.38,82.43V52.12h10.48v1.65h-8.42V65.93h6.92V67.5h-6.92V80.82H487v1.61Z" fill="#0b675e"/>
      <path d="M491.12,82.43V52.12h1.61L503,77.72V52.12h1.8V82.43h-1.61L492.92,56.8V82.43Z" fill="#0b675e"/>
      <path d="M517.13,82.84a7.35,7.35,0,0,1-4.58-1.23,6.27,6.27,0,0,1-2.19-3.31,16.51,16.51,0,0,1-.6-4.59V60.84a15.83,15.83,0,0,1,.63-4.66A6.17,6.17,0,0,1,512.64,53a7.44,7.44,0,0,1,4.49-1.18,7.21,7.21,0,0,1,4.15,1,5.75,5.75,0,0,1,2.14,3,14.53,14.53,0,0,1,.63,4.51v1.53h-1.94V60.32a14,14,0,0,0-.42-3.69,4.21,4.21,0,0,0-1.49-2.34,5.07,5.07,0,0,0-3.07-.82,5.33,5.33,0,0,0-3.33.9,4.43,4.43,0,0,0-1.57,2.51,14.91,14.91,0,0,0-.41,3.74V74a14.25,14.25,0,0,0,.45,3.84,4.38,4.38,0,0,0,1.6,2.45,5.35,5.35,0,0,0,3.26.86,4.88,4.88,0,0,0,3.11-.86,4.31,4.31,0,0,0,1.47-2.41,14.43,14.43,0,0,0,.4-3.61V72.44h1.94v1.5a16.13,16.13,0,0,1-.6,4.6,5.94,5.94,0,0,1-2.09,3.16A6.87,6.87,0,0,1,517.13,82.84Zm-.67,6.55h-.53l-.56-.06V88.23l.43.06.39,0a3.81,3.81,0,0,0,1.93-.38,1.29,1.29,0,0,0,.62-1.19,1.44,1.44,0,0,0-.28-.9,2.05,2.05,0,0,0-.84-.62,4.73,4.73,0,0,0-1.43-.32V82.43h1.09v1.76a3.42,3.42,0,0,1,2.3.77,2.66,2.66,0,0,1,.26,3.24,2.59,2.59,0,0,1-1.27.89A6.37,6.37,0,0,1,516.46,89.39Z" fill="#0b675e"/>
      <path d="M527.08,82.43l6.36-30.31h2.36l6.4,30.31h-2.06l-1.57-8.38h-7.86l-1.61,8.38Zm9.51-34.38a2.56,2.56,0,0,1-1.48-.45c-.44-.3-.84-.6-1.22-.88a1.86,1.86,0,0,0-1.16-.43,1,1,0,0,0-.84.37,1.65,1.65,0,0,0-.32,1.09h-1.34a4.49,4.49,0,0,1,.16-1,3.19,3.19,0,0,1,.66-1.26,1.86,1.86,0,0,1,1.5-.58,2.93,2.93,0,0,1,1.57.43c.45.29.86.58,1.25.88a1.92,1.92,0,0,0,1.18.45,1.08,1.08,0,0,0,.9-.37,2.28,2.28,0,0,0,.33-1.31h1.28a6.4,6.4,0,0,1-.15,1.16,2.78,2.78,0,0,1-.68,1.33A2.12,2.12,0,0,1,536.59,48.05ZM531,72.55h7.3l-3.67-18Z" fill="#0b675e"/>
      <path d="M553.05,82.84a7.73,7.73,0,0,1-4.58-1.17,6.12,6.12,0,0,1-2.27-3.22,15.64,15.64,0,0,1-.63-4.62V60.58a14.12,14.12,0,0,1,.67-4.56,6,6,0,0,1,2.3-3.11,9.64,9.64,0,0,1,9,0,6,6,0,0,1,2.3,3.11,14.12,14.12,0,0,1,.67,4.56V73.86a15.48,15.48,0,0,1-.63,4.61,6.19,6.19,0,0,1-2.26,3.2A7.79,7.79,0,0,1,553.05,82.84Zm0-1.68a5.57,5.57,0,0,0,3.35-.86A4.37,4.37,0,0,0,558,77.89a13,13,0,0,0,.45-3.61v-14a12.8,12.8,0,0,0-.45-3.59,4.41,4.41,0,0,0-1.61-2.38,7.14,7.14,0,0,0-6.72,0,4.38,4.38,0,0,0-1.63,2.38,12.82,12.82,0,0,0-.44,3.59v14a13.07,13.07,0,0,0,.44,3.61,4.43,4.43,0,0,0,1.63,2.41A5.57,5.57,0,0,0,553.05,81.16Z" fill="#0b675e"/>
      <path d="M571,82.43l6.37-30.31h2.35l6.4,30.31H584l-1.57-8.38H574.6L573,82.43Zm3.93-9.88h7.3l-3.67-18ZM578,50.33l-3-7.26h2l2,7.26Z" fill="#0b675e"/>
      <path d="M603.23,82.81a7.32,7.32,0,0,1-4-1,6.13,6.13,0,0,1-2.36-2.73,12.46,12.46,0,0,1-1-4.15l1.76-.56a17.39,17.39,0,0,0,.81,3.52,4.89,4.89,0,0,0,1.66,2.37,5.09,5.09,0,0,0,3.11.84A5.19,5.19,0,0,0,606.8,80a4.73,4.73,0,0,0,1.29-3.74,6.4,6.4,0,0,0-1-3.57,20.19,20.19,0,0,0-2.9-3.43l-5.53-5.5a9.78,9.78,0,0,1-2-2.84A7,7,0,0,1,596,58a5.77,5.77,0,0,1,1.85-4.6,7,7,0,0,1,4.81-1.61,9.18,9.18,0,0,1,2.77.39,5.51,5.51,0,0,1,2.15,1.27A6,6,0,0,1,609,55.79a13.89,13.89,0,0,1,.68,3.59l-1.73.41a11.9,11.9,0,0,0-.71-3.55,4.22,4.22,0,0,0-1.64-2.11,5.41,5.41,0,0,0-2.92-.7,5.52,5.52,0,0,0-3.44,1,3.94,3.94,0,0,0-1.39,3.37,5.63,5.63,0,0,0,.47,2.24,7.87,7.87,0,0,0,1.74,2.36l5.46,5.39a22.7,22.7,0,0,1,3.16,3.84A8,8,0,0,1,610,76.15a7.34,7.34,0,0,1-.86,3.76,5.33,5.33,0,0,1-2.39,2.19A8.38,8.38,0,0,1,603.23,82.81Z" fill="#0b675e"/>
      <path d="M612.47,82.43l6.36-30.31h2.36l6.4,30.31h-2.06L624,74.05H616.1l-1.61,8.38Zm3.93-9.88h7.3l-3.67-18Z" fill="#0b675e"/>
      <path d="M638.78,82.84a9,9,0,0,1-4.61-1,5.37,5.37,0,0,1-2.3-2.69,10.77,10.77,0,0,1-.65-3.84V52.12h2V75.36a8.75,8.75,0,0,0,.47,3,3.89,3.89,0,0,0,1.68,2.07,6.45,6.45,0,0,0,3.39.75,6,6,0,0,0,3.27-.77,4.28,4.28,0,0,0,1.74-2.07,7.93,7.93,0,0,0,.52-3V52.12h2v23.2a10,10,0,0,1-.71,3.84,5.71,5.71,0,0,1-2.34,2.69A8.61,8.61,0,0,1,638.78,82.84Zm-.49-32.51,2.4-7.26h2l-3.37,7.26Z" fill="#0b675e"/>
      <path d="M651.54,82.43V52.12h6.62a8.24,8.24,0,0,1,4.71,1.16,6.11,6.11,0,0,1,2.36,3.15,13.61,13.61,0,0,1,.67,4.41V73.42a14.68,14.68,0,0,1-.67,4.62,6.27,6.27,0,0,1-2.3,3.21,7.68,7.68,0,0,1-4.58,1.18Zm2-1.61h4.67a5.45,5.45,0,0,0,3.67-1A5,5,0,0,0,663.47,77a18.06,18.06,0,0,0,.38-3.8V61a14.43,14.43,0,0,0-.45-3.83,4.38,4.38,0,0,0-1.69-2.51,6,6,0,0,0-3.55-.88h-4.6Z" fill="#0b675e"/>
      <path d="M670.84,82.43V52.12h10.48v1.65H672.9V65.93h6.92V67.5H672.9V80.82h8.53v1.61Z" fill="#0b675e"/>
      <path d="M692.66,82.43V52.12h7.11a7.62,7.62,0,0,1,4.26,1,5.49,5.49,0,0,1,2.16,2.79,13,13,0,0,1,0,7.86,6.13,6.13,0,0,1-2.16,3A6.8,6.8,0,0,1,699.81,68h-5.13V82.43Zm2-16.05h4.68a6.37,6.37,0,0,0,3-.63,4,4,0,0,0,1.76-2,10.22,10.22,0,0,0,.58-3.77,10.88,10.88,0,0,0-.53-3.79,3.3,3.3,0,0,0-1.68-1.91,7.45,7.45,0,0,0-3.11-.54h-4.71Z" fill="#0b675e"/>
      <path d="M710.77,82.43V52.12h10.48v1.65h-8.42V65.93h6.92V67.5h-6.92V80.82h8.53v1.61Z" fill="#0b675e"/>
      <path d="M725.51,82.43V52.12h2v28.7h9.17v1.61Z" fill="#0b675e"/>
      <path d="M737.86,82.43l6.36-30.31h2.36L753,82.43h-2.06l-1.57-8.38h-7.86l-1.61,8.38Zm3.93-9.88h7.29l-3.66-18Z" fill="#0b675e"/>
      <path d="M762.44,82.43l6.36-30.31h2.36l6.4,30.31H775.5l-1.57-8.38h-7.86l-1.61,8.38Zm3.93-9.88h7.3l-3.67-18Z" fill="#0b675e"/>
      <path d="M784.15,82.43V53.77h-6.07V52.12h14v1.65h-5.91V82.43Z" fill="#0b675e"/>
      <path d="M795.59,82.43V52.12h10.48v1.65h-8.42V65.93h6.93V67.5h-6.93V80.82h8.53v1.61Z" fill="#0b675e"/>
      <path d="M810.34,82.43V52.12H812l10.29,25.6V52.12H824V82.43h-1.61L812.13,56.8V82.43Z" fill="#0b675e"/>
      <path d="M836.34,82.84a7.37,7.37,0,0,1-4.58-1.23,6.27,6.27,0,0,1-2.19-3.31,16.51,16.51,0,0,1-.6-4.59V60.84a15.49,15.49,0,0,1,.64-4.66A6.1,6.1,0,0,1,831.85,53a7.46,7.46,0,0,1,4.49-1.18,7.25,7.25,0,0,1,4.16,1,5.73,5.73,0,0,1,2.13,3,14.51,14.51,0,0,1,.64,4.51v1.53h-1.95V60.32a14.46,14.46,0,0,0-.41-3.69,4.22,4.22,0,0,0-1.5-2.34,5,5,0,0,0-3.07-.82,5.36,5.36,0,0,0-3.33.9,4.48,4.48,0,0,0-1.57,2.51,15.39,15.39,0,0,0-.41,3.74V74a14.25,14.25,0,0,0,.45,3.84,4.39,4.39,0,0,0,1.61,2.45,5.32,5.32,0,0,0,3.25.86,4.86,4.86,0,0,0,3.11-.86,4.33,4.33,0,0,0,1.48-2.41,15,15,0,0,0,.39-3.61V72.44h1.95v1.5a16.13,16.13,0,0,1-.6,4.6,6,6,0,0,1-2.1,3.16A6.87,6.87,0,0,1,836.34,82.84Zm-.67,6.55h-.52l-.56-.06V88.23a3.18,3.18,0,0,0,.43.06l.39,0a3.86,3.86,0,0,0,1.93-.38,1.28,1.28,0,0,0,.61-1.19,1.44,1.44,0,0,0-.28-.9,2,2,0,0,0-.84-.62,4.66,4.66,0,0,0-1.42-.32V82.43h1.08v1.76a3.44,3.44,0,0,1,2.31.77,2.4,2.4,0,0,1,.69,1.78,2.49,2.49,0,0,1-.43,1.46,2.62,2.62,0,0,1-1.28.89A6.33,6.33,0,0,1,835.67,89.39Z" fill="#0b675e"/>
      <path d="M846.3,82.43l6.36-30.31H855l6.39,30.31h-2l-1.58-8.38h-7.85l-1.61,8.38Zm9.5-34.38a2.56,2.56,0,0,1-1.48-.45c-.43-.3-.84-.6-1.21-.88a1.88,1.88,0,0,0-1.16-.43,1,1,0,0,0-.84.37,1.59,1.59,0,0,0-.32,1.09h-1.35a4.63,4.63,0,0,1,.17-1,3.17,3.17,0,0,1,.65-1.26,1.89,1.89,0,0,1,1.5-.58,2.91,2.91,0,0,1,1.57.43c.45.29.87.58,1.26.88a1.87,1.87,0,0,0,1.17.45,1.08,1.08,0,0,0,.9-.37A2.35,2.35,0,0,0,857,45h1.27a6.4,6.4,0,0,1-.15,1.16,2.76,2.76,0,0,1-.67,1.33A2.15,2.15,0,0,1,855.8,48.05Zm-5.57,24.5h7.29l-3.66-18Z" fill="#0b675e"/>
      <path d="M872.27,82.84a7.79,7.79,0,0,1-4.59-1.17,6.11,6.11,0,0,1-2.26-3.22,15.31,15.31,0,0,1-.64-4.62V60.58a14.11,14.11,0,0,1,.68-4.56,5.91,5.91,0,0,1,2.3-3.11,9.62,9.62,0,0,1,9,0A6,6,0,0,1,879.08,56a14.4,14.4,0,0,1,.67,4.56V73.86a15.15,15.15,0,0,1-.64,4.61,6.08,6.08,0,0,1-2.26,3.2A7.75,7.75,0,0,1,872.27,82.84Zm0-1.68a5.54,5.54,0,0,0,3.34-.86,4.37,4.37,0,0,0,1.63-2.41,13,13,0,0,0,.45-3.61v-14a12.8,12.8,0,0,0-.45-3.59,4.35,4.35,0,0,0-1.61-2.38,7.12,7.12,0,0,0-6.71,0,4.33,4.33,0,0,0-1.63,2.38,12.8,12.8,0,0,0-.45,3.59v14a13,13,0,0,0,.45,3.61,4.37,4.37,0,0,0,1.63,2.41A5.55,5.55,0,0,0,872.27,81.16Z" fill="#0b675e"/>
      <path d="M891.8,82.43V52.12h7.11a7.62,7.62,0,0,1,4.26,1,5.42,5.42,0,0,1,2.15,2.79,12.76,12.76,0,0,1,0,7.86,6,6,0,0,1-2.15,3A6.81,6.81,0,0,1,898.94,68h-5.12V82.43Zm2-16.05h4.68a6.37,6.37,0,0,0,3-.63,4,4,0,0,0,1.76-2,10.22,10.22,0,0,0,.58-3.77,10.88,10.88,0,0,0-.53-3.79,3.3,3.3,0,0,0-1.68-1.91,7.45,7.45,0,0,0-3.11-.54h-4.71Z" fill="#0b675e"/>
      <path d="M910,82.43V52.12h7.33a7.24,7.24,0,0,1,4.13,1,5,5,0,0,1,2,2.69,12.55,12.55,0,0,1,.54,3.8,14.12,14.12,0,0,1-.36,3.22,5.68,5.68,0,0,1-1.31,2.6,4.56,4.56,0,0,1-2.78,1.36l4.86,15.64h-2l-4.71-15.26H912V82.43Zm2-16.84h5.23a5.07,5.07,0,0,0,3-.72,3.79,3.79,0,0,0,1.4-2.08,11.13,11.13,0,0,0,.4-3.18,8.18,8.18,0,0,0-1-4.38c-.63-1-1.91-1.5-3.83-1.5H912Z" fill="#0b675e"/>
      <path d="M929,82.43V52.12h2V82.43Z" fill="#0b675e"/>
      <path d="M936.29,82.43l.9-30.31h2l6.4,27.36,6.51-27.36h2.09l.86,30.31h-1.76L952.56,57l-6.17,25.4H944.9l-6.1-25.37-.75,25.37Z" fill="#0b675e"/>
      <path d="M958.7,82.43l6.36-30.31h2.36l6.4,30.31h-2.06l-1.57-8.38h-7.86l-1.61,8.38Zm3.93-9.88h7.3l-3.67-18Zm3.14-22.22,2.4-7.26h2l-3.37,7.26Z" fill="#0b675e"/>
      <path d="M977.82,82.43V52.12h7.34a7.26,7.26,0,0,1,4.13,1,5,5,0,0,1,2,2.69,12.24,12.24,0,0,1,.55,3.8,14.12,14.12,0,0,1-.36,3.22,5.78,5.78,0,0,1-1.31,2.6,4.56,4.56,0,0,1-2.79,1.36l4.87,15.64h-2l-4.72-15.26h-5.65V82.43Zm2-16.84h5.24a5.09,5.09,0,0,0,3-.72,3.79,3.79,0,0,0,1.4-2.08,11.52,11.52,0,0,0,.39-3.18,8.19,8.19,0,0,0-1-4.38q-1-1.5-3.84-1.5h-5.2Z" fill="#0b675e"/>
      <path d="M996.87,82.43V52.12h2V82.43Z" fill="#0b675e"/>
      <path d="M1002.93,82.43l6.36-30.31h2.36l6.4,30.31H1016l-1.57-8.38h-7.86L1005,82.43Zm3.93-9.88h7.29l-3.66-18Z" fill="#0b675e"/>
    </g>
    <g>
      <path d="M0,81.67V7.5H18q6.59,0,10.11,2.43a12.3,12.3,0,0,1,4.86,6.59,30.65,30.65,0,0,1,1.33,9.29,34.86,34.86,0,0,1-.87,7.88,14.22,14.22,0,0,1-3.21,6.36,11.25,11.25,0,0,1-6.82,3.34l11.9,38.28H30.31L18.77,44.31H4.94V81.67ZM4.94,40.46H17.76q4.77,0,7.24-1.78a9.22,9.22,0,0,0,3.43-5.08,28.07,28.07,0,0,0,1-7.79q0-7-2.33-10.71t-9.39-3.66H4.94Z" fill="#0b675e"/>
      <path d="M46,81.67V7.5H71.6v4H51V41.29H67.94v3.84H51v32.6H71.88v3.94Z" fill="#0b675e"/>
      <path d="M81.58,81.67V7.5H97.79q7.42,0,11.54,2.84A14.86,14.86,0,0,1,115.1,18a33.44,33.44,0,0,1,1.65,10.8V59.6a36,36,0,0,1-1.65,11.31,15.38,15.38,0,0,1-5.63,7.87q-4,2.89-11.22,2.89Zm5-3.94H98q6,0,9-2.56a12.2,12.2,0,0,0,3.84-6.83,44.13,44.13,0,0,0,.92-9.29V29.2a35.7,35.7,0,0,0-1.1-9.39,10.78,10.78,0,0,0-4.12-6.13q-3-2.14-8.7-2.15H86.53Z" fill="#0b675e"/>
      <path d="M128.37,81.67V7.5H154v4h-20.6V41.29h16.94v3.84H133.41v32.6h20.88v3.94Z" fill="#0b675e"/>
      <path d="M181.39,82.67a21.9,21.9,0,0,1-11.17-2.61,16.4,16.4,0,0,1-6.78-7.64,32.91,32.91,0,0,1-2.56-12.36l11.63-2.29a35.83,35.83,0,0,0,1.05,7.6,11,11,0,0,0,2.66,5.08,6.37,6.37,0,0,0,4.71,1.79q3.3,0,4.67-2a8.5,8.5,0,0,0,1.38-5,13.55,13.55,0,0,0-2.2-8,34.86,34.86,0,0,0-5.86-6.23l-9.34-8.24a27.66,27.66,0,0,1-6.27-7.55A20.78,20.78,0,0,1,161,25q0-8.79,5.13-13.55t14-4.77a20.76,20.76,0,0,1,8.7,1.61,13.91,13.91,0,0,1,5.54,4.44,20,20,0,0,1,3.06,6.45,38.08,38.08,0,0,1,1.29,7.65l-11.54,2a38.61,38.61,0,0,0-.78-6.22,8.7,8.7,0,0,0-2.11-4.31,5.92,5.92,0,0,0-4.44-1.55,5.6,5.6,0,0,0-4.62,2,7.47,7.47,0,0,0-1.6,4.89,11.2,11.2,0,0,0,1.55,6.18,24.38,24.38,0,0,0,4.49,5l9.25,8.14a38.74,38.74,0,0,1,7.83,9A23.1,23.1,0,0,1,200,64.45a18.74,18.74,0,0,1-2.34,9.43,16.68,16.68,0,0,1-6.5,6.46A19.59,19.59,0,0,1,181.39,82.67Z" fill="#0b675e"/>
      <path d="M227.81,82.67q-8.24,0-12.82-3a15.38,15.38,0,0,1-6.31-8.6,45.28,45.28,0,0,1-1.74-13.37V7.5h13.18V59.23a43.73,43.73,0,0,0,.46,6.55,9.2,9.2,0,0,0,2.15,5,6.5,6.5,0,0,0,5.08,1.87q3.57,0,5.18-1.87a10,10,0,0,0,2.1-5,39.92,39.92,0,0,0,.51-6.55V7.5h13.09V57.68A45.28,45.28,0,0,1,247,71.05a15.51,15.51,0,0,1-6.27,8.6Q236.15,82.68,227.81,82.67Z" fill="#0b675e"/>
      <path d="M258.85,81.67V7.5H272.4V72.33h18v9.34Z" fill="#0b675e"/>
    </g>
  </g>
</svg>
