<svg xmlns="http://www.w3.org/2000/svg" width="415.04" height="144.87" viewBox="0 0 415.04 144.87">
  <g>
    <g>
      <path d="M0,114.39V96.57H1.21v17.82Z" fill="#0b675e"/>
      <path d="M4.53,114.39V96.57h1l6,15v-15h1.05v17.82h-.94L5.59,99.32v15.07Z" fill="#0b675e"/>
      <path d="M19.42,114.61A4.22,4.22,0,0,1,17.1,114a3.54,3.54,0,0,1-1.38-1.6,7.23,7.23,0,0,1-.59-2.44l1-.33a10.53,10.53,0,0,0,.47,2.07,2.87,2.87,0,0,0,1,1.39,3,3,0,0,0,1.82.5,3.05,3.05,0,0,0,2.08-.66,2.78,2.78,0,0,0,.76-2.2,3.79,3.79,0,0,0-.6-2.1,12.51,12.51,0,0,0-1.71-2l-3.25-3.23a5.76,5.76,0,0,1-1.19-1.67,4.17,4.17,0,0,1-.38-1.72,3.4,3.4,0,0,1,1.09-2.7,4.17,4.17,0,0,1,2.83-.95,5.53,5.53,0,0,1,1.63.23,3.36,3.36,0,0,1,1.26.75,3.56,3.56,0,0,1,.85,1.38,7.79,7.79,0,0,1,.39,2.11l-1,.24A7.5,7.5,0,0,0,21.78,99a2.51,2.51,0,0,0-1-1.24,3.19,3.19,0,0,0-1.72-.41,3.24,3.24,0,0,0-2,.62,2.33,2.33,0,0,0-.82,2,3.4,3.4,0,0,0,.28,1.32,4.66,4.66,0,0,0,1,1.38l3.21,3.17a13.08,13.08,0,0,1,1.86,2.25,4.74,4.74,0,0,1,.78,2.63,4.41,4.41,0,0,1-.5,2.21,3.14,3.14,0,0,1-1.41,1.29A4.84,4.84,0,0,1,19.42,114.61Z" fill="#0b675e"/>
      <path d="M28.15,114.39V97.54H24.59v-1h8.23v1H29.34v16.85Z" fill="#0b675e"/>
      <path d="M34.91,114.39V96.57h4.31a4.28,4.28,0,0,1,2.43.58,3,3,0,0,1,1.16,1.59,7.07,7.07,0,0,1,.32,2.23,8.29,8.29,0,0,1-.21,1.89,3.37,3.37,0,0,1-.77,1.53,2.64,2.64,0,0,1-1.64.8l2.86,9.2H42.19l-2.78-9H36.09v9Zm1.18-9.9h3.08a2.94,2.94,0,0,0,1.74-.43,2.17,2.17,0,0,0,.82-1.22A6.48,6.48,0,0,0,42,101a4.83,4.83,0,0,0-.56-2.57,2.49,2.49,0,0,0-2.26-.88H36.09Z" fill="#0b675e"/>
      <path d="M50.3,114.63a5.31,5.31,0,0,1-2.7-.58,3.14,3.14,0,0,1-1.36-1.59,6.4,6.4,0,0,1-.38-2.25V96.57h1.19v13.66a5.36,5.36,0,0,0,.27,1.75,2.29,2.29,0,0,0,1,1.22,3.84,3.84,0,0,0,2,.44,3.6,3.6,0,0,0,1.93-.45,2.59,2.59,0,0,0,1-1.22,4.81,4.81,0,0,0,.31-1.74V96.57h1.16v13.64a6,6,0,0,1-.41,2.25,3.33,3.33,0,0,1-1.38,1.59A5.13,5.13,0,0,1,50.3,114.63Z" fill="#0b675e"/>
      <path d="M57.58,114.39l.53-17.82H59.3l3.76,16.08,3.83-16.08h1.23l.5,17.82h-1l-.44-14.94-3.63,14.94h-.88L59.06,99.47l-.44,14.92Z" fill="#0b675e"/>
      <path d="M71.68,114.39V96.57h6.16v1h-5v7.15H77v.92H72.89v7.83h5v1Z" fill="#0b675e"/>
      <path d="M80.35,114.39V96.57h.94l6,15v-15H88.4v17.82h-1l-6-15.07v15.07Z" fill="#0b675e"/>
      <path d="M94,114.39V97.54H90.46v-1h8.23v1H95.22v16.85Z" fill="#0b675e"/>
      <path d="M104.81,114.63a4.57,4.57,0,0,1-2.7-.69,3.62,3.62,0,0,1-1.33-1.9,9.06,9.06,0,0,1-.37-2.71v-7.79a8.41,8.41,0,0,1,.39-2.68A3.6,3.6,0,0,1,102.15,97a5.67,5.67,0,0,1,5.31,0,3.6,3.6,0,0,1,1.35,1.83,8.41,8.41,0,0,1,.39,2.68v7.81a9,9,0,0,1-.37,2.7,3.59,3.59,0,0,1-1.33,1.89A4.55,4.55,0,0,1,104.81,114.63Zm0-1a3.24,3.24,0,0,0,2-.51,2.54,2.54,0,0,0,1-1.42,7.45,7.45,0,0,0,.26-2.12v-8.22a7.5,7.5,0,0,0-.26-2.12,2.53,2.53,0,0,0-1-1.39,4.13,4.13,0,0,0-3.94,0,2.5,2.5,0,0,0-1,1.39,7.5,7.5,0,0,0-.26,2.12v8.22a7.45,7.45,0,0,0,.26,2.12,2.54,2.54,0,0,0,1,1.42A3.26,3.26,0,0,0,104.81,113.64Z" fill="#0b675e"/>
      <path d="M120.44,114.39V96.57h3.9a4.89,4.89,0,0,1,2.77.68,3.56,3.56,0,0,1,1.38,1.85,7.88,7.88,0,0,1,.4,2.6v7.39a8.44,8.44,0,0,1-.4,2.71,3.64,3.64,0,0,1-1.35,1.89,4.48,4.48,0,0,1-2.69.7Zm1.19-1h2.75a3.17,3.17,0,0,0,2.16-.62,2.91,2.91,0,0,0,.92-1.63,10.51,10.51,0,0,0,.22-2.24v-7.17a8.81,8.81,0,0,0-.26-2.25,2.59,2.59,0,0,0-1-1.47,3.55,3.55,0,0,0-2.09-.52h-2.71Z" fill="#0b675e"/>
      <path d="M131.79,114.39V96.57H138v1H133v7.15h4.07v.92H133v7.83h5v1Z" fill="#0b675e"/>
      <path d="M143.67,114.39l3.74-17.82h1.38l3.77,17.82h-1.21l-.93-4.93H145.8l-.94,4.93Zm2.31-5.81h4.29L148.11,98Z" fill="#0b675e"/>
      <path d="M157.17,114.39l-4.31-17.82h1.19l3.7,15.73,3.45-15.73h1.17l-4.07,17.82Z" fill="#0b675e"/>
      <path d="M162.67,114.39l3.74-17.82h1.39l3.76,17.82h-1.21l-.92-4.93h-4.62l-.95,4.93Zm2.31-5.81h4.29L167.12,98Z" fill="#0b675e"/>
      <path d="M173.91,114.39V96.57h1.19v16.87h5.39v1Z" fill="#0b675e"/>
      <path d="M182.14,114.39V96.57h1.19v17.82Z" fill="#0b675e"/>
      <path d="M185.7,114.39l3.74-17.82h1.39l3.76,17.82h-1.21l-.93-4.93h-4.61l-1,4.93Zm2.31-5.81h4.29L190.14,98Z" fill="#0b675e"/>
      <path d="M200.86,114.63a4.28,4.28,0,0,1-2.7-.73,3.72,3.72,0,0,1-1.29-1.94,10,10,0,0,1-.35-2.7V101.7A9.16,9.16,0,0,1,196.9,99a3.66,3.66,0,0,1,1.32-1.9,4.41,4.41,0,0,1,2.64-.69,4.21,4.21,0,0,1,2.44.62,3.35,3.35,0,0,1,1.25,1.75,8.42,8.42,0,0,1,.38,2.65v.9h-1.15v-.9a8.45,8.45,0,0,0-.24-2.17,2.49,2.49,0,0,0-.88-1.37,2.9,2.9,0,0,0-1.8-.49,3.16,3.16,0,0,0-2,.53,2.63,2.63,0,0,0-.93,1.47,9,9,0,0,0-.24,2.2v7.88a8.15,8.15,0,0,0,.27,2.25,2.54,2.54,0,0,0,.94,1.44,3.15,3.15,0,0,0,1.92.51,2.84,2.84,0,0,0,1.82-.51,2.47,2.47,0,0,0,.87-1.42,8.82,8.82,0,0,0,.23-2.12v-1.08h1.15v.88a9.31,9.31,0,0,1-.36,2.71,3.49,3.49,0,0,1-1.23,1.86A4,4,0,0,1,200.86,114.63Zm-.4,3.85h-.31l-.33,0v-.63l.26,0h.23a2.21,2.21,0,0,0,1.13-.22.76.76,0,0,0,.36-.7.84.84,0,0,0-.16-.53,1.14,1.14,0,0,0-.5-.36,2.61,2.61,0,0,0-.83-.19v-1.45h.63v1a2,2,0,0,1,1.36.45,1.42,1.42,0,0,1,.4,1,1.4,1.4,0,0,1-.25.85,1.51,1.51,0,0,1-.75.53A3.65,3.65,0,0,1,200.46,118.48Z" fill="#0b675e"/>
      <path d="M206.71,114.39l3.74-17.82h1.38l3.76,17.82h-1.21l-.92-4.93h-4.62l-1,4.93Zm5.58-20.22a1.56,1.56,0,0,1-.87-.26l-.71-.52a1.1,1.1,0,0,0-.68-.25.62.62,0,0,0-.5.22,1,1,0,0,0-.18.64h-.8a3.17,3.17,0,0,1,.1-.6,1.85,1.85,0,0,1,.39-.73,1.07,1.07,0,0,1,.88-.34,1.65,1.65,0,0,1,.92.25c.27.17.51.34.74.51a1.12,1.12,0,0,0,.69.27.63.63,0,0,0,.53-.22,1.37,1.37,0,0,0,.2-.77h.75a3.62,3.62,0,0,1-.09.68,1.62,1.62,0,0,1-.4.78A1.23,1.23,0,0,1,212.29,94.17ZM209,108.58h4.29L211.15,98Z" fill="#0b675e"/>
      <path d="M222,114.63a4.51,4.51,0,0,1-2.69-.69A3.62,3.62,0,0,1,218,112a9.05,9.05,0,0,1-.38-2.71v-7.79a8.12,8.12,0,0,1,.4-2.68A3.49,3.49,0,0,1,219.32,97a5.65,5.65,0,0,1,5.3,0A3.49,3.49,0,0,1,226,98.86a8.12,8.12,0,0,1,.4,2.68v7.81a9,9,0,0,1-.37,2.7,3.65,3.65,0,0,1-1.33,1.89A4.57,4.57,0,0,1,222,114.63Zm0-1a3.28,3.28,0,0,0,2-.51,2.59,2.59,0,0,0,1-1.42,7.83,7.83,0,0,0,.26-2.12v-8.22a7.88,7.88,0,0,0-.26-2.12,2.53,2.53,0,0,0-1-1.39,4.15,4.15,0,0,0-3.95,0,2.48,2.48,0,0,0-.95,1.39,7.48,7.48,0,0,0-.27,2.12v8.22a7.43,7.43,0,0,0,.27,2.12,2.52,2.52,0,0,0,.95,1.42A3.28,3.28,0,0,0,222,113.64Z" fill="#0b675e"/>
      <path d="M233.45,114.39V96.57h3.9a4.89,4.89,0,0,1,2.77.68,3.56,3.56,0,0,1,1.38,1.85,7.88,7.88,0,0,1,.4,2.6v7.39a8.44,8.44,0,0,1-.4,2.71,3.64,3.64,0,0,1-1.35,1.89,4.48,4.48,0,0,1-2.69.7Zm1.19-1h2.75a3.17,3.17,0,0,0,2.16-.62,3,3,0,0,0,.92-1.63,10.51,10.51,0,0,0,.22-2.24v-7.17a8.36,8.36,0,0,0-.27-2.25,2.53,2.53,0,0,0-1-1.47,3.57,3.57,0,0,0-2.09-.52h-2.71Z" fill="#0b675e"/>
      <path d="M243.88,114.39l3.74-17.82H249l3.76,17.82h-1.21l-.92-4.93H246l-.94,4.93Zm2.31-5.81h4.29L248.32,98Z" fill="#0b675e"/>
      <path d="M263.23,114.63a4.27,4.27,0,0,1-2.69-.73,3.72,3.72,0,0,1-1.29-1.94,10,10,0,0,1-.35-2.7V101.7a9.51,9.51,0,0,1,.37-2.74,3.66,3.66,0,0,1,1.32-1.9,4.41,4.41,0,0,1,2.64-.69,4.25,4.25,0,0,1,2.45.62,3.35,3.35,0,0,1,1.25,1.75,8.44,8.44,0,0,1,.37,2.65v.9h-1.14v-.9a8.45,8.45,0,0,0-.24-2.17,2.49,2.49,0,0,0-.88-1.37,2.91,2.91,0,0,0-1.81-.49,3.12,3.12,0,0,0-2,.53,2.57,2.57,0,0,0-.93,1.47,9,9,0,0,0-.24,2.2v7.88a8.59,8.59,0,0,0,.26,2.25,2.61,2.61,0,0,0,.95,1.44,3.12,3.12,0,0,0,1.91.51,2.87,2.87,0,0,0,1.83-.51,2.58,2.58,0,0,0,.87-1.42,8.82,8.82,0,0,0,.23-2.12v-1.08h1.14v.88a9.33,9.33,0,0,1-.35,2.71,3.49,3.49,0,0,1-1.23,1.86A4.1,4.1,0,0,1,263.23,114.63Z" fill="#0b675e"/>
      <path d="M274.06,114.63a4.57,4.57,0,0,1-2.7-.69A3.62,3.62,0,0,1,270,112a9.06,9.06,0,0,1-.37-2.71v-7.79a8.41,8.41,0,0,1,.39-2.68A3.6,3.6,0,0,1,271.4,97a5.67,5.67,0,0,1,5.31,0,3.6,3.6,0,0,1,1.35,1.83,8.41,8.41,0,0,1,.39,2.68v7.81a9,9,0,0,1-.37,2.7,3.59,3.59,0,0,1-1.33,1.89A4.55,4.55,0,0,1,274.06,114.63Zm0-1a3.24,3.24,0,0,0,2-.51,2.54,2.54,0,0,0,1-1.42,7.45,7.45,0,0,0,.26-2.12v-8.22a7.5,7.5,0,0,0-.26-2.12,2.53,2.53,0,0,0-1-1.39,4.13,4.13,0,0,0-3.94,0,2.5,2.5,0,0,0-1,1.39,7.5,7.5,0,0,0-.26,2.12v8.22a7.45,7.45,0,0,0,.26,2.12,2.54,2.54,0,0,0,1,1.42A3.26,3.26,0,0,0,274.06,113.64Z" fill="#0b675e"/>
      <path d="M285.4,114.63a4.55,4.55,0,0,1-2.69-.69,3.62,3.62,0,0,1-1.33-1.9,9.06,9.06,0,0,1-.37-2.71v-7.79a8.41,8.41,0,0,1,.39-2.68A3.6,3.6,0,0,1,282.75,97a5.67,5.67,0,0,1,5.31,0,3.6,3.6,0,0,1,1.35,1.83,8.41,8.41,0,0,1,.39,2.68v7.81a9,9,0,0,1-.37,2.7,3.59,3.59,0,0,1-1.33,1.89A4.57,4.57,0,0,1,285.4,114.63Zm0-1a3.26,3.26,0,0,0,2-.51,2.54,2.54,0,0,0,1-1.42,7.45,7.45,0,0,0,.26-2.12v-8.22a7.5,7.5,0,0,0-.26-2.12,2.53,2.53,0,0,0-.95-1.39,4.13,4.13,0,0,0-3.94,0,2.5,2.5,0,0,0-1,1.39,7.5,7.5,0,0,0-.26,2.12v8.22a7.45,7.45,0,0,0,.26,2.12,2.54,2.54,0,0,0,1,1.42A3.24,3.24,0,0,0,285.4,113.64Z" fill="#0b675e"/>
      <path d="M292.73,114.39V96.57H297a4.24,4.24,0,0,1,2.43.58,3,3,0,0,1,1.17,1.59A7.38,7.38,0,0,1,301,101a8.3,8.3,0,0,1-.2,1.89,3.47,3.47,0,0,1-.77,1.53,2.66,2.66,0,0,1-1.64.8l2.86,9.2H300l-2.77-9h-3.32v9Zm1.19-9.9H297a2.89,2.89,0,0,0,1.73-.43,2.24,2.24,0,0,0,.83-1.22,6.88,6.88,0,0,0,.23-1.87,4.83,4.83,0,0,0-.56-2.57,2.49,2.49,0,0,0-2.26-.88h-3.05Z" fill="#0b675e"/>
      <path d="M303.9,114.39V96.57h3.9a4.89,4.89,0,0,1,2.77.68A3.56,3.56,0,0,1,312,99.1a7.88,7.88,0,0,1,.4,2.6v7.39a8.44,8.44,0,0,1-.4,2.71,3.64,3.64,0,0,1-1.35,1.89,4.48,4.48,0,0,1-2.69.7Zm1.19-1h2.75a3.17,3.17,0,0,0,2.16-.62,3,3,0,0,0,.92-1.63,10.51,10.51,0,0,0,.22-2.24v-7.17a8.36,8.36,0,0,0-.27-2.25,2.53,2.53,0,0,0-1-1.47,3.57,3.57,0,0,0-2.09-.52h-2.71Z" fill="#0b675e"/>
      <path d="M315.25,114.39V96.57h6.16v1h-5v7.15h4.07v.92h-4.07v7.83h5v1Z" fill="#0b675e"/>
      <path d="M323.92,114.39V96.57h.94l6.05,15v-15H332v17.82h-1l-6-15.07v15.07Z" fill="#0b675e"/>
      <path d="M334.3,114.39,338,96.57h1.38l3.77,17.82H342l-.93-4.93h-4.62l-.94,4.93Zm2.31-5.81h4.29L338.74,98Z" fill="#0b675e"/>
      <path d="M349.45,114.63a4.27,4.27,0,0,1-2.69-.73,3.72,3.72,0,0,1-1.29-1.94,10,10,0,0,1-.35-2.7V101.7a9.18,9.18,0,0,1,.37-2.74,3.66,3.66,0,0,1,1.32-1.9,4.41,4.41,0,0,1,2.64-.69,4.19,4.19,0,0,1,2.44.62,3.31,3.31,0,0,1,1.26,1.75,8.44,8.44,0,0,1,.37,2.65v.9h-1.14v-.9a8.45,8.45,0,0,0-.24-2.17,2.49,2.49,0,0,0-.88-1.37,2.91,2.91,0,0,0-1.81-.49,3.12,3.12,0,0,0-1.95.53,2.57,2.57,0,0,0-.93,1.47,9,9,0,0,0-.24,2.2v7.88a8.59,8.59,0,0,0,.26,2.25,2.61,2.61,0,0,0,1,1.44,3.12,3.12,0,0,0,1.91.51,2.87,2.87,0,0,0,1.83-.51,2.58,2.58,0,0,0,.87-1.42,8.82,8.82,0,0,0,.23-2.12v-1.08h1.14v.88a9.33,9.33,0,0,1-.35,2.71,3.49,3.49,0,0,1-1.23,1.86A4.1,4.1,0,0,1,349.45,114.63Zm-.39,3.85h-.31l-.33,0v-.63l.25,0h.23a2.25,2.25,0,0,0,1.14-.22.76.76,0,0,0,.36-.7.84.84,0,0,0-.17-.53,1.1,1.1,0,0,0-.49-.36,2.61,2.61,0,0,0-.84-.19v-1.45h.64v1a2,2,0,0,1,1.35.45,1.39,1.39,0,0,1,.41,1,1.4,1.4,0,0,1-.25.85,1.51,1.51,0,0,1-.75.53A3.65,3.65,0,0,1,349.06,118.48Z" fill="#0b675e"/>
      <path d="M355.3,114.39,359,96.57h1.39l3.76,17.82H363l-.92-4.93h-4.62l-.95,4.93Zm5.59-20.22a1.56,1.56,0,0,1-.87-.26l-.71-.52a1.1,1.1,0,0,0-.68-.25.62.62,0,0,0-.5.22,1,1,0,0,0-.19.64h-.79a2.52,2.52,0,0,1,.1-.6,1.73,1.73,0,0,1,.39-.73,1.07,1.07,0,0,1,.88-.34,1.65,1.65,0,0,1,.92.25c.26.17.51.34.74.51a1.08,1.08,0,0,0,.69.27.64.64,0,0,0,.53-.22,1.38,1.38,0,0,0,.19-.77h.75a3.62,3.62,0,0,1-.09.68,1.6,1.6,0,0,1-.39.78A1.24,1.24,0,0,1,360.89,94.17Zm-3.28,14.41h4.29L359.75,98Z" fill="#0b675e"/>
      <path d="M370.57,114.63a4.57,4.57,0,0,1-2.7-.69,3.67,3.67,0,0,1-1.33-1.9,9.06,9.06,0,0,1-.37-2.71v-7.79a8.12,8.12,0,0,1,.4-2.68A3.49,3.49,0,0,1,367.92,97a5.65,5.65,0,0,1,5.3,0,3.49,3.49,0,0,1,1.35,1.83,8.12,8.12,0,0,1,.4,2.68v7.81a8.94,8.94,0,0,1-.38,2.7,3.59,3.59,0,0,1-1.33,1.89A4.53,4.53,0,0,1,370.57,114.63Zm0-1a3.28,3.28,0,0,0,2-.51,2.52,2.52,0,0,0,.95-1.42,7.43,7.43,0,0,0,.27-2.12v-8.22a7.48,7.48,0,0,0-.27-2.12,2.52,2.52,0,0,0-.94-1.39,4.15,4.15,0,0,0-3.95,0,2.55,2.55,0,0,0-1,1.39,7.88,7.88,0,0,0-.26,2.12v8.22a7.83,7.83,0,0,0,.26,2.12,2.59,2.59,0,0,0,1,1.42A3.28,3.28,0,0,0,370.57,113.64Z" fill="#0b675e"/>
      <path d="M382.05,114.39V96.57h3.89a4.87,4.87,0,0,1,2.77.68,3.58,3.58,0,0,1,1.39,1.85,8.15,8.15,0,0,1,.4,2.6v7.39a8.72,8.72,0,0,1-.4,2.71,3.7,3.7,0,0,1-1.35,1.89,4.49,4.49,0,0,1-2.7.7Zm1.19-1H386a3.15,3.15,0,0,0,2.15-.62,2.93,2.93,0,0,0,.93-1.63,11.19,11.19,0,0,0,.22-2.24v-7.17a8.36,8.36,0,0,0-.27-2.25,2.5,2.5,0,0,0-1-1.47,3.53,3.53,0,0,0-2.09-.52h-2.7Z" fill="#0b675e"/>
      <path d="M392.48,114.39l3.73-17.82h1.39l3.76,17.82h-1.21l-.92-4.93h-4.62l-.95,4.93Zm2.3-5.81h4.29L396.92,98Z" fill="#0b675e"/>
      <path d="M407.28,114.61A4.22,4.22,0,0,1,405,114a3.62,3.62,0,0,1-1.39-1.6A7.23,7.23,0,0,1,403,110l1-.33a10.51,10.51,0,0,0,.48,2.07,2.85,2.85,0,0,0,1,1.39,3,3,0,0,0,1.83.5,3.07,3.07,0,0,0,2.08-.66,2.81,2.81,0,0,0,.76-2.2,3.72,3.72,0,0,0-.61-2.1,11.9,11.9,0,0,0-1.7-2l-3.26-3.23a5.71,5.71,0,0,1-1.18-1.67A4.17,4.17,0,0,1,403,100a3.37,3.37,0,0,1,1.09-2.7,4.17,4.17,0,0,1,2.83-.95,5.42,5.42,0,0,1,1.62.23,3.32,3.32,0,0,1,1.27.75,3.56,3.56,0,0,1,.85,1.38,8.2,8.2,0,0,1,.39,2.11l-1,.24a7.13,7.13,0,0,0-.42-2.09,2.46,2.46,0,0,0-1-1.24,3.13,3.13,0,0,0-1.71-.41,3.29,3.29,0,0,0-2,.62,2.33,2.33,0,0,0-.81,2,3.23,3.23,0,0,0,.28,1.32,4.66,4.66,0,0,0,1,1.38l3.21,3.17a13.08,13.08,0,0,1,1.86,2.25,4.74,4.74,0,0,1,.78,2.63,4.3,4.3,0,0,1-.51,2.21,3.07,3.07,0,0,1-1.4,1.29A4.88,4.88,0,0,1,407.28,114.61Z" fill="#0b675e"/>
      <path d="M0,140.78V123H4.31a4.23,4.23,0,0,1,2.43.59,3,3,0,0,1,1.17,1.58,7.41,7.41,0,0,1,.32,2.23A8.29,8.29,0,0,1,8,129.25a3.36,3.36,0,0,1-.77,1.53,2.72,2.72,0,0,1-1.64.81l2.86,9.19H7.28l-2.77-9H1.19v9Zm1.19-9.9H4.27A2.89,2.89,0,0,0,6,130.45a2.15,2.15,0,0,0,.83-1.22,6.83,6.83,0,0,0,.23-1.87,4.85,4.85,0,0,0-.56-2.57,2.48,2.48,0,0,0-2.26-.88H1.19Z" fill="#0b675e"/>
      <path d="M11.15,140.78V123h6.16v1H12.36v7.15h4.07V132H12.36v7.83h5v.95Z" fill="#0b675e"/>
      <path d="M19.82,140.78V123h3.89a4.79,4.79,0,0,1,2.77.69,3.61,3.61,0,0,1,1.39,1.84,8.2,8.2,0,0,1,.39,2.6v7.39a8.8,8.8,0,0,1-.39,2.72,3.71,3.71,0,0,1-1.36,1.89,4.51,4.51,0,0,1-2.69.69Zm1.18-.95h2.75a3.22,3.22,0,0,0,2.16-.61,2.88,2.88,0,0,0,.92-1.64,10.41,10.41,0,0,0,.22-2.23v-7.17a8.41,8.41,0,0,0-.26-2.26,2.59,2.59,0,0,0-1-1.47,3.53,3.53,0,0,0-2.09-.52H21Z" fill="#0b675e"/>
      <path d="M31.17,140.78V123h6.16v1H32.38v7.15h4.07V132H32.38v7.83h5v.95Z" fill="#0b675e"/>
      <path d="M43.4,141a4.29,4.29,0,0,1-2.32-.57,3.59,3.59,0,0,1-1.39-1.61,7,7,0,0,1-.58-2.44l1-.33a10.21,10.21,0,0,0,.47,2.07A2.63,2.63,0,0,0,43.42,140a3.07,3.07,0,0,0,2.08-.66,2.8,2.8,0,0,0,.76-2.2,3.8,3.8,0,0,0-.61-2.1,12.28,12.28,0,0,0-1.7-2l-3.26-3.24a5.82,5.82,0,0,1-1.19-1.67,4.12,4.12,0,0,1-.37-1.71,3.38,3.38,0,0,1,1.09-2.71,4.14,4.14,0,0,1,2.82-.94,5.18,5.18,0,0,1,1.63.23,3.18,3.18,0,0,1,1.27.74,3.5,3.5,0,0,1,.84,1.38,7.84,7.84,0,0,1,.4,2.11l-1,.24a7.2,7.2,0,0,0-.42-2.09,2.5,2.5,0,0,0-1-1.24,3.16,3.16,0,0,0-1.71-.41,3.27,3.27,0,0,0-2,.62,2.33,2.33,0,0,0-.81,2,3.39,3.39,0,0,0,.27,1.32,4.93,4.93,0,0,0,1,1.39l3.21,3.16a13.53,13.53,0,0,1,1.86,2.26,4.71,4.71,0,0,1,.78,2.63,4.33,4.33,0,0,1-.51,2.21,3.12,3.12,0,0,1-1.41,1.28A4.83,4.83,0,0,1,43.4,141Z" fill="#0b675e"/>
      <path d="M53.93,140.78V123h3.89a4.82,4.82,0,0,1,2.78.69A3.54,3.54,0,0,1,62,125.49a7.93,7.93,0,0,1,.4,2.6v7.39a8.5,8.5,0,0,1-.4,2.72,3.64,3.64,0,0,1-1.35,1.89,4.57,4.57,0,0,1-2.7.69Zm1.19-.95h2.75a3.19,3.19,0,0,0,2.15-.61,3,3,0,0,0,.93-1.64,11.09,11.09,0,0,0,.22-2.23v-7.17a8.38,8.38,0,0,0-.27-2.26,2.5,2.5,0,0,0-1-1.47,3.53,3.53,0,0,0-2.09-.52h-2.7Z" fill="#0b675e"/>
      <path d="M65.28,140.78V123h6.16v1h-5v7.15h4.07V132H66.49v7.83h5v.95Z" fill="#0b675e"/>
      <path d="M77.16,140.78,80.9,123h1.38L86,140.78H84.83l-.92-4.93H79.29l-.94,4.93ZM79.47,135h4.29L81.6,124.42Z" fill="#0b675e"/>
      <path d="M89.91,140.78V123.93H86.35v-1h8.23v1H91.1v16.85Z" fill="#0b675e"/>
      <path d="M96.65,140.78V123h6.15v1h-5v7.15h4.07V132H97.85v7.83h5v.95Z" fill="#0b675e"/>
      <path d="M105.31,140.78V123h1l6,15V123h1v17.82h-.94l-6-15.07v15.07Z" fill="#0b675e"/>
      <path d="M120.6,141a4.36,4.36,0,0,1-2.7-.72,3.71,3.71,0,0,1-1.28-2,9.46,9.46,0,0,1-.36-2.69v-7.57a9.16,9.16,0,0,1,.38-2.74,3.59,3.59,0,0,1,1.32-1.89,4.41,4.41,0,0,1,2.64-.69,4.21,4.21,0,0,1,2.44.61,3.34,3.34,0,0,1,1.25,1.75,8.47,8.47,0,0,1,.38,2.65v.9h-1.15v-.9a8.5,8.5,0,0,0-.24-2.17,2.44,2.44,0,0,0-.88-1.37,2.92,2.92,0,0,0-1.8-.48,3.16,3.16,0,0,0-2,.52,2.67,2.67,0,0,0-.92,1.48,8.49,8.49,0,0,0-.25,2.2v7.87a8.28,8.28,0,0,0,.27,2.26,2.61,2.61,0,0,0,.94,1.44,3.25,3.25,0,0,0,1.92.5,2.9,2.9,0,0,0,1.82-.5,2.5,2.5,0,0,0,.87-1.42,8.44,8.44,0,0,0,.23-2.12v-1.08h1.15v.88a9.29,9.29,0,0,1-.36,2.7,3.49,3.49,0,0,1-1.23,1.86A4,4,0,0,1,120.6,141Zm-.4,3.85h-.31l-.33,0v-.64l.26,0h.23a2.21,2.21,0,0,0,1.13-.22.75.75,0,0,0,.36-.7.86.86,0,0,0-.16-.53,1.22,1.22,0,0,0-.5-.36,2.61,2.61,0,0,0-.83-.19v-1.45h.64v1a2,2,0,0,1,1.35.45,1.55,1.55,0,0,1,.15,1.91,1.57,1.57,0,0,1-.75.53A4,4,0,0,1,120.2,144.87Z" fill="#0b675e"/>
      <path d="M126.45,140.78,130.19,123h1.38l3.76,17.82h-1.21l-.92-4.93h-4.62l-.94,4.93ZM132,120.57a1.45,1.45,0,0,1-.87-.27c-.26-.17-.5-.35-.72-.51a1.12,1.12,0,0,0-.68-.26.65.65,0,0,0-.5.22,1,1,0,0,0-.18.64h-.79a2.91,2.91,0,0,1,.09-.59,1.89,1.89,0,0,1,.39-.74,1.07,1.07,0,0,1,.88-.34,1.65,1.65,0,0,1,.92.25,8.75,8.75,0,0,1,.74.52,1.1,1.1,0,0,0,.69.26.63.63,0,0,0,.53-.22,1.35,1.35,0,0,0,.2-.77h.75a3.81,3.81,0,0,1-.09.69,1.62,1.62,0,0,1-.4.78A1.26,1.26,0,0,1,132,120.57ZM128.76,135h4.29l-2.16-10.55Z" fill="#0b675e"/>
      <path d="M141.71,141a4.53,4.53,0,0,1-2.69-.69,3.56,3.56,0,0,1-1.33-1.89,9.12,9.12,0,0,1-.38-2.72v-7.78a8.46,8.46,0,0,1,.4-2.69,3.47,3.47,0,0,1,1.35-1.82,5.65,5.65,0,0,1,5.3,0,3.53,3.53,0,0,1,1.36,1.82,8.47,8.47,0,0,1,.39,2.69v7.8a9,9,0,0,1-.37,2.71,3.62,3.62,0,0,1-1.33,1.88A4.57,4.57,0,0,1,141.71,141Zm0-1a3.35,3.35,0,0,0,2-.5,2.63,2.63,0,0,0,1-1.42,7.93,7.93,0,0,0,.26-2.12v-8.23a7.75,7.75,0,0,0-.26-2.11,2.56,2.56,0,0,0-.95-1.4,3.33,3.33,0,0,0-2-.49,3.38,3.38,0,0,0-2,.49,2.51,2.51,0,0,0-1,1.4,7.36,7.36,0,0,0-.27,2.11V136a7.53,7.53,0,0,0,.27,2.12,2.56,2.56,0,0,0,1,1.42A3.37,3.37,0,0,0,141.71,140Z" fill="#0b675e"/>
      <path d="M152.25,140.78,156,123h1.38l3.76,17.82h-1.21l-.92-4.93h-4.62l-.94,4.93Zm2.31-5.81h4.29l-2.16-10.55Zm1.8-13.06-1.78-4.27h1.19l1.18,4.27Z" fill="#0b675e"/>
      <path d="M171.21,141a4.31,4.31,0,0,1-2.32-.57,3.65,3.65,0,0,1-1.39-1.61,7.23,7.23,0,0,1-.58-2.44l1-.33a9.56,9.56,0,0,0,.48,2.07,2.88,2.88,0,0,0,1,1.4,3,3,0,0,0,1.83.49,3.07,3.07,0,0,0,2.08-.66,2.8,2.8,0,0,0,.76-2.2,3.72,3.72,0,0,0-.61-2.1,12.28,12.28,0,0,0-1.7-2l-3.26-3.24a5.82,5.82,0,0,1-1.19-1.67,4.12,4.12,0,0,1-.37-1.71,3.38,3.38,0,0,1,1.09-2.71,4.17,4.17,0,0,1,2.83-.94,5.11,5.11,0,0,1,1.62.23,3.18,3.18,0,0,1,1.27.74,3.5,3.5,0,0,1,.84,1.38,7.84,7.84,0,0,1,.4,2.11l-1,.24a7.2,7.2,0,0,0-.42-2.09,2.5,2.5,0,0,0-1-1.24,3.13,3.13,0,0,0-1.71-.41,3.29,3.29,0,0,0-2,.62,2.33,2.33,0,0,0-.81,2,3.23,3.23,0,0,0,.28,1.32,4.69,4.69,0,0,0,1,1.39l3.21,3.16a13.53,13.53,0,0,1,1.86,2.26,4.71,4.71,0,0,1,.78,2.63,4.33,4.33,0,0,1-.51,2.21,3,3,0,0,1-1.4,1.28A4.91,4.91,0,0,1,171.21,141Z" fill="#0b675e"/>
      <path d="M176.64,140.78,180.38,123h1.39l3.76,17.82h-1.21l-.93-4.93h-4.62l-.94,4.93ZM179,135h4.29l-2.16-10.55Z" fill="#0b675e"/>
      <path d="M192.1,141a5.21,5.21,0,0,1-2.7-.58,3.16,3.16,0,0,1-1.36-1.58,6.41,6.41,0,0,1-.38-2.26V123h1.19v13.66a5.31,5.31,0,0,0,.27,1.75,2.34,2.34,0,0,0,1,1.22,3.74,3.74,0,0,0,2,.44,3.6,3.6,0,0,0,1.93-.45,2.59,2.59,0,0,0,1-1.22,4.54,4.54,0,0,0,.31-1.74V123h1.16V136.6a6,6,0,0,1-.41,2.26,3.35,3.35,0,0,1-1.38,1.58A5,5,0,0,1,192.1,141Zm-.28-19.11,1.4-4.27h1.19l-2,4.27Z" fill="#0b675e"/>
      <path d="M199.6,140.78V123h3.9a4.81,4.81,0,0,1,2.77.69,3.54,3.54,0,0,1,1.38,1.84,7.93,7.93,0,0,1,.4,2.6v7.39a8.5,8.5,0,0,1-.4,2.72,3.64,3.64,0,0,1-1.35,1.89,4.55,4.55,0,0,1-2.69.69Zm1.19-.95h2.75a3.22,3.22,0,0,0,2.16-.61,3,3,0,0,0,.92-1.64,10.41,10.41,0,0,0,.22-2.23v-7.17a8.38,8.38,0,0,0-.27-2.26,2.53,2.53,0,0,0-1-1.47,3.57,3.57,0,0,0-2.09-.52h-2.71Z" fill="#0b675e"/>
      <path d="M211,140.78V123h6.16v1h-5v7.15h4.07V132h-4.07v7.83h5v.95Z" fill="#0b675e"/>
      <path d="M223.78,140.78V123H228a4.5,4.5,0,0,1,2.51.61,3.24,3.24,0,0,1,1.27,1.64,7.59,7.59,0,0,1,0,4.62,3.68,3.68,0,0,1-1.27,1.76,4.06,4.06,0,0,1-2.48.68h-3v8.51Zm1.18-9.44h2.75a3.69,3.69,0,0,0,1.77-.37,2.34,2.34,0,0,0,1-1.2,6,6,0,0,0,.34-2.21,6.54,6.54,0,0,0-.31-2.23,1.94,1.94,0,0,0-1-1.12,4.26,4.26,0,0,0-1.83-.32H225Z" fill="#0b675e"/>
      <path d="M234.42,140.78V123h6.16v1h-5v7.15h4.07V132h-4.07v7.83h5v.95Z" fill="#0b675e"/>
      <path d="M243.09,140.78V123h1.18v16.87h5.39v.95Z" fill="#0b675e"/>
      <path d="M250.34,140.78,254.08,123h1.39l3.76,17.82H258l-.92-4.93h-4.62l-.95,4.93Zm2.31-5.81h4.29l-2.15-10.55Z" fill="#0b675e"/>
      <path d="M264.79,140.78,268.53,123h1.39l3.76,17.82h-1.21l-.92-4.93h-4.62l-.95,4.93ZM267.1,135h4.29l-2.15-10.55Z" fill="#0b675e"/>
      <path d="M277.55,140.78V123.93H274v-1h8.22v1h-3.47v16.85Z" fill="#0b675e"/>
      <path d="M284.28,140.78V123h6.16v1h-4.95v7.15h4.07V132h-4.07v7.83h5v.95Z" fill="#0b675e"/>
      <path d="M293,140.78V123h.94l6.05,15V123H301v17.82h-.95L294,125.71v15.07Z" fill="#0b675e"/>
      <path d="M308.23,141a4.33,4.33,0,0,1-2.69-.72,3.78,3.78,0,0,1-1.29-2,9.84,9.84,0,0,1-.35-2.69v-7.57a9.16,9.16,0,0,1,.38-2.74,3.49,3.49,0,0,1,1.32-1.89,4.37,4.37,0,0,1,2.63-.69,4.23,4.23,0,0,1,2.45.61,3.39,3.39,0,0,1,1.25,1.75,8.48,8.48,0,0,1,.37,2.65v.9h-1.14v-.9a8.5,8.5,0,0,0-.24-2.17,2.49,2.49,0,0,0-.88-1.37,3,3,0,0,0-1.81-.48,3.12,3.12,0,0,0-2,.52,2.63,2.63,0,0,0-.93,1.48,9,9,0,0,0-.24,2.2v7.87a8.28,8.28,0,0,0,.27,2.26,2.61,2.61,0,0,0,.94,1.44,3.21,3.21,0,0,0,1.91.5,2.93,2.93,0,0,0,1.83-.5,2.56,2.56,0,0,0,.87-1.42,8.94,8.94,0,0,0,.23-2.12v-1.08h1.14v.88a9.3,9.3,0,0,1-.35,2.7,3.49,3.49,0,0,1-1.23,1.86A4,4,0,0,1,308.23,141Zm-.39,3.85h-.31l-.33,0v-.64l.25,0h.23a2.23,2.23,0,0,0,1.14-.22.75.75,0,0,0,.36-.7.86.86,0,0,0-.16-.53,1.22,1.22,0,0,0-.5-.36,2.61,2.61,0,0,0-.84-.19v-1.45h.64v1a2.05,2.05,0,0,1,1.36.45,1.59,1.59,0,0,1,.15,1.91,1.57,1.57,0,0,1-.75.53A4,4,0,0,1,307.84,144.87Z" fill="#0b675e"/>
      <path d="M314.09,140.78,317.82,123h1.39L323,140.78h-1.21l-.92-4.93h-4.62l-1,4.93Zm5.58-20.21a1.49,1.49,0,0,1-.87-.27l-.71-.51a1.12,1.12,0,0,0-.68-.26.65.65,0,0,0-.5.22,1,1,0,0,0-.19.64h-.79a3.1,3.1,0,0,1,.1-.59,1.89,1.89,0,0,1,.39-.74,1.07,1.07,0,0,1,.88-.34,1.65,1.65,0,0,1,.92.25c.26.17.51.34.74.52a1.08,1.08,0,0,0,.69.26.64.64,0,0,0,.53-.22,1.35,1.35,0,0,0,.2-.77h.74a4.68,4.68,0,0,1-.08.69,1.62,1.62,0,0,1-.4.78A1.28,1.28,0,0,1,319.67,120.57ZM316.39,135h4.29l-2.15-10.55Z" fill="#0b675e"/>
      <path d="M329.35,141a4.51,4.51,0,0,1-2.69-.69,3.57,3.57,0,0,1-1.34-1.89,9.47,9.47,0,0,1-.37-2.72v-7.78a8.19,8.19,0,0,1,.4-2.69,3.47,3.47,0,0,1,1.35-1.82,5.65,5.65,0,0,1,5.3,0,3.47,3.47,0,0,1,1.35,1.82,8.19,8.19,0,0,1,.4,2.69v7.8a9,9,0,0,1-.38,2.71,3.51,3.51,0,0,1-1.33,1.88A4.51,4.51,0,0,1,329.35,141Zm0-1a3.35,3.35,0,0,0,2-.5,2.63,2.63,0,0,0,1-1.42,7.93,7.93,0,0,0,.26-2.12v-8.23a7.75,7.75,0,0,0-.26-2.11,2.61,2.61,0,0,0-.95-1.4,4.23,4.23,0,0,0-3.95,0,2.57,2.57,0,0,0-1,1.4,7.75,7.75,0,0,0-.26,2.11V136a7.93,7.93,0,0,0,.26,2.12,2.63,2.63,0,0,0,1,1.42A3.35,3.35,0,0,0,329.35,140Z" fill="#0b675e"/>
      <path d="M340.83,140.78V123H345a4.5,4.5,0,0,1,2.51.61,3.17,3.17,0,0,1,1.26,1.64,7.39,7.39,0,0,1,0,4.62,3.6,3.6,0,0,1-1.26,1.76,4.07,4.07,0,0,1-2.49.68h-3v8.51Zm1.19-9.44h2.75a3.69,3.69,0,0,0,1.77-.37,2.28,2.28,0,0,0,1-1.2,5.82,5.82,0,0,0,.34-2.21,6.58,6.58,0,0,0-.3-2.23,1.94,1.94,0,0,0-1-1.12,4.29,4.29,0,0,0-1.83-.32H342Z" fill="#0b675e"/>
      <path d="M351.5,140.78V123h4.31a4.28,4.28,0,0,1,2.43.59,3,3,0,0,1,1.17,1.58,7.42,7.42,0,0,1,.31,2.23,8.9,8.9,0,0,1-.2,1.89,3.36,3.36,0,0,1-.77,1.53,2.72,2.72,0,0,1-1.64.81l2.86,9.19h-1.19l-2.77-9h-3.32v9Zm1.19-9.9h3.08a2.89,2.89,0,0,0,1.73-.43,2.2,2.2,0,0,0,.83-1.22,6.83,6.83,0,0,0,.23-1.87,4.85,4.85,0,0,0-.56-2.57,2.49,2.49,0,0,0-2.26-.88h-3.05Z" fill="#0b675e"/>
      <path d="M362.69,140.78V123h1.19v17.82Z" fill="#0b675e"/>
      <path d="M367,140.78l.53-17.82h1.19L372.46,139,376.29,123h1.23l.5,17.82h-1l-.44-14.93-3.63,14.93H372l-3.58-14.91L368,140.78Z" fill="#0b675e"/>
      <path d="M380.16,140.78,383.9,123h1.38L389,140.78h-1.21l-.92-4.93h-4.62l-.94,4.93Zm2.31-5.81h4.29l-2.16-10.55Zm1.84-13.06,1.41-4.27h1.19l-2,4.27Z" fill="#0b675e"/>
      <path d="M391.4,140.78V123h4.31a4.28,4.28,0,0,1,2.43.59,2.94,2.94,0,0,1,1.16,1.58,7.11,7.11,0,0,1,.32,2.23,8.29,8.29,0,0,1-.21,1.89,3.27,3.27,0,0,1-.77,1.53,2.7,2.7,0,0,1-1.63.81l2.85,9.19h-1.18l-2.77-9h-3.33v9Zm1.18-9.9h3.08a2.9,2.9,0,0,0,1.74-.43,2.2,2.2,0,0,0,.83-1.22,6.83,6.83,0,0,0,.23-1.87,4.85,4.85,0,0,0-.56-2.57,2.49,2.49,0,0,0-2.26-.88h-3.06Z" fill="#0b675e"/>
      <path d="M402.59,140.78V123h1.19v17.82Z" fill="#0b675e"/>
      <path d="M406.15,140.78,409.89,123h1.39L415,140.78h-1.21l-.92-4.93h-4.62l-1,4.93Zm2.31-5.81h4.29l-2.15-10.55Z" fill="#0b675e"/>
    </g>
    <g>
      <path d="M1,75V.82H19q6.6,0,10.12,2.43A12.31,12.31,0,0,1,34,9.84a30.41,30.41,0,0,1,1.33,9.3A34.77,34.77,0,0,1,34.41,27a14.19,14.19,0,0,1-3.2,6.37,11.28,11.28,0,0,1-6.83,3.34L36.29,75H31.34L19.81,37.63H6V75ZM6,33.79H18.8q4.75,0,7.23-1.79a9.2,9.2,0,0,0,3.44-5.08,28,28,0,0,0,1-7.78q0-7-2.34-10.72T18.71,4.76H6Z" fill="#0b675e"/>
      <path d="M47,75V.82H72.64v4H52V34.61H69v3.85H52v32.6H72.91V75Z" fill="#0b675e"/>
      <path d="M82.62,75V.82H98.83q7.41,0,11.53,2.84a14.9,14.9,0,0,1,5.77,7.69,33.46,33.46,0,0,1,1.65,10.81V52.92a35.89,35.89,0,0,1-1.65,11.31,15.35,15.35,0,0,1-5.63,7.88Q106.53,75,99.28,75Zm4.94-3.93H99q6,0,9-2.57a12.12,12.12,0,0,0,3.85-6.82,44.29,44.29,0,0,0,.91-9.29V22.52a35.65,35.65,0,0,0-1.09-9.38A10.79,10.79,0,0,0,107.52,7q-3-2.14-8.69-2.15H87.56Z" fill="#0b675e"/>
      <path d="M129.41,75V.82h25.64v4h-20.6V34.61h16.93v3.85H134.45v32.6h20.87V75Z" fill="#0b675e"/>
      <path d="M182.42,76a21.93,21.93,0,0,1-11.17-2.61,16.4,16.4,0,0,1-6.77-7.65,32.82,32.82,0,0,1-2.57-12.36l11.63-2.29a35.69,35.69,0,0,0,1.06,7.6,11,11,0,0,0,2.65,5.09A6.37,6.37,0,0,0,182,65.56c2.19,0,3.75-.65,4.67-2a8.54,8.54,0,0,0,1.37-5,13.44,13.44,0,0,0-2.2-8A34.18,34.18,0,0,0,180,44.41l-9.34-8.24a28.22,28.22,0,0,1-6.27-7.56A20.76,20.76,0,0,1,162,18.31q0-8.79,5.12-13.55t14-4.76a20.93,20.93,0,0,1,8.7,1.6A13.84,13.84,0,0,1,195.38,6a20,20,0,0,1,3.07,6.46,38,38,0,0,1,1.28,7.64l-11.54,2a40,40,0,0,0-.77-6.23,8.67,8.67,0,0,0-2.11-4.3,5.91,5.91,0,0,0-4.44-1.56,5.63,5.63,0,0,0-4.63,2,7.56,7.56,0,0,0-1.6,4.9,11.24,11.24,0,0,0,1.56,6.18,24.06,24.06,0,0,0,4.49,5l9.24,8.15a38.34,38.34,0,0,1,7.83,9A23,23,0,0,1,201,57.78a18.86,18.86,0,0,1-2.33,9.43,16.81,16.81,0,0,1-6.5,6.46A19.71,19.71,0,0,1,182.42,76Z" fill="#0b675e"/>
      <path d="M228.85,76Q220.6,76,216,73a15.47,15.47,0,0,1-6.32-8.61A45.23,45.23,0,0,1,208,51V.82h13.19V52.56a45.23,45.23,0,0,0,.45,6.55,9.25,9.25,0,0,0,2.16,4.94,6.49,6.49,0,0,0,5.08,1.88q3.57,0,5.17-1.88a10,10,0,0,0,2.11-4.94,41.18,41.18,0,0,0,.5-6.55V.82h13.1V51A45.57,45.57,0,0,1,248,64.37,15.54,15.54,0,0,1,241.71,73Q237.18,76,228.85,76Z" fill="#0b675e"/>
      <path d="M259.89,75V.82h13.55V65.65h17.95V75Z" fill="#0b675e"/>
    </g>
  </g>
</svg>
